%TF.GenerationSoftware,KiCad,Pcbnew,5.1.6+dfsg1-1~bpo10+1*%
%TF.CreationDate,2020-06-22T19:28:35-07:00*%
%TF.ProjectId,67keys-trackpoint_back_board,36376b65-7973-42d7-9472-61636b706f69,A*%
%TF.SameCoordinates,Original*%
%TF.FileFunction,Copper,L1,Top*%
%TF.FilePolarity,Positive*%
%FSLAX46Y46*%
G04 Gerber Fmt 4.6, Leading zero omitted, Abs format (unit mm)*
G04 Created by KiCad (PCBNEW 5.1.6+dfsg1-1~bpo10+1) date 2020-06-22 19:28:35*
%MOMM*%
%LPD*%
G01*
G04 APERTURE LIST*
%TA.AperFunction,NonConductor*%
%ADD10C,0.203200*%
%TD*%
G04 APERTURE END LIST*
D10*
G36*
X355600964Y-164719400D02*
G01*
X32892600Y-164719400D01*
X32892600Y-159776569D01*
X35628400Y-159776569D01*
X35628400Y-160263431D01*
X35723382Y-160740939D01*
X35909697Y-161190742D01*
X36180183Y-161595553D01*
X36524447Y-161939817D01*
X36929258Y-162210303D01*
X37379061Y-162396618D01*
X37856569Y-162491600D01*
X38343431Y-162491600D01*
X38820939Y-162396618D01*
X39270742Y-162210303D01*
X39675553Y-161939817D01*
X40019817Y-161595553D01*
X40290303Y-161190742D01*
X40476618Y-160740939D01*
X40571600Y-160263431D01*
X40571600Y-159776569D01*
X83888400Y-159776569D01*
X83888400Y-160263431D01*
X83983382Y-160740939D01*
X84169697Y-161190742D01*
X84440183Y-161595553D01*
X84784447Y-161939817D01*
X85189258Y-162210303D01*
X85639061Y-162396618D01*
X86116569Y-162491600D01*
X86603431Y-162491600D01*
X87080939Y-162396618D01*
X87530742Y-162210303D01*
X87935553Y-161939817D01*
X88279817Y-161595553D01*
X88550303Y-161190742D01*
X88736618Y-160740939D01*
X88831600Y-160263431D01*
X88831600Y-159776569D01*
X125798400Y-159776569D01*
X125798400Y-160263431D01*
X125893382Y-160740939D01*
X126079697Y-161190742D01*
X126350183Y-161595553D01*
X126694447Y-161939817D01*
X127099258Y-162210303D01*
X127549061Y-162396618D01*
X128026569Y-162491600D01*
X128513431Y-162491600D01*
X128990939Y-162396618D01*
X129440742Y-162210303D01*
X129845553Y-161939817D01*
X130189817Y-161595553D01*
X130460303Y-161190742D01*
X130646618Y-160740939D01*
X130741600Y-160263431D01*
X130741600Y-159776569D01*
X167708400Y-159776569D01*
X167708400Y-160263431D01*
X167803382Y-160740939D01*
X167989697Y-161190742D01*
X168260183Y-161595553D01*
X168604447Y-161939817D01*
X169009258Y-162210303D01*
X169459061Y-162396618D01*
X169936569Y-162491600D01*
X170423431Y-162491600D01*
X170900939Y-162396618D01*
X171350742Y-162210303D01*
X171755553Y-161939817D01*
X172099817Y-161595553D01*
X172370303Y-161190742D01*
X172556618Y-160740939D01*
X172651600Y-160263431D01*
X172651600Y-159776569D01*
X222318400Y-159776569D01*
X222318400Y-160263431D01*
X222413382Y-160740939D01*
X222599697Y-161190742D01*
X222870183Y-161595553D01*
X223214447Y-161939817D01*
X223619258Y-162210303D01*
X224069061Y-162396618D01*
X224546569Y-162491600D01*
X225033431Y-162491600D01*
X225510939Y-162396618D01*
X225960742Y-162210303D01*
X226365553Y-161939817D01*
X226709817Y-161595553D01*
X226980303Y-161190742D01*
X227166618Y-160740939D01*
X227261600Y-160263431D01*
X227261600Y-159776569D01*
X265498400Y-159776569D01*
X265498400Y-160263431D01*
X265593382Y-160740939D01*
X265779697Y-161190742D01*
X266050183Y-161595553D01*
X266394447Y-161939817D01*
X266799258Y-162210303D01*
X267249061Y-162396618D01*
X267726569Y-162491600D01*
X268213431Y-162491600D01*
X268690939Y-162396618D01*
X269140742Y-162210303D01*
X269545553Y-161939817D01*
X269889817Y-161595553D01*
X270160303Y-161190742D01*
X270346618Y-160740939D01*
X270441600Y-160263431D01*
X270441600Y-159776569D01*
X309948400Y-159776569D01*
X309948400Y-160263431D01*
X310043382Y-160740939D01*
X310229697Y-161190742D01*
X310500183Y-161595553D01*
X310844447Y-161939817D01*
X311249258Y-162210303D01*
X311699061Y-162396618D01*
X312176569Y-162491600D01*
X312663431Y-162491600D01*
X313140939Y-162396618D01*
X313590742Y-162210303D01*
X313995553Y-161939817D01*
X314339817Y-161595553D01*
X314610303Y-161190742D01*
X314796618Y-160740939D01*
X314891600Y-160263431D01*
X314891600Y-159776569D01*
X348048400Y-159776569D01*
X348048400Y-160263431D01*
X348143382Y-160740939D01*
X348329697Y-161190742D01*
X348600183Y-161595553D01*
X348944447Y-161939817D01*
X349349258Y-162210303D01*
X349799061Y-162396618D01*
X350276569Y-162491600D01*
X350763431Y-162491600D01*
X351240939Y-162396618D01*
X351690742Y-162210303D01*
X352095553Y-161939817D01*
X352439817Y-161595553D01*
X352710303Y-161190742D01*
X352896618Y-160740939D01*
X352991600Y-160263431D01*
X352991600Y-159776569D01*
X352896618Y-159299061D01*
X352710303Y-158849258D01*
X352439817Y-158444447D01*
X352095553Y-158100183D01*
X351690742Y-157829697D01*
X351240939Y-157643382D01*
X350763431Y-157548400D01*
X350276569Y-157548400D01*
X349799061Y-157643382D01*
X349349258Y-157829697D01*
X348944447Y-158100183D01*
X348600183Y-158444447D01*
X348329697Y-158849258D01*
X348143382Y-159299061D01*
X348048400Y-159776569D01*
X314891600Y-159776569D01*
X314796618Y-159299061D01*
X314610303Y-158849258D01*
X314339817Y-158444447D01*
X313995553Y-158100183D01*
X313590742Y-157829697D01*
X313140939Y-157643382D01*
X312663431Y-157548400D01*
X312176569Y-157548400D01*
X311699061Y-157643382D01*
X311249258Y-157829697D01*
X310844447Y-158100183D01*
X310500183Y-158444447D01*
X310229697Y-158849258D01*
X310043382Y-159299061D01*
X309948400Y-159776569D01*
X270441600Y-159776569D01*
X270346618Y-159299061D01*
X270160303Y-158849258D01*
X269889817Y-158444447D01*
X269545553Y-158100183D01*
X269140742Y-157829697D01*
X268690939Y-157643382D01*
X268213431Y-157548400D01*
X267726569Y-157548400D01*
X267249061Y-157643382D01*
X266799258Y-157829697D01*
X266394447Y-158100183D01*
X266050183Y-158444447D01*
X265779697Y-158849258D01*
X265593382Y-159299061D01*
X265498400Y-159776569D01*
X227261600Y-159776569D01*
X227166618Y-159299061D01*
X226980303Y-158849258D01*
X226709817Y-158444447D01*
X226365553Y-158100183D01*
X225960742Y-157829697D01*
X225510939Y-157643382D01*
X225033431Y-157548400D01*
X224546569Y-157548400D01*
X224069061Y-157643382D01*
X223619258Y-157829697D01*
X223214447Y-158100183D01*
X222870183Y-158444447D01*
X222599697Y-158849258D01*
X222413382Y-159299061D01*
X222318400Y-159776569D01*
X172651600Y-159776569D01*
X172556618Y-159299061D01*
X172370303Y-158849258D01*
X172099817Y-158444447D01*
X171755553Y-158100183D01*
X171350742Y-157829697D01*
X170900939Y-157643382D01*
X170423431Y-157548400D01*
X169936569Y-157548400D01*
X169459061Y-157643382D01*
X169009258Y-157829697D01*
X168604447Y-158100183D01*
X168260183Y-158444447D01*
X167989697Y-158849258D01*
X167803382Y-159299061D01*
X167708400Y-159776569D01*
X130741600Y-159776569D01*
X130646618Y-159299061D01*
X130460303Y-158849258D01*
X130189817Y-158444447D01*
X129845553Y-158100183D01*
X129440742Y-157829697D01*
X128990939Y-157643382D01*
X128513431Y-157548400D01*
X128026569Y-157548400D01*
X127549061Y-157643382D01*
X127099258Y-157829697D01*
X126694447Y-158100183D01*
X126350183Y-158444447D01*
X126079697Y-158849258D01*
X125893382Y-159299061D01*
X125798400Y-159776569D01*
X88831600Y-159776569D01*
X88736618Y-159299061D01*
X88550303Y-158849258D01*
X88279817Y-158444447D01*
X87935553Y-158100183D01*
X87530742Y-157829697D01*
X87080939Y-157643382D01*
X86603431Y-157548400D01*
X86116569Y-157548400D01*
X85639061Y-157643382D01*
X85189258Y-157829697D01*
X84784447Y-158100183D01*
X84440183Y-158444447D01*
X84169697Y-158849258D01*
X83983382Y-159299061D01*
X83888400Y-159776569D01*
X40571600Y-159776569D01*
X40476618Y-159299061D01*
X40290303Y-158849258D01*
X40019817Y-158444447D01*
X39675553Y-158100183D01*
X39270742Y-157829697D01*
X38820939Y-157643382D01*
X38343431Y-157548400D01*
X37856569Y-157548400D01*
X37379061Y-157643382D01*
X36929258Y-157829697D01*
X36524447Y-158100183D01*
X36180183Y-158444447D01*
X35909697Y-158849258D01*
X35723382Y-159299061D01*
X35628400Y-159776569D01*
X32892600Y-159776569D01*
X32892600Y-135646569D01*
X121988400Y-135646569D01*
X121988400Y-136133431D01*
X122083382Y-136610939D01*
X122269697Y-137060742D01*
X122540183Y-137465553D01*
X122884447Y-137809817D01*
X123289258Y-138080303D01*
X123739061Y-138266618D01*
X124216569Y-138361600D01*
X124703431Y-138361600D01*
X125180939Y-138266618D01*
X125630742Y-138080303D01*
X126035553Y-137809817D01*
X126379817Y-137465553D01*
X126650303Y-137060742D01*
X126836618Y-136610939D01*
X126931600Y-136133431D01*
X126931600Y-135646569D01*
X198188400Y-135646569D01*
X198188400Y-136133431D01*
X198283382Y-136610939D01*
X198469697Y-137060742D01*
X198740183Y-137465553D01*
X199084447Y-137809817D01*
X199489258Y-138080303D01*
X199939061Y-138266618D01*
X200416569Y-138361600D01*
X200903431Y-138361600D01*
X201380939Y-138266618D01*
X201830742Y-138080303D01*
X202235553Y-137809817D01*
X202579817Y-137465553D01*
X202850303Y-137060742D01*
X203036618Y-136610939D01*
X203131600Y-136133431D01*
X203131600Y-135646569D01*
X203036618Y-135169061D01*
X202850303Y-134719258D01*
X202579817Y-134314447D01*
X202235553Y-133970183D01*
X201830742Y-133699697D01*
X201380939Y-133513382D01*
X200903431Y-133418400D01*
X200416569Y-133418400D01*
X199939061Y-133513382D01*
X199489258Y-133699697D01*
X199084447Y-133970183D01*
X198740183Y-134314447D01*
X198469697Y-134719258D01*
X198283382Y-135169061D01*
X198188400Y-135646569D01*
X126931600Y-135646569D01*
X126836618Y-135169061D01*
X126650303Y-134719258D01*
X126379817Y-134314447D01*
X126035553Y-133970183D01*
X125630742Y-133699697D01*
X125180939Y-133513382D01*
X124703431Y-133418400D01*
X124216569Y-133418400D01*
X123739061Y-133513382D01*
X123289258Y-133699697D01*
X122884447Y-133970183D01*
X122540183Y-134314447D01*
X122269697Y-134719258D01*
X122083382Y-135169061D01*
X121988400Y-135646569D01*
X32892600Y-135646569D01*
X32892600Y-128280569D01*
X53662400Y-128280569D01*
X53662400Y-128767431D01*
X53757382Y-129244939D01*
X53943697Y-129694742D01*
X54214183Y-130099553D01*
X54558447Y-130443817D01*
X54963258Y-130714303D01*
X55413061Y-130900618D01*
X55890569Y-130995600D01*
X56377431Y-130995600D01*
X56854939Y-130900618D01*
X57304742Y-130714303D01*
X57709553Y-130443817D01*
X58053817Y-130099553D01*
X58324303Y-129694742D01*
X58510618Y-129244939D01*
X58605600Y-128767431D01*
X58605600Y-128280569D01*
X58510618Y-127803061D01*
X58324303Y-127353258D01*
X58053817Y-126948447D01*
X57861939Y-126756569D01*
X268038400Y-126756569D01*
X268038400Y-127243431D01*
X268133382Y-127720939D01*
X268319697Y-128170742D01*
X268590183Y-128575553D01*
X268934447Y-128919817D01*
X269339258Y-129190303D01*
X269789061Y-129376618D01*
X270266569Y-129471600D01*
X270753431Y-129471600D01*
X271230939Y-129376618D01*
X271680742Y-129190303D01*
X272085553Y-128919817D01*
X272429817Y-128575553D01*
X272700303Y-128170742D01*
X272886618Y-127720939D01*
X272981600Y-127243431D01*
X272981600Y-126756569D01*
X272886618Y-126279061D01*
X272700303Y-125829258D01*
X272429817Y-125424447D01*
X272085553Y-125080183D01*
X271680742Y-124809697D01*
X271230939Y-124623382D01*
X270753431Y-124528400D01*
X270266569Y-124528400D01*
X269789061Y-124623382D01*
X269339258Y-124809697D01*
X268934447Y-125080183D01*
X268590183Y-125424447D01*
X268319697Y-125829258D01*
X268133382Y-126279061D01*
X268038400Y-126756569D01*
X57861939Y-126756569D01*
X57709553Y-126604183D01*
X57304742Y-126333697D01*
X56854939Y-126147382D01*
X56377431Y-126052400D01*
X55890569Y-126052400D01*
X55413061Y-126147382D01*
X54963258Y-126333697D01*
X54558447Y-126604183D01*
X54214183Y-126948447D01*
X53943697Y-127353258D01*
X53757382Y-127803061D01*
X53662400Y-128280569D01*
X32892600Y-128280569D01*
X32892600Y-114564569D01*
X310456400Y-114564569D01*
X310456400Y-115051431D01*
X310551382Y-115528939D01*
X310737697Y-115978742D01*
X311008183Y-116383553D01*
X311352447Y-116727817D01*
X311757258Y-116998303D01*
X312207061Y-117184618D01*
X312684569Y-117279600D01*
X313171431Y-117279600D01*
X313648939Y-117184618D01*
X314098742Y-116998303D01*
X314503553Y-116727817D01*
X314847817Y-116383553D01*
X315118303Y-115978742D01*
X315304618Y-115528939D01*
X315399600Y-115051431D01*
X315399600Y-114564569D01*
X315304618Y-114087061D01*
X315118303Y-113637258D01*
X314847817Y-113232447D01*
X314503553Y-112888183D01*
X314098742Y-112617697D01*
X313648939Y-112431382D01*
X313171431Y-112336400D01*
X312684569Y-112336400D01*
X312207061Y-112431382D01*
X311757258Y-112617697D01*
X311352447Y-112888183D01*
X311008183Y-113232447D01*
X310737697Y-113637258D01*
X310551382Y-114087061D01*
X310456400Y-114564569D01*
X32892600Y-114564569D01*
X32892600Y-107706569D01*
X120464400Y-107706569D01*
X120464400Y-108193431D01*
X120559382Y-108670939D01*
X120745697Y-109120742D01*
X121016183Y-109525553D01*
X121360447Y-109869817D01*
X121765258Y-110140303D01*
X122215061Y-110326618D01*
X122692569Y-110421600D01*
X123179431Y-110421600D01*
X123656939Y-110326618D01*
X124106742Y-110140303D01*
X124511553Y-109869817D01*
X124855817Y-109525553D01*
X125126303Y-109120742D01*
X125312618Y-108670939D01*
X125407600Y-108193431D01*
X125407600Y-107960569D01*
X348556400Y-107960569D01*
X348556400Y-108447431D01*
X348651382Y-108924939D01*
X348837697Y-109374742D01*
X349108183Y-109779553D01*
X349452447Y-110123817D01*
X349857258Y-110394303D01*
X350307061Y-110580618D01*
X350784569Y-110675600D01*
X351271431Y-110675600D01*
X351748939Y-110580618D01*
X352198742Y-110394303D01*
X352603553Y-110123817D01*
X352947817Y-109779553D01*
X353218303Y-109374742D01*
X353404618Y-108924939D01*
X353499600Y-108447431D01*
X353499600Y-107960569D01*
X353404618Y-107483061D01*
X353218303Y-107033258D01*
X352947817Y-106628447D01*
X352603553Y-106284183D01*
X352198742Y-106013697D01*
X351748939Y-105827382D01*
X351271431Y-105732400D01*
X350784569Y-105732400D01*
X350307061Y-105827382D01*
X349857258Y-106013697D01*
X349452447Y-106284183D01*
X349108183Y-106628447D01*
X348837697Y-107033258D01*
X348651382Y-107483061D01*
X348556400Y-107960569D01*
X125407600Y-107960569D01*
X125407600Y-107706569D01*
X125312618Y-107229061D01*
X125126303Y-106779258D01*
X124855817Y-106374447D01*
X124511553Y-106030183D01*
X124106742Y-105759697D01*
X123656939Y-105573382D01*
X123179431Y-105478400D01*
X122692569Y-105478400D01*
X122215061Y-105573382D01*
X121765258Y-105759697D01*
X121360447Y-106030183D01*
X121016183Y-106374447D01*
X120745697Y-106779258D01*
X120559382Y-107229061D01*
X120464400Y-107706569D01*
X32892600Y-107706569D01*
X32892600Y-102118569D01*
X59758400Y-102118569D01*
X59758400Y-102605431D01*
X59853382Y-103082939D01*
X60039697Y-103532742D01*
X60310183Y-103937553D01*
X60654447Y-104281817D01*
X61059258Y-104552303D01*
X61509061Y-104738618D01*
X61986569Y-104833600D01*
X62473431Y-104833600D01*
X62950939Y-104738618D01*
X63400742Y-104552303D01*
X63805553Y-104281817D01*
X64149817Y-103937553D01*
X64420303Y-103532742D01*
X64606618Y-103082939D01*
X64701600Y-102605431D01*
X64701600Y-102118569D01*
X64606618Y-101641061D01*
X64420303Y-101191258D01*
X64149817Y-100786447D01*
X63805553Y-100442183D01*
X63400742Y-100171697D01*
X62950939Y-99985382D01*
X62473431Y-99890400D01*
X61986569Y-99890400D01*
X61509061Y-99985382D01*
X61059258Y-100171697D01*
X60654447Y-100442183D01*
X60310183Y-100786447D01*
X60039697Y-101191258D01*
X59853382Y-101641061D01*
X59758400Y-102118569D01*
X32892600Y-102118569D01*
X32892600Y-88783569D01*
X196537400Y-88783569D01*
X196537400Y-89270431D01*
X196632382Y-89747939D01*
X196818697Y-90197742D01*
X197089183Y-90602553D01*
X197433447Y-90946817D01*
X197838258Y-91217303D01*
X198288061Y-91403618D01*
X198765569Y-91498600D01*
X199252431Y-91498600D01*
X199729939Y-91403618D01*
X200179742Y-91217303D01*
X200584553Y-90946817D01*
X200928817Y-90602553D01*
X201199303Y-90197742D01*
X201385618Y-89747939D01*
X201480600Y-89270431D01*
X201480600Y-88783569D01*
X253687400Y-88783569D01*
X253687400Y-89270431D01*
X253782382Y-89747939D01*
X253968697Y-90197742D01*
X254239183Y-90602553D01*
X254583447Y-90946817D01*
X254988258Y-91217303D01*
X255438061Y-91403618D01*
X255915569Y-91498600D01*
X256402431Y-91498600D01*
X256879939Y-91403618D01*
X257329742Y-91217303D01*
X257734553Y-90946817D01*
X258078817Y-90602553D01*
X258349303Y-90197742D01*
X258535618Y-89747939D01*
X258630600Y-89270431D01*
X258630600Y-88783569D01*
X258535618Y-88306061D01*
X258349303Y-87856258D01*
X258078817Y-87451447D01*
X257734553Y-87107183D01*
X257329742Y-86836697D01*
X256879939Y-86650382D01*
X256402431Y-86555400D01*
X255915569Y-86555400D01*
X255438061Y-86650382D01*
X254988258Y-86836697D01*
X254583447Y-87107183D01*
X254239183Y-87451447D01*
X253968697Y-87856258D01*
X253782382Y-88306061D01*
X253687400Y-88783569D01*
X201480600Y-88783569D01*
X201385618Y-88306061D01*
X201199303Y-87856258D01*
X200928817Y-87451447D01*
X200584553Y-87107183D01*
X200179742Y-86836697D01*
X199729939Y-86650382D01*
X199252431Y-86555400D01*
X198765569Y-86555400D01*
X198288061Y-86650382D01*
X197838258Y-86836697D01*
X197433447Y-87107183D01*
X197089183Y-87451447D01*
X196818697Y-87856258D01*
X196632382Y-88306061D01*
X196537400Y-88783569D01*
X32892600Y-88783569D01*
X32892600Y-69860569D01*
X48836400Y-69860569D01*
X48836400Y-70347431D01*
X48931382Y-70824939D01*
X49117697Y-71274742D01*
X49388183Y-71679553D01*
X49732447Y-72023817D01*
X50137258Y-72294303D01*
X50587061Y-72480618D01*
X51064569Y-72575600D01*
X51551431Y-72575600D01*
X52028939Y-72480618D01*
X52478742Y-72294303D01*
X52883553Y-72023817D01*
X53227817Y-71679553D01*
X53498303Y-71274742D01*
X53684618Y-70824939D01*
X53779600Y-70347431D01*
X53779600Y-69860569D01*
X106240400Y-69860569D01*
X106240400Y-70347431D01*
X106335382Y-70824939D01*
X106521697Y-71274742D01*
X106792183Y-71679553D01*
X107136447Y-72023817D01*
X107541258Y-72294303D01*
X107991061Y-72480618D01*
X108468569Y-72575600D01*
X108955431Y-72575600D01*
X109432939Y-72480618D01*
X109882742Y-72294303D01*
X110287553Y-72023817D01*
X110631817Y-71679553D01*
X110902303Y-71274742D01*
X111088618Y-70824939D01*
X111183600Y-70347431D01*
X111183600Y-69860569D01*
X163390400Y-69860569D01*
X163390400Y-70347431D01*
X163485382Y-70824939D01*
X163671697Y-71274742D01*
X163942183Y-71679553D01*
X164286447Y-72023817D01*
X164691258Y-72294303D01*
X165141061Y-72480618D01*
X165618569Y-72575600D01*
X166105431Y-72575600D01*
X166582939Y-72480618D01*
X167032742Y-72294303D01*
X167437553Y-72023817D01*
X167781817Y-71679553D01*
X168052303Y-71274742D01*
X168238618Y-70824939D01*
X168333600Y-70347431D01*
X168333600Y-69860569D01*
X220540400Y-69860569D01*
X220540400Y-70347431D01*
X220635382Y-70824939D01*
X220821697Y-71274742D01*
X221092183Y-71679553D01*
X221436447Y-72023817D01*
X221841258Y-72294303D01*
X222291061Y-72480618D01*
X222768569Y-72575600D01*
X223255431Y-72575600D01*
X223732939Y-72480618D01*
X224182742Y-72294303D01*
X224587553Y-72023817D01*
X224931817Y-71679553D01*
X225202303Y-71274742D01*
X225388618Y-70824939D01*
X225483600Y-70347431D01*
X225483600Y-69860569D01*
X277690400Y-69860569D01*
X277690400Y-70347431D01*
X277785382Y-70824939D01*
X277971697Y-71274742D01*
X278242183Y-71679553D01*
X278586447Y-72023817D01*
X278991258Y-72294303D01*
X279441061Y-72480618D01*
X279918569Y-72575600D01*
X280405431Y-72575600D01*
X280882939Y-72480618D01*
X281332742Y-72294303D01*
X281737553Y-72023817D01*
X282081817Y-71679553D01*
X282352303Y-71274742D01*
X282538618Y-70824939D01*
X282633600Y-70347431D01*
X282633600Y-69860569D01*
X344492400Y-69860569D01*
X344492400Y-70347431D01*
X344587382Y-70824939D01*
X344773697Y-71274742D01*
X345044183Y-71679553D01*
X345388447Y-72023817D01*
X345793258Y-72294303D01*
X346243061Y-72480618D01*
X346720569Y-72575600D01*
X347207431Y-72575600D01*
X347684939Y-72480618D01*
X348134742Y-72294303D01*
X348539553Y-72023817D01*
X348883817Y-71679553D01*
X349154303Y-71274742D01*
X349340618Y-70824939D01*
X349435600Y-70347431D01*
X349435600Y-69860569D01*
X349340618Y-69383061D01*
X349154303Y-68933258D01*
X348883817Y-68528447D01*
X348539553Y-68184183D01*
X348134742Y-67913697D01*
X347684939Y-67727382D01*
X347207431Y-67632400D01*
X346720569Y-67632400D01*
X346243061Y-67727382D01*
X345793258Y-67913697D01*
X345388447Y-68184183D01*
X345044183Y-68528447D01*
X344773697Y-68933258D01*
X344587382Y-69383061D01*
X344492400Y-69860569D01*
X282633600Y-69860569D01*
X282538618Y-69383061D01*
X282352303Y-68933258D01*
X282081817Y-68528447D01*
X281737553Y-68184183D01*
X281332742Y-67913697D01*
X280882939Y-67727382D01*
X280405431Y-67632400D01*
X279918569Y-67632400D01*
X279441061Y-67727382D01*
X278991258Y-67913697D01*
X278586447Y-68184183D01*
X278242183Y-68528447D01*
X277971697Y-68933258D01*
X277785382Y-69383061D01*
X277690400Y-69860569D01*
X225483600Y-69860569D01*
X225388618Y-69383061D01*
X225202303Y-68933258D01*
X224931817Y-68528447D01*
X224587553Y-68184183D01*
X224182742Y-67913697D01*
X223732939Y-67727382D01*
X223255431Y-67632400D01*
X222768569Y-67632400D01*
X222291061Y-67727382D01*
X221841258Y-67913697D01*
X221436447Y-68184183D01*
X221092183Y-68528447D01*
X220821697Y-68933258D01*
X220635382Y-69383061D01*
X220540400Y-69860569D01*
X168333600Y-69860569D01*
X168238618Y-69383061D01*
X168052303Y-68933258D01*
X167781817Y-68528447D01*
X167437553Y-68184183D01*
X167032742Y-67913697D01*
X166582939Y-67727382D01*
X166105431Y-67632400D01*
X165618569Y-67632400D01*
X165141061Y-67727382D01*
X164691258Y-67913697D01*
X164286447Y-68184183D01*
X163942183Y-68528447D01*
X163671697Y-68933258D01*
X163485382Y-69383061D01*
X163390400Y-69860569D01*
X111183600Y-69860569D01*
X111088618Y-69383061D01*
X110902303Y-68933258D01*
X110631817Y-68528447D01*
X110287553Y-68184183D01*
X109882742Y-67913697D01*
X109432939Y-67727382D01*
X108955431Y-67632400D01*
X108468569Y-67632400D01*
X107991061Y-67727382D01*
X107541258Y-67913697D01*
X107136447Y-68184183D01*
X106792183Y-68528447D01*
X106521697Y-68933258D01*
X106335382Y-69383061D01*
X106240400Y-69860569D01*
X53779600Y-69860569D01*
X53684618Y-69383061D01*
X53498303Y-68933258D01*
X53227817Y-68528447D01*
X52883553Y-68184183D01*
X52478742Y-67913697D01*
X52028939Y-67727382D01*
X51551431Y-67632400D01*
X51064569Y-67632400D01*
X50587061Y-67727382D01*
X50137258Y-67913697D01*
X49732447Y-68184183D01*
X49388183Y-68528447D01*
X49117697Y-68933258D01*
X48931382Y-69383061D01*
X48836400Y-69860569D01*
X32892600Y-69860569D01*
X32892600Y-60462569D01*
X311726400Y-60462569D01*
X311726400Y-60949431D01*
X311821382Y-61426939D01*
X312007697Y-61876742D01*
X312278183Y-62281553D01*
X312622447Y-62625817D01*
X313027258Y-62896303D01*
X313477061Y-63082618D01*
X313954569Y-63177600D01*
X314441431Y-63177600D01*
X314918939Y-63082618D01*
X315368742Y-62896303D01*
X315773553Y-62625817D01*
X316117817Y-62281553D01*
X316388303Y-61876742D01*
X316574618Y-61426939D01*
X316669600Y-60949431D01*
X316669600Y-60462569D01*
X316574618Y-59985061D01*
X316388303Y-59535258D01*
X316117817Y-59130447D01*
X315773553Y-58786183D01*
X315368742Y-58515697D01*
X314918939Y-58329382D01*
X314441431Y-58234400D01*
X313954569Y-58234400D01*
X313477061Y-58329382D01*
X313027258Y-58515697D01*
X312622447Y-58786183D01*
X312278183Y-59130447D01*
X312007697Y-59535258D01*
X311821382Y-59985061D01*
X311726400Y-60462569D01*
X32892600Y-60462569D01*
X32892600Y-51434600D01*
X355726837Y-51434600D01*
X355600964Y-164719400D01*
G37*
X355600964Y-164719400D02*
X32892600Y-164719400D01*
X32892600Y-159776569D01*
X35628400Y-159776569D01*
X35628400Y-160263431D01*
X35723382Y-160740939D01*
X35909697Y-161190742D01*
X36180183Y-161595553D01*
X36524447Y-161939817D01*
X36929258Y-162210303D01*
X37379061Y-162396618D01*
X37856569Y-162491600D01*
X38343431Y-162491600D01*
X38820939Y-162396618D01*
X39270742Y-162210303D01*
X39675553Y-161939817D01*
X40019817Y-161595553D01*
X40290303Y-161190742D01*
X40476618Y-160740939D01*
X40571600Y-160263431D01*
X40571600Y-159776569D01*
X83888400Y-159776569D01*
X83888400Y-160263431D01*
X83983382Y-160740939D01*
X84169697Y-161190742D01*
X84440183Y-161595553D01*
X84784447Y-161939817D01*
X85189258Y-162210303D01*
X85639061Y-162396618D01*
X86116569Y-162491600D01*
X86603431Y-162491600D01*
X87080939Y-162396618D01*
X87530742Y-162210303D01*
X87935553Y-161939817D01*
X88279817Y-161595553D01*
X88550303Y-161190742D01*
X88736618Y-160740939D01*
X88831600Y-160263431D01*
X88831600Y-159776569D01*
X125798400Y-159776569D01*
X125798400Y-160263431D01*
X125893382Y-160740939D01*
X126079697Y-161190742D01*
X126350183Y-161595553D01*
X126694447Y-161939817D01*
X127099258Y-162210303D01*
X127549061Y-162396618D01*
X128026569Y-162491600D01*
X128513431Y-162491600D01*
X128990939Y-162396618D01*
X129440742Y-162210303D01*
X129845553Y-161939817D01*
X130189817Y-161595553D01*
X130460303Y-161190742D01*
X130646618Y-160740939D01*
X130741600Y-160263431D01*
X130741600Y-159776569D01*
X167708400Y-159776569D01*
X167708400Y-160263431D01*
X167803382Y-160740939D01*
X167989697Y-161190742D01*
X168260183Y-161595553D01*
X168604447Y-161939817D01*
X169009258Y-162210303D01*
X169459061Y-162396618D01*
X169936569Y-162491600D01*
X170423431Y-162491600D01*
X170900939Y-162396618D01*
X171350742Y-162210303D01*
X171755553Y-161939817D01*
X172099817Y-161595553D01*
X172370303Y-161190742D01*
X172556618Y-160740939D01*
X172651600Y-160263431D01*
X172651600Y-159776569D01*
X222318400Y-159776569D01*
X222318400Y-160263431D01*
X222413382Y-160740939D01*
X222599697Y-161190742D01*
X222870183Y-161595553D01*
X223214447Y-161939817D01*
X223619258Y-162210303D01*
X224069061Y-162396618D01*
X224546569Y-162491600D01*
X225033431Y-162491600D01*
X225510939Y-162396618D01*
X225960742Y-162210303D01*
X226365553Y-161939817D01*
X226709817Y-161595553D01*
X226980303Y-161190742D01*
X227166618Y-160740939D01*
X227261600Y-160263431D01*
X227261600Y-159776569D01*
X265498400Y-159776569D01*
X265498400Y-160263431D01*
X265593382Y-160740939D01*
X265779697Y-161190742D01*
X266050183Y-161595553D01*
X266394447Y-161939817D01*
X266799258Y-162210303D01*
X267249061Y-162396618D01*
X267726569Y-162491600D01*
X268213431Y-162491600D01*
X268690939Y-162396618D01*
X269140742Y-162210303D01*
X269545553Y-161939817D01*
X269889817Y-161595553D01*
X270160303Y-161190742D01*
X270346618Y-160740939D01*
X270441600Y-160263431D01*
X270441600Y-159776569D01*
X309948400Y-159776569D01*
X309948400Y-160263431D01*
X310043382Y-160740939D01*
X310229697Y-161190742D01*
X310500183Y-161595553D01*
X310844447Y-161939817D01*
X311249258Y-162210303D01*
X311699061Y-162396618D01*
X312176569Y-162491600D01*
X312663431Y-162491600D01*
X313140939Y-162396618D01*
X313590742Y-162210303D01*
X313995553Y-161939817D01*
X314339817Y-161595553D01*
X314610303Y-161190742D01*
X314796618Y-160740939D01*
X314891600Y-160263431D01*
X314891600Y-159776569D01*
X348048400Y-159776569D01*
X348048400Y-160263431D01*
X348143382Y-160740939D01*
X348329697Y-161190742D01*
X348600183Y-161595553D01*
X348944447Y-161939817D01*
X349349258Y-162210303D01*
X349799061Y-162396618D01*
X350276569Y-162491600D01*
X350763431Y-162491600D01*
X351240939Y-162396618D01*
X351690742Y-162210303D01*
X352095553Y-161939817D01*
X352439817Y-161595553D01*
X352710303Y-161190742D01*
X352896618Y-160740939D01*
X352991600Y-160263431D01*
X352991600Y-159776569D01*
X352896618Y-159299061D01*
X352710303Y-158849258D01*
X352439817Y-158444447D01*
X352095553Y-158100183D01*
X351690742Y-157829697D01*
X351240939Y-157643382D01*
X350763431Y-157548400D01*
X350276569Y-157548400D01*
X349799061Y-157643382D01*
X349349258Y-157829697D01*
X348944447Y-158100183D01*
X348600183Y-158444447D01*
X348329697Y-158849258D01*
X348143382Y-159299061D01*
X348048400Y-159776569D01*
X314891600Y-159776569D01*
X314796618Y-159299061D01*
X314610303Y-158849258D01*
X314339817Y-158444447D01*
X313995553Y-158100183D01*
X313590742Y-157829697D01*
X313140939Y-157643382D01*
X312663431Y-157548400D01*
X312176569Y-157548400D01*
X311699061Y-157643382D01*
X311249258Y-157829697D01*
X310844447Y-158100183D01*
X310500183Y-158444447D01*
X310229697Y-158849258D01*
X310043382Y-159299061D01*
X309948400Y-159776569D01*
X270441600Y-159776569D01*
X270346618Y-159299061D01*
X270160303Y-158849258D01*
X269889817Y-158444447D01*
X269545553Y-158100183D01*
X269140742Y-157829697D01*
X268690939Y-157643382D01*
X268213431Y-157548400D01*
X267726569Y-157548400D01*
X267249061Y-157643382D01*
X266799258Y-157829697D01*
X266394447Y-158100183D01*
X266050183Y-158444447D01*
X265779697Y-158849258D01*
X265593382Y-159299061D01*
X265498400Y-159776569D01*
X227261600Y-159776569D01*
X227166618Y-159299061D01*
X226980303Y-158849258D01*
X226709817Y-158444447D01*
X226365553Y-158100183D01*
X225960742Y-157829697D01*
X225510939Y-157643382D01*
X225033431Y-157548400D01*
X224546569Y-157548400D01*
X224069061Y-157643382D01*
X223619258Y-157829697D01*
X223214447Y-158100183D01*
X222870183Y-158444447D01*
X222599697Y-158849258D01*
X222413382Y-159299061D01*
X222318400Y-159776569D01*
X172651600Y-159776569D01*
X172556618Y-159299061D01*
X172370303Y-158849258D01*
X172099817Y-158444447D01*
X171755553Y-158100183D01*
X171350742Y-157829697D01*
X170900939Y-157643382D01*
X170423431Y-157548400D01*
X169936569Y-157548400D01*
X169459061Y-157643382D01*
X169009258Y-157829697D01*
X168604447Y-158100183D01*
X168260183Y-158444447D01*
X167989697Y-158849258D01*
X167803382Y-159299061D01*
X167708400Y-159776569D01*
X130741600Y-159776569D01*
X130646618Y-159299061D01*
X130460303Y-158849258D01*
X130189817Y-158444447D01*
X129845553Y-158100183D01*
X129440742Y-157829697D01*
X128990939Y-157643382D01*
X128513431Y-157548400D01*
X128026569Y-157548400D01*
X127549061Y-157643382D01*
X127099258Y-157829697D01*
X126694447Y-158100183D01*
X126350183Y-158444447D01*
X126079697Y-158849258D01*
X125893382Y-159299061D01*
X125798400Y-159776569D01*
X88831600Y-159776569D01*
X88736618Y-159299061D01*
X88550303Y-158849258D01*
X88279817Y-158444447D01*
X87935553Y-158100183D01*
X87530742Y-157829697D01*
X87080939Y-157643382D01*
X86603431Y-157548400D01*
X86116569Y-157548400D01*
X85639061Y-157643382D01*
X85189258Y-157829697D01*
X84784447Y-158100183D01*
X84440183Y-158444447D01*
X84169697Y-158849258D01*
X83983382Y-159299061D01*
X83888400Y-159776569D01*
X40571600Y-159776569D01*
X40476618Y-159299061D01*
X40290303Y-158849258D01*
X40019817Y-158444447D01*
X39675553Y-158100183D01*
X39270742Y-157829697D01*
X38820939Y-157643382D01*
X38343431Y-157548400D01*
X37856569Y-157548400D01*
X37379061Y-157643382D01*
X36929258Y-157829697D01*
X36524447Y-158100183D01*
X36180183Y-158444447D01*
X35909697Y-158849258D01*
X35723382Y-159299061D01*
X35628400Y-159776569D01*
X32892600Y-159776569D01*
X32892600Y-135646569D01*
X121988400Y-135646569D01*
X121988400Y-136133431D01*
X122083382Y-136610939D01*
X122269697Y-137060742D01*
X122540183Y-137465553D01*
X122884447Y-137809817D01*
X123289258Y-138080303D01*
X123739061Y-138266618D01*
X124216569Y-138361600D01*
X124703431Y-138361600D01*
X125180939Y-138266618D01*
X125630742Y-138080303D01*
X126035553Y-137809817D01*
X126379817Y-137465553D01*
X126650303Y-137060742D01*
X126836618Y-136610939D01*
X126931600Y-136133431D01*
X126931600Y-135646569D01*
X198188400Y-135646569D01*
X198188400Y-136133431D01*
X198283382Y-136610939D01*
X198469697Y-137060742D01*
X198740183Y-137465553D01*
X199084447Y-137809817D01*
X199489258Y-138080303D01*
X199939061Y-138266618D01*
X200416569Y-138361600D01*
X200903431Y-138361600D01*
X201380939Y-138266618D01*
X201830742Y-138080303D01*
X202235553Y-137809817D01*
X202579817Y-137465553D01*
X202850303Y-137060742D01*
X203036618Y-136610939D01*
X203131600Y-136133431D01*
X203131600Y-135646569D01*
X203036618Y-135169061D01*
X202850303Y-134719258D01*
X202579817Y-134314447D01*
X202235553Y-133970183D01*
X201830742Y-133699697D01*
X201380939Y-133513382D01*
X200903431Y-133418400D01*
X200416569Y-133418400D01*
X199939061Y-133513382D01*
X199489258Y-133699697D01*
X199084447Y-133970183D01*
X198740183Y-134314447D01*
X198469697Y-134719258D01*
X198283382Y-135169061D01*
X198188400Y-135646569D01*
X126931600Y-135646569D01*
X126836618Y-135169061D01*
X126650303Y-134719258D01*
X126379817Y-134314447D01*
X126035553Y-133970183D01*
X125630742Y-133699697D01*
X125180939Y-133513382D01*
X124703431Y-133418400D01*
X124216569Y-133418400D01*
X123739061Y-133513382D01*
X123289258Y-133699697D01*
X122884447Y-133970183D01*
X122540183Y-134314447D01*
X122269697Y-134719258D01*
X122083382Y-135169061D01*
X121988400Y-135646569D01*
X32892600Y-135646569D01*
X32892600Y-128280569D01*
X53662400Y-128280569D01*
X53662400Y-128767431D01*
X53757382Y-129244939D01*
X53943697Y-129694742D01*
X54214183Y-130099553D01*
X54558447Y-130443817D01*
X54963258Y-130714303D01*
X55413061Y-130900618D01*
X55890569Y-130995600D01*
X56377431Y-130995600D01*
X56854939Y-130900618D01*
X57304742Y-130714303D01*
X57709553Y-130443817D01*
X58053817Y-130099553D01*
X58324303Y-129694742D01*
X58510618Y-129244939D01*
X58605600Y-128767431D01*
X58605600Y-128280569D01*
X58510618Y-127803061D01*
X58324303Y-127353258D01*
X58053817Y-126948447D01*
X57861939Y-126756569D01*
X268038400Y-126756569D01*
X268038400Y-127243431D01*
X268133382Y-127720939D01*
X268319697Y-128170742D01*
X268590183Y-128575553D01*
X268934447Y-128919817D01*
X269339258Y-129190303D01*
X269789061Y-129376618D01*
X270266569Y-129471600D01*
X270753431Y-129471600D01*
X271230939Y-129376618D01*
X271680742Y-129190303D01*
X272085553Y-128919817D01*
X272429817Y-128575553D01*
X272700303Y-128170742D01*
X272886618Y-127720939D01*
X272981600Y-127243431D01*
X272981600Y-126756569D01*
X272886618Y-126279061D01*
X272700303Y-125829258D01*
X272429817Y-125424447D01*
X272085553Y-125080183D01*
X271680742Y-124809697D01*
X271230939Y-124623382D01*
X270753431Y-124528400D01*
X270266569Y-124528400D01*
X269789061Y-124623382D01*
X269339258Y-124809697D01*
X268934447Y-125080183D01*
X268590183Y-125424447D01*
X268319697Y-125829258D01*
X268133382Y-126279061D01*
X268038400Y-126756569D01*
X57861939Y-126756569D01*
X57709553Y-126604183D01*
X57304742Y-126333697D01*
X56854939Y-126147382D01*
X56377431Y-126052400D01*
X55890569Y-126052400D01*
X55413061Y-126147382D01*
X54963258Y-126333697D01*
X54558447Y-126604183D01*
X54214183Y-126948447D01*
X53943697Y-127353258D01*
X53757382Y-127803061D01*
X53662400Y-128280569D01*
X32892600Y-128280569D01*
X32892600Y-114564569D01*
X310456400Y-114564569D01*
X310456400Y-115051431D01*
X310551382Y-115528939D01*
X310737697Y-115978742D01*
X311008183Y-116383553D01*
X311352447Y-116727817D01*
X311757258Y-116998303D01*
X312207061Y-117184618D01*
X312684569Y-117279600D01*
X313171431Y-117279600D01*
X313648939Y-117184618D01*
X314098742Y-116998303D01*
X314503553Y-116727817D01*
X314847817Y-116383553D01*
X315118303Y-115978742D01*
X315304618Y-115528939D01*
X315399600Y-115051431D01*
X315399600Y-114564569D01*
X315304618Y-114087061D01*
X315118303Y-113637258D01*
X314847817Y-113232447D01*
X314503553Y-112888183D01*
X314098742Y-112617697D01*
X313648939Y-112431382D01*
X313171431Y-112336400D01*
X312684569Y-112336400D01*
X312207061Y-112431382D01*
X311757258Y-112617697D01*
X311352447Y-112888183D01*
X311008183Y-113232447D01*
X310737697Y-113637258D01*
X310551382Y-114087061D01*
X310456400Y-114564569D01*
X32892600Y-114564569D01*
X32892600Y-107706569D01*
X120464400Y-107706569D01*
X120464400Y-108193431D01*
X120559382Y-108670939D01*
X120745697Y-109120742D01*
X121016183Y-109525553D01*
X121360447Y-109869817D01*
X121765258Y-110140303D01*
X122215061Y-110326618D01*
X122692569Y-110421600D01*
X123179431Y-110421600D01*
X123656939Y-110326618D01*
X124106742Y-110140303D01*
X124511553Y-109869817D01*
X124855817Y-109525553D01*
X125126303Y-109120742D01*
X125312618Y-108670939D01*
X125407600Y-108193431D01*
X125407600Y-107960569D01*
X348556400Y-107960569D01*
X348556400Y-108447431D01*
X348651382Y-108924939D01*
X348837697Y-109374742D01*
X349108183Y-109779553D01*
X349452447Y-110123817D01*
X349857258Y-110394303D01*
X350307061Y-110580618D01*
X350784569Y-110675600D01*
X351271431Y-110675600D01*
X351748939Y-110580618D01*
X352198742Y-110394303D01*
X352603553Y-110123817D01*
X352947817Y-109779553D01*
X353218303Y-109374742D01*
X353404618Y-108924939D01*
X353499600Y-108447431D01*
X353499600Y-107960569D01*
X353404618Y-107483061D01*
X353218303Y-107033258D01*
X352947817Y-106628447D01*
X352603553Y-106284183D01*
X352198742Y-106013697D01*
X351748939Y-105827382D01*
X351271431Y-105732400D01*
X350784569Y-105732400D01*
X350307061Y-105827382D01*
X349857258Y-106013697D01*
X349452447Y-106284183D01*
X349108183Y-106628447D01*
X348837697Y-107033258D01*
X348651382Y-107483061D01*
X348556400Y-107960569D01*
X125407600Y-107960569D01*
X125407600Y-107706569D01*
X125312618Y-107229061D01*
X125126303Y-106779258D01*
X124855817Y-106374447D01*
X124511553Y-106030183D01*
X124106742Y-105759697D01*
X123656939Y-105573382D01*
X123179431Y-105478400D01*
X122692569Y-105478400D01*
X122215061Y-105573382D01*
X121765258Y-105759697D01*
X121360447Y-106030183D01*
X121016183Y-106374447D01*
X120745697Y-106779258D01*
X120559382Y-107229061D01*
X120464400Y-107706569D01*
X32892600Y-107706569D01*
X32892600Y-102118569D01*
X59758400Y-102118569D01*
X59758400Y-102605431D01*
X59853382Y-103082939D01*
X60039697Y-103532742D01*
X60310183Y-103937553D01*
X60654447Y-104281817D01*
X61059258Y-104552303D01*
X61509061Y-104738618D01*
X61986569Y-104833600D01*
X62473431Y-104833600D01*
X62950939Y-104738618D01*
X63400742Y-104552303D01*
X63805553Y-104281817D01*
X64149817Y-103937553D01*
X64420303Y-103532742D01*
X64606618Y-103082939D01*
X64701600Y-102605431D01*
X64701600Y-102118569D01*
X64606618Y-101641061D01*
X64420303Y-101191258D01*
X64149817Y-100786447D01*
X63805553Y-100442183D01*
X63400742Y-100171697D01*
X62950939Y-99985382D01*
X62473431Y-99890400D01*
X61986569Y-99890400D01*
X61509061Y-99985382D01*
X61059258Y-100171697D01*
X60654447Y-100442183D01*
X60310183Y-100786447D01*
X60039697Y-101191258D01*
X59853382Y-101641061D01*
X59758400Y-102118569D01*
X32892600Y-102118569D01*
X32892600Y-88783569D01*
X196537400Y-88783569D01*
X196537400Y-89270431D01*
X196632382Y-89747939D01*
X196818697Y-90197742D01*
X197089183Y-90602553D01*
X197433447Y-90946817D01*
X197838258Y-91217303D01*
X198288061Y-91403618D01*
X198765569Y-91498600D01*
X199252431Y-91498600D01*
X199729939Y-91403618D01*
X200179742Y-91217303D01*
X200584553Y-90946817D01*
X200928817Y-90602553D01*
X201199303Y-90197742D01*
X201385618Y-89747939D01*
X201480600Y-89270431D01*
X201480600Y-88783569D01*
X253687400Y-88783569D01*
X253687400Y-89270431D01*
X253782382Y-89747939D01*
X253968697Y-90197742D01*
X254239183Y-90602553D01*
X254583447Y-90946817D01*
X254988258Y-91217303D01*
X255438061Y-91403618D01*
X255915569Y-91498600D01*
X256402431Y-91498600D01*
X256879939Y-91403618D01*
X257329742Y-91217303D01*
X257734553Y-90946817D01*
X258078817Y-90602553D01*
X258349303Y-90197742D01*
X258535618Y-89747939D01*
X258630600Y-89270431D01*
X258630600Y-88783569D01*
X258535618Y-88306061D01*
X258349303Y-87856258D01*
X258078817Y-87451447D01*
X257734553Y-87107183D01*
X257329742Y-86836697D01*
X256879939Y-86650382D01*
X256402431Y-86555400D01*
X255915569Y-86555400D01*
X255438061Y-86650382D01*
X254988258Y-86836697D01*
X254583447Y-87107183D01*
X254239183Y-87451447D01*
X253968697Y-87856258D01*
X253782382Y-88306061D01*
X253687400Y-88783569D01*
X201480600Y-88783569D01*
X201385618Y-88306061D01*
X201199303Y-87856258D01*
X200928817Y-87451447D01*
X200584553Y-87107183D01*
X200179742Y-86836697D01*
X199729939Y-86650382D01*
X199252431Y-86555400D01*
X198765569Y-86555400D01*
X198288061Y-86650382D01*
X197838258Y-86836697D01*
X197433447Y-87107183D01*
X197089183Y-87451447D01*
X196818697Y-87856258D01*
X196632382Y-88306061D01*
X196537400Y-88783569D01*
X32892600Y-88783569D01*
X32892600Y-69860569D01*
X48836400Y-69860569D01*
X48836400Y-70347431D01*
X48931382Y-70824939D01*
X49117697Y-71274742D01*
X49388183Y-71679553D01*
X49732447Y-72023817D01*
X50137258Y-72294303D01*
X50587061Y-72480618D01*
X51064569Y-72575600D01*
X51551431Y-72575600D01*
X52028939Y-72480618D01*
X52478742Y-72294303D01*
X52883553Y-72023817D01*
X53227817Y-71679553D01*
X53498303Y-71274742D01*
X53684618Y-70824939D01*
X53779600Y-70347431D01*
X53779600Y-69860569D01*
X106240400Y-69860569D01*
X106240400Y-70347431D01*
X106335382Y-70824939D01*
X106521697Y-71274742D01*
X106792183Y-71679553D01*
X107136447Y-72023817D01*
X107541258Y-72294303D01*
X107991061Y-72480618D01*
X108468569Y-72575600D01*
X108955431Y-72575600D01*
X109432939Y-72480618D01*
X109882742Y-72294303D01*
X110287553Y-72023817D01*
X110631817Y-71679553D01*
X110902303Y-71274742D01*
X111088618Y-70824939D01*
X111183600Y-70347431D01*
X111183600Y-69860569D01*
X163390400Y-69860569D01*
X163390400Y-70347431D01*
X163485382Y-70824939D01*
X163671697Y-71274742D01*
X163942183Y-71679553D01*
X164286447Y-72023817D01*
X164691258Y-72294303D01*
X165141061Y-72480618D01*
X165618569Y-72575600D01*
X166105431Y-72575600D01*
X166582939Y-72480618D01*
X167032742Y-72294303D01*
X167437553Y-72023817D01*
X167781817Y-71679553D01*
X168052303Y-71274742D01*
X168238618Y-70824939D01*
X168333600Y-70347431D01*
X168333600Y-69860569D01*
X220540400Y-69860569D01*
X220540400Y-70347431D01*
X220635382Y-70824939D01*
X220821697Y-71274742D01*
X221092183Y-71679553D01*
X221436447Y-72023817D01*
X221841258Y-72294303D01*
X222291061Y-72480618D01*
X222768569Y-72575600D01*
X223255431Y-72575600D01*
X223732939Y-72480618D01*
X224182742Y-72294303D01*
X224587553Y-72023817D01*
X224931817Y-71679553D01*
X225202303Y-71274742D01*
X225388618Y-70824939D01*
X225483600Y-70347431D01*
X225483600Y-69860569D01*
X277690400Y-69860569D01*
X277690400Y-70347431D01*
X277785382Y-70824939D01*
X277971697Y-71274742D01*
X278242183Y-71679553D01*
X278586447Y-72023817D01*
X278991258Y-72294303D01*
X279441061Y-72480618D01*
X279918569Y-72575600D01*
X280405431Y-72575600D01*
X280882939Y-72480618D01*
X281332742Y-72294303D01*
X281737553Y-72023817D01*
X282081817Y-71679553D01*
X282352303Y-71274742D01*
X282538618Y-70824939D01*
X282633600Y-70347431D01*
X282633600Y-69860569D01*
X344492400Y-69860569D01*
X344492400Y-70347431D01*
X344587382Y-70824939D01*
X344773697Y-71274742D01*
X345044183Y-71679553D01*
X345388447Y-72023817D01*
X345793258Y-72294303D01*
X346243061Y-72480618D01*
X346720569Y-72575600D01*
X347207431Y-72575600D01*
X347684939Y-72480618D01*
X348134742Y-72294303D01*
X348539553Y-72023817D01*
X348883817Y-71679553D01*
X349154303Y-71274742D01*
X349340618Y-70824939D01*
X349435600Y-70347431D01*
X349435600Y-69860569D01*
X349340618Y-69383061D01*
X349154303Y-68933258D01*
X348883817Y-68528447D01*
X348539553Y-68184183D01*
X348134742Y-67913697D01*
X347684939Y-67727382D01*
X347207431Y-67632400D01*
X346720569Y-67632400D01*
X346243061Y-67727382D01*
X345793258Y-67913697D01*
X345388447Y-68184183D01*
X345044183Y-68528447D01*
X344773697Y-68933258D01*
X344587382Y-69383061D01*
X344492400Y-69860569D01*
X282633600Y-69860569D01*
X282538618Y-69383061D01*
X282352303Y-68933258D01*
X282081817Y-68528447D01*
X281737553Y-68184183D01*
X281332742Y-67913697D01*
X280882939Y-67727382D01*
X280405431Y-67632400D01*
X279918569Y-67632400D01*
X279441061Y-67727382D01*
X278991258Y-67913697D01*
X278586447Y-68184183D01*
X278242183Y-68528447D01*
X277971697Y-68933258D01*
X277785382Y-69383061D01*
X277690400Y-69860569D01*
X225483600Y-69860569D01*
X225388618Y-69383061D01*
X225202303Y-68933258D01*
X224931817Y-68528447D01*
X224587553Y-68184183D01*
X224182742Y-67913697D01*
X223732939Y-67727382D01*
X223255431Y-67632400D01*
X222768569Y-67632400D01*
X222291061Y-67727382D01*
X221841258Y-67913697D01*
X221436447Y-68184183D01*
X221092183Y-68528447D01*
X220821697Y-68933258D01*
X220635382Y-69383061D01*
X220540400Y-69860569D01*
X168333600Y-69860569D01*
X168238618Y-69383061D01*
X168052303Y-68933258D01*
X167781817Y-68528447D01*
X167437553Y-68184183D01*
X167032742Y-67913697D01*
X166582939Y-67727382D01*
X166105431Y-67632400D01*
X165618569Y-67632400D01*
X165141061Y-67727382D01*
X164691258Y-67913697D01*
X164286447Y-68184183D01*
X163942183Y-68528447D01*
X163671697Y-68933258D01*
X163485382Y-69383061D01*
X163390400Y-69860569D01*
X111183600Y-69860569D01*
X111088618Y-69383061D01*
X110902303Y-68933258D01*
X110631817Y-68528447D01*
X110287553Y-68184183D01*
X109882742Y-67913697D01*
X109432939Y-67727382D01*
X108955431Y-67632400D01*
X108468569Y-67632400D01*
X107991061Y-67727382D01*
X107541258Y-67913697D01*
X107136447Y-68184183D01*
X106792183Y-68528447D01*
X106521697Y-68933258D01*
X106335382Y-69383061D01*
X106240400Y-69860569D01*
X53779600Y-69860569D01*
X53684618Y-69383061D01*
X53498303Y-68933258D01*
X53227817Y-68528447D01*
X52883553Y-68184183D01*
X52478742Y-67913697D01*
X52028939Y-67727382D01*
X51551431Y-67632400D01*
X51064569Y-67632400D01*
X50587061Y-67727382D01*
X50137258Y-67913697D01*
X49732447Y-68184183D01*
X49388183Y-68528447D01*
X49117697Y-68933258D01*
X48931382Y-69383061D01*
X48836400Y-69860569D01*
X32892600Y-69860569D01*
X32892600Y-60462569D01*
X311726400Y-60462569D01*
X311726400Y-60949431D01*
X311821382Y-61426939D01*
X312007697Y-61876742D01*
X312278183Y-62281553D01*
X312622447Y-62625817D01*
X313027258Y-62896303D01*
X313477061Y-63082618D01*
X313954569Y-63177600D01*
X314441431Y-63177600D01*
X314918939Y-63082618D01*
X315368742Y-62896303D01*
X315773553Y-62625817D01*
X316117817Y-62281553D01*
X316388303Y-61876742D01*
X316574618Y-61426939D01*
X316669600Y-60949431D01*
X316669600Y-60462569D01*
X316574618Y-59985061D01*
X316388303Y-59535258D01*
X316117817Y-59130447D01*
X315773553Y-58786183D01*
X315368742Y-58515697D01*
X314918939Y-58329382D01*
X314441431Y-58234400D01*
X313954569Y-58234400D01*
X313477061Y-58329382D01*
X313027258Y-58515697D01*
X312622447Y-58786183D01*
X312278183Y-59130447D01*
X312007697Y-59535258D01*
X311821382Y-59985061D01*
X311726400Y-60462569D01*
X32892600Y-60462569D01*
X32892600Y-51434600D01*
X355726837Y-51434600D01*
X355600964Y-164719400D01*
M02*
