M48
; DRILL file {KiCad 5.1.6+dfsg1-1~bpo10+1} date Mon Jun 22 19:28:38 2020
; FORMAT={-:-/ absolute / inch / decimal}
; #@! TF.CreationDate,2020-06-22T19:28:38-07:00
; #@! TF.GenerationSoftware,Kicad,Pcbnew,5.1.6+dfsg1-1~bpo10+1
FMAT,2
INCH
T1C0.0866
%
G90
G05
T1
X2.45Y-4.03
X12.32Y-4.52
X6.7Y-6.3
X12.3Y-6.3
X13.82Y-4.26
X4.84Y-4.25
X3.4Y-6.3
X4.9Y-5.35
X8.85Y-6.3
X10.085Y-3.505
X7.835Y-3.505
X10.55Y-6.3
X4.28Y-2.76
X5.05Y-6.3
X10.65Y-5.0
X13.66Y-2.76
X13.8Y-6.3
X12.37Y-2.39
X11.03Y-2.76
X2.21Y-5.06
X6.53Y-2.76
X1.5Y-6.3
X8.78Y-2.76
X7.9Y-5.35
X2.02Y-2.76
T0
M30
