%TF.GenerationSoftware,KiCad,Pcbnew,5.1.6+dfsg1-1~bpo10+1*%
%TF.CreationDate,2020-06-22T19:18:26-07:00*%
%TF.ProjectId,67keys-trackpoint,36376b65-7973-42d7-9472-61636b706f69,A*%
%TF.SameCoordinates,Original*%
%TF.FileFunction,Legend,Top*%
%TF.FilePolarity,Positive*%
%FSLAX46Y46*%
G04 Gerber Fmt 4.6, Leading zero omitted, Abs format (unit mm)*
G04 Created by KiCad (PCBNEW 5.1.6+dfsg1-1~bpo10+1) date 2020-06-22 19:18:26*
%MOMM*%
%LPD*%
G01*
G04 APERTURE LIST*
%ADD10C,0.952500*%
%ADD11C,0.150000*%
%ADD12C,1.778000*%
%ADD13C,0.120000*%
G04 APERTURE END LIST*
D10*
X319314285Y-148408571D02*
X325845714Y-161471428D01*
X324394285Y-148408571D02*
X330925714Y-161471428D01*
X329474285Y-148408571D02*
X336005714Y-161471428D01*
X334554285Y-148408571D02*
X341085714Y-161471428D01*
X339634285Y-148408571D02*
X346165714Y-161471428D01*
X283633333Y-148892380D02*
X279279047Y-161955238D01*
X288955238Y-148892380D02*
X284600952Y-161955238D01*
X294277142Y-148892380D02*
X289922857Y-161955238D01*
X299599047Y-148892380D02*
X295244761Y-161955238D01*
X304920952Y-148892380D02*
X300566666Y-161955238D01*
X232954285Y-148408571D02*
X239485714Y-161471428D01*
X238034285Y-148408571D02*
X244565714Y-161471428D01*
X243114285Y-148408571D02*
X249645714Y-161471428D01*
X248194285Y-148408571D02*
X254725714Y-161471428D01*
X253274285Y-148408571D02*
X259805714Y-161471428D01*
X197273333Y-148892380D02*
X192919047Y-161955238D01*
X202595238Y-148892380D02*
X198240952Y-161955238D01*
X207917142Y-148892380D02*
X203562857Y-161955238D01*
X213239047Y-148892380D02*
X208884761Y-161955238D01*
X218560952Y-148892380D02*
X214206666Y-161955238D01*
X93254285Y-148408571D02*
X99785714Y-161471428D01*
X98334285Y-148408571D02*
X104865714Y-161471428D01*
X103414285Y-148408571D02*
X109945714Y-161471428D01*
X108494285Y-148408571D02*
X115025714Y-161471428D01*
X113574285Y-148408571D02*
X120105714Y-161471428D01*
X57573333Y-148892380D02*
X53219047Y-161955238D01*
X62895238Y-148892380D02*
X58540952Y-161955238D01*
X68217142Y-148892380D02*
X63862857Y-161955238D01*
X73539047Y-148892380D02*
X69184761Y-161955238D01*
X78860952Y-148892380D02*
X74506666Y-161955238D01*
D11*
X330987495Y-85280880D02*
X330892257Y-85233260D01*
X330749400Y-85233260D01*
X330606542Y-85280880D01*
X330511304Y-85376118D01*
X330463685Y-85471356D01*
X330416066Y-85661832D01*
X330416066Y-85804689D01*
X330463685Y-85995165D01*
X330511304Y-86090403D01*
X330606542Y-86185641D01*
X330749400Y-86233260D01*
X330844638Y-86233260D01*
X330987495Y-86185641D01*
X331035114Y-86138022D01*
X331035114Y-85804689D01*
X330844638Y-85804689D01*
X331463685Y-86233260D02*
X331463685Y-85233260D01*
X332035114Y-86233260D01*
X332035114Y-85233260D01*
X332511304Y-86233260D02*
X332511304Y-85233260D01*
X332749400Y-85233260D01*
X332892257Y-85280880D01*
X332987495Y-85376118D01*
X333035114Y-85471356D01*
X333082733Y-85661832D01*
X333082733Y-85804689D01*
X333035114Y-85995165D01*
X332987495Y-86090403D01*
X332892257Y-86185641D01*
X332749400Y-86233260D01*
X332511304Y-86233260D01*
X330366857Y-82516380D02*
X331366857Y-82516380D01*
X331176380Y-83883760D02*
X330843047Y-83407570D01*
X330604952Y-83883760D02*
X330604952Y-82883760D01*
X330985904Y-82883760D01*
X331081142Y-82931380D01*
X331128761Y-82978999D01*
X331176380Y-83074237D01*
X331176380Y-83217094D01*
X331128761Y-83312332D01*
X331081142Y-83359951D01*
X330985904Y-83407570D01*
X330604952Y-83407570D01*
X331366857Y-82516380D02*
X332319238Y-82516380D01*
X331557333Y-83836141D02*
X331700190Y-83883760D01*
X331938285Y-83883760D01*
X332033523Y-83836141D01*
X332081142Y-83788522D01*
X332128761Y-83693284D01*
X332128761Y-83598046D01*
X332081142Y-83502808D01*
X332033523Y-83455189D01*
X331938285Y-83407570D01*
X331747809Y-83359951D01*
X331652571Y-83312332D01*
X331604952Y-83264713D01*
X331557333Y-83169475D01*
X331557333Y-83074237D01*
X331604952Y-82978999D01*
X331652571Y-82931380D01*
X331747809Y-82883760D01*
X331985904Y-82883760D01*
X332128761Y-82931380D01*
X332319238Y-82516380D02*
X333081142Y-82516380D01*
X332414476Y-82883760D02*
X332985904Y-82883760D01*
X332700190Y-83883760D02*
X332700190Y-82883760D01*
X330366857Y-81141201D02*
X330509714Y-81188820D01*
X330747809Y-81188820D01*
X330843047Y-81141201D01*
X330890666Y-81093582D01*
X330938285Y-80998344D01*
X330938285Y-80903106D01*
X330890666Y-80807868D01*
X330843047Y-80760249D01*
X330747809Y-80712630D01*
X330557333Y-80665011D01*
X330462095Y-80617392D01*
X330414476Y-80569773D01*
X330366857Y-80474535D01*
X330366857Y-80379297D01*
X330414476Y-80284059D01*
X330462095Y-80236440D01*
X330557333Y-80188820D01*
X330795428Y-80188820D01*
X330938285Y-80236440D01*
X331271619Y-80188820D02*
X331509714Y-81188820D01*
X331700190Y-80474535D01*
X331890666Y-81188820D01*
X332128761Y-80188820D01*
X332509714Y-81188820D02*
X332509714Y-80188820D01*
X332747809Y-80188820D01*
X332890666Y-80236440D01*
X332985904Y-80331678D01*
X333033523Y-80426916D01*
X333081142Y-80617392D01*
X333081142Y-80760249D01*
X333033523Y-80950725D01*
X332985904Y-81045963D01*
X332890666Y-81141201D01*
X332747809Y-81188820D01*
X332509714Y-81188820D01*
X330366857Y-78636761D02*
X330509714Y-78684380D01*
X330747809Y-78684380D01*
X330843047Y-78636761D01*
X330890666Y-78589142D01*
X330938285Y-78493904D01*
X330938285Y-78398666D01*
X330890666Y-78303428D01*
X330843047Y-78255809D01*
X330747809Y-78208190D01*
X330557333Y-78160571D01*
X330462095Y-78112952D01*
X330414476Y-78065333D01*
X330366857Y-77970095D01*
X330366857Y-77874857D01*
X330414476Y-77779619D01*
X330462095Y-77732000D01*
X330557333Y-77684380D01*
X330795428Y-77684380D01*
X330938285Y-77732000D01*
X331271619Y-77684380D02*
X331509714Y-78684380D01*
X331700190Y-77970095D01*
X331890666Y-78684380D01*
X332128761Y-77684380D01*
X333081142Y-78589142D02*
X333033523Y-78636761D01*
X332890666Y-78684380D01*
X332795428Y-78684380D01*
X332652571Y-78636761D01*
X332557333Y-78541523D01*
X332509714Y-78446285D01*
X332462095Y-78255809D01*
X332462095Y-78112952D01*
X332509714Y-77922476D01*
X332557333Y-77827238D01*
X332652571Y-77732000D01*
X332795428Y-77684380D01*
X332890666Y-77684380D01*
X333033523Y-77732000D01*
X333081142Y-77779619D01*
X330787523Y-75085960D02*
X331406571Y-75085960D01*
X331073238Y-75466913D01*
X331216095Y-75466913D01*
X331311333Y-75514532D01*
X331358952Y-75562151D01*
X331406571Y-75657389D01*
X331406571Y-75895484D01*
X331358952Y-75990722D01*
X331311333Y-76038341D01*
X331216095Y-76085960D01*
X330930380Y-76085960D01*
X330835142Y-76038341D01*
X330787523Y-75990722D01*
X331739904Y-75419294D02*
X331978000Y-76085960D01*
X332216095Y-75419294D01*
X332501809Y-75085960D02*
X333120857Y-75085960D01*
X332787523Y-75466913D01*
X332930380Y-75466913D01*
X333025619Y-75514532D01*
X333073238Y-75562151D01*
X333120857Y-75657389D01*
X333120857Y-75895484D01*
X333073238Y-75990722D01*
X333025619Y-76038341D01*
X332930380Y-76085960D01*
X332644666Y-76085960D01*
X332549428Y-76038341D01*
X332501809Y-75990722D01*
D12*
X321219285Y-106651727D02*
X332649285Y-105222977D01*
X332649285Y-103257501D01*
X332105000Y-102146251D01*
X331016428Y-101496132D01*
X329927857Y-101239108D01*
X327750714Y-101118155D01*
X326117857Y-101322263D01*
X323940714Y-101987501D01*
X322852142Y-102516667D01*
X321763571Y-103438929D01*
X321219285Y-104686251D01*
X321219285Y-106651727D01*
X325573571Y-97852441D02*
X325573571Y-91562917D01*
X322307857Y-88040179D02*
X321763571Y-87715120D01*
X321219285Y-88176251D01*
X321763571Y-88501310D01*
X322307857Y-88040179D01*
X321219285Y-88176251D01*
X328295000Y-87291786D02*
X327750714Y-86966727D01*
X327206428Y-87427858D01*
X327750714Y-87752917D01*
X328295000Y-87291786D01*
X327206428Y-87427858D01*
D13*
%TO.C,J1*%
X332264500Y-56528000D02*
X332264500Y-55628000D01*
X323074500Y-56528000D02*
X323074500Y-55628000D01*
X332264500Y-52928000D02*
X332264500Y-50198000D01*
X323074500Y-52928000D02*
X323074500Y-50198000D01*
X332144500Y-59608000D02*
X323194500Y-59608000D01*
X332264500Y-50198000D02*
X323074500Y-50198000D01*
%TO.C,J5*%
X315274000Y-79950000D02*
X312614000Y-79950000D01*
X315274000Y-85090000D02*
X315274000Y-79950000D01*
X312614000Y-85090000D02*
X312614000Y-79950000D01*
X315274000Y-85090000D02*
X312614000Y-85090000D01*
X315274000Y-86360000D02*
X315274000Y-87690000D01*
X315274000Y-87690000D02*
X313944000Y-87690000D01*
%TO.C,J4*%
X42612000Y-161604000D02*
X42612000Y-160274000D01*
X43942000Y-161604000D02*
X42612000Y-161604000D01*
X45212000Y-161604000D02*
X45212000Y-158944000D01*
X45212000Y-158944000D02*
X50352000Y-158944000D01*
X45212000Y-161604000D02*
X50352000Y-161604000D01*
X50352000Y-161604000D02*
X50352000Y-158944000D01*
%TO.C,SWJ7*%
X339598000Y-129667000D02*
X353568000Y-129667000D01*
X353568000Y-129667000D02*
X353568000Y-143637000D01*
X353568000Y-143637000D02*
X339598000Y-143637000D01*
X339598000Y-143637000D02*
X339598000Y-129667000D01*
%TO.C,SWD11*%
X181949000Y-149652000D02*
X178549000Y-149652000D01*
X183589000Y-149652000D02*
X183049000Y-149652000D01*
X176389000Y-146822000D02*
X176389000Y-146312000D01*
X176909000Y-146312000D02*
X176389000Y-146312000D01*
X176909000Y-146822000D02*
X176909000Y-146312000D01*
X177449000Y-149652000D02*
X176909000Y-149652000D01*
X184109000Y-146822000D02*
X184109000Y-146312000D01*
X183589000Y-146822000D02*
X183589000Y-146312000D01*
X176909000Y-149652000D02*
X176909000Y-149422000D01*
X184109000Y-153322000D02*
X184109000Y-149422000D01*
X184109000Y-146312000D02*
X183589000Y-146312000D01*
X176389000Y-153322000D02*
X176389000Y-149422000D01*
X184109000Y-153322000D02*
X176389000Y-153322000D01*
X183589000Y-149652000D02*
X183589000Y-149422000D01*
%TO.C,SWD9*%
X162899000Y-149652000D02*
X159499000Y-149652000D01*
X164539000Y-149652000D02*
X163999000Y-149652000D01*
X157339000Y-146822000D02*
X157339000Y-146312000D01*
X157859000Y-146312000D02*
X157339000Y-146312000D01*
X157859000Y-146822000D02*
X157859000Y-146312000D01*
X158399000Y-149652000D02*
X157859000Y-149652000D01*
X165059000Y-146822000D02*
X165059000Y-146312000D01*
X164539000Y-146822000D02*
X164539000Y-146312000D01*
X157859000Y-149652000D02*
X157859000Y-149422000D01*
X165059000Y-153322000D02*
X165059000Y-149422000D01*
X165059000Y-146312000D02*
X164539000Y-146312000D01*
X157339000Y-153322000D02*
X157339000Y-149422000D01*
X165059000Y-153322000D02*
X157339000Y-153322000D01*
X164539000Y-149652000D02*
X164539000Y-149422000D01*
%TO.C,SWD7*%
X143849000Y-149652000D02*
X140449000Y-149652000D01*
X145489000Y-149652000D02*
X144949000Y-149652000D01*
X138289000Y-146822000D02*
X138289000Y-146312000D01*
X138809000Y-146312000D02*
X138289000Y-146312000D01*
X138809000Y-146822000D02*
X138809000Y-146312000D01*
X139349000Y-149652000D02*
X138809000Y-149652000D01*
X146009000Y-146822000D02*
X146009000Y-146312000D01*
X145489000Y-146822000D02*
X145489000Y-146312000D01*
X138809000Y-149652000D02*
X138809000Y-149422000D01*
X146009000Y-153322000D02*
X146009000Y-149422000D01*
X146009000Y-146312000D02*
X145489000Y-146312000D01*
X138289000Y-153322000D02*
X138289000Y-149422000D01*
X146009000Y-153322000D02*
X138289000Y-153322000D01*
X145489000Y-149652000D02*
X145489000Y-149422000D01*
%TO.C,SWD8*%
X153924000Y-162687000D02*
X153924000Y-148717000D01*
X167894000Y-162687000D02*
X153924000Y-162687000D01*
X167894000Y-148717000D02*
X167894000Y-162687000D01*
X153924000Y-148717000D02*
X167894000Y-148717000D01*
%TO.C,SWD5*%
X156210000Y-143637000D02*
X156210000Y-129667000D01*
X170180000Y-143637000D02*
X156210000Y-143637000D01*
X170180000Y-129667000D02*
X170180000Y-143637000D01*
X156210000Y-129667000D02*
X170180000Y-129667000D01*
%TO.C,SWC6*%
X125349000Y-105537000D02*
X125349000Y-91567000D01*
X139319000Y-105537000D02*
X125349000Y-105537000D01*
X139319000Y-91567000D02*
X139319000Y-105537000D01*
X125349000Y-91567000D02*
X139319000Y-91567000D01*
%TO.C,SWJ5*%
X301498000Y-129667000D02*
X315468000Y-129667000D01*
X315468000Y-129667000D02*
X315468000Y-143637000D01*
X315468000Y-143637000D02*
X301498000Y-143637000D01*
X301498000Y-143637000D02*
X301498000Y-129667000D01*
%TO.C,SWE3*%
X158750000Y-86487000D02*
X158750000Y-72517000D01*
X172720000Y-86487000D02*
X158750000Y-86487000D01*
X172720000Y-72517000D02*
X172720000Y-86487000D01*
X158750000Y-72517000D02*
X172720000Y-72517000D01*
%TO.C,SWH3*%
X289687000Y-105537000D02*
X289687000Y-91567000D01*
X303657000Y-105537000D02*
X289687000Y-105537000D01*
X303657000Y-91567000D02*
X303657000Y-105537000D01*
X289687000Y-91567000D02*
X303657000Y-91567000D01*
%TO.C,SWA8*%
X84836000Y-143637000D02*
X84836000Y-129667000D01*
X98806000Y-143637000D02*
X84836000Y-143637000D01*
X98806000Y-129667000D02*
X98806000Y-143637000D01*
X84836000Y-129667000D02*
X98806000Y-129667000D01*
%TO.C,SWH6*%
X251523500Y-143637000D02*
X251523500Y-129667000D01*
X265493500Y-143637000D02*
X251523500Y-143637000D01*
X265493500Y-129667000D02*
X265493500Y-143637000D01*
X251523500Y-129667000D02*
X265493500Y-129667000D01*
%TO.C,SWB7*%
X77724000Y-124587000D02*
X77724000Y-110617000D01*
X91694000Y-124587000D02*
X77724000Y-124587000D01*
X91694000Y-110617000D02*
X91694000Y-124587000D01*
X77724000Y-110617000D02*
X91694000Y-110617000D01*
%TO.C,SWA4*%
X42037000Y-105537000D02*
X42037000Y-91567000D01*
X56007000Y-105537000D02*
X42037000Y-105537000D01*
X56007000Y-91567000D02*
X56007000Y-105537000D01*
X42037000Y-91567000D02*
X56007000Y-91567000D01*
%TO.C,SWD10*%
X172974000Y-162687000D02*
X172974000Y-148717000D01*
X186944000Y-162687000D02*
X172974000Y-162687000D01*
X186944000Y-148717000D02*
X186944000Y-162687000D01*
X172974000Y-148717000D02*
X186944000Y-148717000D01*
%TO.C,SWD3*%
X144399000Y-105537000D02*
X144399000Y-91567000D01*
X158369000Y-105537000D02*
X144399000Y-105537000D01*
X158369000Y-91567000D02*
X158369000Y-105537000D01*
X144399000Y-91567000D02*
X158369000Y-91567000D01*
%TO.C,SWC4*%
X120650000Y-86487000D02*
X120650000Y-72517000D01*
X134620000Y-86487000D02*
X120650000Y-86487000D01*
X134620000Y-72517000D02*
X134620000Y-86487000D01*
X120650000Y-72517000D02*
X134620000Y-72517000D01*
%TO.C,SWD2*%
X139700000Y-86487000D02*
X139700000Y-72517000D01*
X153670000Y-86487000D02*
X139700000Y-86487000D01*
X153670000Y-72517000D02*
X153670000Y-86487000D01*
X139700000Y-72517000D02*
X153670000Y-72517000D01*
%TO.C,SWH2*%
X296926000Y-86487000D02*
X296926000Y-72517000D01*
X310896000Y-86487000D02*
X296926000Y-86487000D01*
X310896000Y-72517000D02*
X310896000Y-86487000D01*
X296926000Y-72517000D02*
X310896000Y-72517000D01*
%TO.C,SWD6*%
X134874000Y-162687000D02*
X134874000Y-148717000D01*
X148844000Y-162687000D02*
X134874000Y-162687000D01*
X148844000Y-148717000D02*
X148844000Y-162687000D01*
X134874000Y-148717000D02*
X148844000Y-148717000D01*
%TO.C,SWG3*%
X234950000Y-86487000D02*
X234950000Y-72517000D01*
X248920000Y-86487000D02*
X234950000Y-86487000D01*
X248920000Y-72517000D02*
X248920000Y-86487000D01*
X234950000Y-72517000D02*
X248920000Y-72517000D01*
%TO.C,SWH1*%
X292100000Y-67437000D02*
X292100000Y-53467000D01*
X306070000Y-67437000D02*
X292100000Y-67437000D01*
X306070000Y-53467000D02*
X306070000Y-67437000D01*
X292100000Y-53467000D02*
X306070000Y-53467000D01*
%TO.C,SWF5*%
X201549000Y-105537000D02*
X201549000Y-91567000D01*
X215519000Y-105537000D02*
X201549000Y-105537000D01*
X215519000Y-91567000D02*
X215519000Y-105537000D01*
X201549000Y-91567000D02*
X215519000Y-91567000D01*
%TO.C,SWF8*%
X230124000Y-124587000D02*
X230124000Y-110617000D01*
X244094000Y-124587000D02*
X230124000Y-124587000D01*
X244094000Y-110617000D02*
X244094000Y-124587000D01*
X230124000Y-110617000D02*
X244094000Y-110617000D01*
%TO.C,SWD1*%
X149225000Y-67437000D02*
X149225000Y-53467000D01*
X163195000Y-67437000D02*
X149225000Y-67437000D01*
X163195000Y-53467000D02*
X163195000Y-67437000D01*
X149225000Y-53467000D02*
X163195000Y-53467000D01*
%TO.C,SWG1*%
X244475000Y-67437000D02*
X244475000Y-53467000D01*
X258445000Y-67437000D02*
X244475000Y-67437000D01*
X258445000Y-53467000D02*
X258445000Y-67437000D01*
X244475000Y-53467000D02*
X258445000Y-53467000D01*
%TO.C,SWC1*%
X111125000Y-67437000D02*
X111125000Y-53467000D01*
X125095000Y-67437000D02*
X111125000Y-67437000D01*
X125095000Y-53467000D02*
X125095000Y-67437000D01*
X111125000Y-53467000D02*
X125095000Y-53467000D01*
%TO.C,SWA7*%
X61087000Y-143637000D02*
X61087000Y-129667000D01*
X75057000Y-143637000D02*
X61087000Y-143637000D01*
X75057000Y-129667000D02*
X75057000Y-143637000D01*
X61087000Y-129667000D02*
X75057000Y-129667000D01*
%TO.C,SWA5*%
X46799500Y-124587000D02*
X46799500Y-110617000D01*
X60769500Y-124587000D02*
X46799500Y-124587000D01*
X60769500Y-110617000D02*
X60769500Y-124587000D01*
X46799500Y-110617000D02*
X60769500Y-110617000D01*
%TO.C,SWF3*%
X196850000Y-86487000D02*
X196850000Y-72517000D01*
X210820000Y-86487000D02*
X196850000Y-86487000D01*
X210820000Y-72517000D02*
X210820000Y-86487000D01*
X196850000Y-72517000D02*
X210820000Y-72517000D01*
%TO.C,SWB2*%
X92075000Y-67437000D02*
X92075000Y-53467000D01*
X106045000Y-67437000D02*
X92075000Y-67437000D01*
X106045000Y-53467000D02*
X106045000Y-67437000D01*
X92075000Y-53467000D02*
X106045000Y-53467000D01*
%TO.C,SWF6*%
X220599000Y-105537000D02*
X220599000Y-91567000D01*
X234569000Y-105537000D02*
X220599000Y-105537000D01*
X234569000Y-91567000D02*
X234569000Y-105537000D01*
X220599000Y-91567000D02*
X234569000Y-91567000D01*
%TO.C,SWE6*%
X182499000Y-105537000D02*
X182499000Y-91567000D01*
X196469000Y-105537000D02*
X182499000Y-105537000D01*
X196469000Y-91567000D02*
X196469000Y-105537000D01*
X182499000Y-91567000D02*
X196469000Y-91567000D01*
%TO.C,SWF1*%
X206375000Y-67437000D02*
X206375000Y-53467000D01*
X220345000Y-67437000D02*
X206375000Y-67437000D01*
X220345000Y-53467000D02*
X220345000Y-67437000D01*
X206375000Y-53467000D02*
X220345000Y-53467000D01*
%TO.C,SWB5*%
X68199000Y-105537000D02*
X68199000Y-91567000D01*
X82169000Y-105537000D02*
X68199000Y-105537000D01*
X82169000Y-91567000D02*
X82169000Y-105537000D01*
X68199000Y-91567000D02*
X82169000Y-91567000D01*
%TO.C,SWB3*%
X63500000Y-86487000D02*
X63500000Y-72517000D01*
X77470000Y-86487000D02*
X63500000Y-86487000D01*
X77470000Y-72517000D02*
X77470000Y-86487000D01*
X63500000Y-72517000D02*
X77470000Y-72517000D01*
%TO.C,SWE4*%
X177800000Y-86487000D02*
X177800000Y-72517000D01*
X191770000Y-86487000D02*
X177800000Y-86487000D01*
X191770000Y-72517000D02*
X191770000Y-86487000D01*
X177800000Y-72517000D02*
X191770000Y-72517000D01*
%TO.C,SWF4*%
X215900000Y-86487000D02*
X215900000Y-72517000D01*
X229870000Y-86487000D02*
X215900000Y-86487000D01*
X229870000Y-72517000D02*
X229870000Y-86487000D01*
X215900000Y-72517000D02*
X229870000Y-72517000D01*
%TO.C,SWG6*%
X239649000Y-105537000D02*
X239649000Y-91567000D01*
X253619000Y-105537000D02*
X239649000Y-105537000D01*
X253619000Y-91567000D02*
X253619000Y-105537000D01*
X239649000Y-91567000D02*
X253619000Y-91567000D01*
%TO.C,SWG5*%
X273050000Y-86487000D02*
X273050000Y-72517000D01*
X287020000Y-86487000D02*
X273050000Y-86487000D01*
X287020000Y-72517000D02*
X287020000Y-86487000D01*
X273050000Y-72517000D02*
X287020000Y-72517000D01*
%TO.C,SWH7*%
X227711000Y-143637000D02*
X227711000Y-129667000D01*
X241681000Y-143637000D02*
X227711000Y-143637000D01*
X241681000Y-129667000D02*
X241681000Y-143637000D01*
X227711000Y-129667000D02*
X241681000Y-129667000D01*
%TO.C,SWH4*%
X284861000Y-124587000D02*
X284861000Y-110617000D01*
X298831000Y-124587000D02*
X284861000Y-124587000D01*
X298831000Y-110617000D02*
X298831000Y-124587000D01*
X284861000Y-110617000D02*
X298831000Y-110617000D01*
%TO.C,SWD4*%
X153924000Y-124587000D02*
X153924000Y-110617000D01*
X167894000Y-124587000D02*
X153924000Y-124587000D01*
X167894000Y-110617000D02*
X167894000Y-124587000D01*
X153924000Y-110617000D02*
X167894000Y-110617000D01*
%TO.C,SWE8*%
X192024000Y-124587000D02*
X192024000Y-110617000D01*
X205994000Y-124587000D02*
X192024000Y-124587000D01*
X205994000Y-110617000D02*
X205994000Y-124587000D01*
X192024000Y-110617000D02*
X205994000Y-110617000D01*
%TO.C,SWE1*%
X168275000Y-67437000D02*
X168275000Y-53467000D01*
X182245000Y-67437000D02*
X168275000Y-67437000D01*
X182245000Y-53467000D02*
X182245000Y-67437000D01*
X168275000Y-53467000D02*
X182245000Y-53467000D01*
%TO.C,SWG7*%
X258699000Y-105537000D02*
X258699000Y-91567000D01*
X272669000Y-105537000D02*
X258699000Y-105537000D01*
X272669000Y-91567000D02*
X272669000Y-105537000D01*
X258699000Y-91567000D02*
X272669000Y-91567000D01*
%TO.C,SWC2*%
X130175000Y-67437000D02*
X130175000Y-53467000D01*
X144145000Y-67437000D02*
X130175000Y-67437000D01*
X144145000Y-53467000D02*
X144145000Y-67437000D01*
X130175000Y-53467000D02*
X144145000Y-53467000D01*
%TO.C,SWE2*%
X187325000Y-67437000D02*
X187325000Y-53467000D01*
X201295000Y-67437000D02*
X187325000Y-67437000D01*
X201295000Y-53467000D02*
X201295000Y-67437000D01*
X187325000Y-53467000D02*
X201295000Y-53467000D01*
%TO.C,SWC5*%
X106299000Y-105537000D02*
X106299000Y-91567000D01*
X120269000Y-105537000D02*
X106299000Y-105537000D01*
X120269000Y-91567000D02*
X120269000Y-105537000D01*
X106299000Y-91567000D02*
X120269000Y-91567000D01*
%TO.C,SWB4*%
X82550000Y-86487000D02*
X82550000Y-72517000D01*
X96520000Y-86487000D02*
X82550000Y-86487000D01*
X96520000Y-72517000D02*
X96520000Y-86487000D01*
X82550000Y-72517000D02*
X96520000Y-72517000D01*
%TO.C,SWE5*%
X163449000Y-105537000D02*
X163449000Y-91567000D01*
X177419000Y-105537000D02*
X163449000Y-105537000D01*
X177419000Y-91567000D02*
X177419000Y-105537000D01*
X163449000Y-91567000D02*
X177419000Y-91567000D01*
%TO.C,SWH5*%
X275336000Y-143637000D02*
X275336000Y-129667000D01*
X289306000Y-143637000D02*
X275336000Y-143637000D01*
X289306000Y-129667000D02*
X289306000Y-143637000D01*
X275336000Y-129667000D02*
X289306000Y-129667000D01*
%TO.C,SWC3*%
X101600000Y-86487000D02*
X101600000Y-72517000D01*
X115570000Y-86487000D02*
X101600000Y-86487000D01*
X115570000Y-72517000D02*
X115570000Y-86487000D01*
X101600000Y-72517000D02*
X115570000Y-72517000D01*
%TO.C,SWG4*%
X254000000Y-86487000D02*
X254000000Y-72517000D01*
X267970000Y-86487000D02*
X254000000Y-86487000D01*
X267970000Y-72517000D02*
X267970000Y-86487000D01*
X254000000Y-72517000D02*
X267970000Y-72517000D01*
%TO.C,SWF7*%
X211074000Y-124587000D02*
X211074000Y-110617000D01*
X225044000Y-124587000D02*
X211074000Y-124587000D01*
X225044000Y-110617000D02*
X225044000Y-124587000D01*
X211074000Y-110617000D02*
X225044000Y-110617000D01*
%TO.C,SWG2*%
X263525000Y-67437000D02*
X263525000Y-53467000D01*
X277495000Y-67437000D02*
X263525000Y-67437000D01*
X277495000Y-53467000D02*
X277495000Y-67437000D01*
X263525000Y-53467000D02*
X277495000Y-53467000D01*
%TO.C,SWE7*%
X172974000Y-124587000D02*
X172974000Y-110617000D01*
X186944000Y-124587000D02*
X172974000Y-124587000D01*
X186944000Y-110617000D02*
X186944000Y-124587000D01*
X172974000Y-110617000D02*
X186944000Y-110617000D01*
%TO.C,SWB1*%
X73025000Y-67437000D02*
X73025000Y-53467000D01*
X86995000Y-67437000D02*
X73025000Y-67437000D01*
X86995000Y-53467000D02*
X86995000Y-67437000D01*
X73025000Y-53467000D02*
X86995000Y-53467000D01*
%TO.C,SWF2*%
X225425000Y-67437000D02*
X225425000Y-53467000D01*
X239395000Y-67437000D02*
X225425000Y-67437000D01*
X239395000Y-53467000D02*
X239395000Y-67437000D01*
X225425000Y-53467000D02*
X239395000Y-53467000D01*
%TO.C,SWA2*%
X53963000Y-67437000D02*
X53963000Y-53467000D01*
X67933000Y-67437000D02*
X53963000Y-67437000D01*
X67933000Y-53467000D02*
X67933000Y-67437000D01*
X53963000Y-53467000D02*
X67933000Y-53467000D01*
%TO.C,SWA6*%
X37274500Y-143637000D02*
X37274500Y-129667000D01*
X51244500Y-143637000D02*
X37274500Y-143637000D01*
X51244500Y-129667000D02*
X51244500Y-143637000D01*
X37274500Y-129667000D02*
X51244500Y-129667000D01*
%TO.C,SWC8*%
X134874000Y-124587000D02*
X134874000Y-110617000D01*
X148844000Y-124587000D02*
X134874000Y-124587000D01*
X148844000Y-110617000D02*
X148844000Y-124587000D01*
X134874000Y-110617000D02*
X148844000Y-110617000D01*
%TO.C,SWC7*%
X115824000Y-124587000D02*
X115824000Y-110617000D01*
X129794000Y-124587000D02*
X115824000Y-124587000D01*
X129794000Y-110617000D02*
X129794000Y-124587000D01*
X115824000Y-110617000D02*
X129794000Y-110617000D01*
%TO.C,SWB8*%
X96774000Y-124587000D02*
X96774000Y-110617000D01*
X110744000Y-124587000D02*
X96774000Y-124587000D01*
X110744000Y-110617000D02*
X110744000Y-124587000D01*
X96774000Y-110617000D02*
X110744000Y-110617000D01*
%TO.C,SWB6*%
X87249000Y-105537000D02*
X87249000Y-91567000D01*
X101219000Y-105537000D02*
X87249000Y-105537000D01*
X101219000Y-91567000D02*
X101219000Y-105537000D01*
X87249000Y-91567000D02*
X101219000Y-91567000D01*
%TO.C,SWA3*%
X39687500Y-86487000D02*
X39687500Y-72517000D01*
X53657500Y-86487000D02*
X39687500Y-86487000D01*
X53657500Y-72517000D02*
X53657500Y-86487000D01*
X39687500Y-72517000D02*
X53657500Y-72517000D01*
%TO.C,SWA1*%
X34925000Y-67437000D02*
X34925000Y-53467000D01*
X48895000Y-67437000D02*
X34925000Y-67437000D01*
X48895000Y-53467000D02*
X48895000Y-67437000D01*
X34925000Y-53467000D02*
X48895000Y-53467000D01*
%TO.C,SWG8*%
X249174000Y-124587000D02*
X249174000Y-110617000D01*
X263144000Y-124587000D02*
X249174000Y-124587000D01*
X263144000Y-110617000D02*
X263144000Y-124587000D01*
X249174000Y-110617000D02*
X263144000Y-110617000D01*
%TO.C,J2*%
X333950000Y-74362000D02*
X335280000Y-74362000D01*
X333950000Y-75692000D02*
X333950000Y-74362000D01*
X333950000Y-76962000D02*
X336610000Y-76962000D01*
X336610000Y-76962000D02*
X336610000Y-87182000D01*
X333950000Y-76962000D02*
X333950000Y-87182000D01*
X333950000Y-87182000D02*
X336610000Y-87182000D01*
%TO.C,SWJ2*%
X339725000Y-86487000D02*
X339725000Y-72517000D01*
X353695000Y-86487000D02*
X339725000Y-86487000D01*
X353695000Y-72517000D02*
X353695000Y-86487000D01*
X339725000Y-72517000D02*
X353695000Y-72517000D01*
%TO.C,SWJ1*%
X339725000Y-67437000D02*
X339725000Y-53467000D01*
X353695000Y-67437000D02*
X339725000Y-67437000D01*
X353695000Y-53467000D02*
X353695000Y-67437000D01*
X339725000Y-53467000D02*
X353695000Y-53467000D01*
%TO.C,SWJ3*%
X339725000Y-105537000D02*
X339725000Y-91567000D01*
X353695000Y-105537000D02*
X339725000Y-105537000D01*
X353695000Y-91567000D02*
X353695000Y-105537000D01*
X339725000Y-91567000D02*
X353695000Y-91567000D01*
%TO.C,SWJ6*%
X320548000Y-143637000D02*
X320548000Y-129667000D01*
X334518000Y-143637000D02*
X320548000Y-143637000D01*
X334518000Y-129667000D02*
X334518000Y-143637000D01*
X320548000Y-129667000D02*
X334518000Y-129667000D01*
%TO.C,SWJ4*%
X320548000Y-124587000D02*
X320548000Y-110617000D01*
X334518000Y-124587000D02*
X320548000Y-124587000D01*
X334518000Y-110617000D02*
X334518000Y-124587000D01*
X320548000Y-110617000D02*
X334518000Y-110617000D01*
%TO.C,SW1*%
X335433500Y-70024000D02*
X333373500Y-70024000D01*
X335433500Y-65284000D02*
X333373500Y-65284000D01*
X336773500Y-65284000D02*
X336373500Y-65284000D01*
X336773500Y-70024000D02*
X336773500Y-65284000D01*
X336773500Y-70024000D02*
X336373500Y-70024000D01*
X332033500Y-65284000D02*
X332433500Y-65284000D01*
X332033500Y-70024000D02*
X332433500Y-70024000D01*
X332033500Y-70024000D02*
X332033500Y-65284000D01*
%TO.C,R10*%
X61423733Y-89537000D02*
X61766267Y-89537000D01*
X61423733Y-88517000D02*
X61766267Y-88517000D01*
%TO.C,D3*%
X352766000Y-116238000D02*
X347766000Y-116238000D01*
X346666000Y-111938000D02*
X346666000Y-110838000D01*
X346666000Y-110838000D02*
X352766000Y-110838000D01*
%TO.C,D2*%
X347766000Y-120236000D02*
X352766000Y-120236000D01*
X353866000Y-124536000D02*
X353866000Y-125636000D01*
X353866000Y-125636000D02*
X347766000Y-125636000D01*
%TO.C,C10*%
X322497267Y-64006000D02*
X322154733Y-64006000D01*
X322497267Y-65026000D02*
X322154733Y-65026000D01*
%TO.C,C9*%
X327831267Y-77976000D02*
X327488733Y-77976000D01*
X327831267Y-78996000D02*
X327488733Y-78996000D01*
%TO.C,C8*%
X327831267Y-79500000D02*
X327488733Y-79500000D01*
X327831267Y-80520000D02*
X327488733Y-80520000D01*
%TO.C,C7*%
X327831267Y-82548000D02*
X327488733Y-82548000D01*
X327831267Y-83568000D02*
X327488733Y-83568000D01*
%TO.C,C6*%
X327831267Y-81024000D02*
X327488733Y-81024000D01*
X327831267Y-82044000D02*
X327488733Y-82044000D01*
%TO.C,C5*%
X344087267Y-116584000D02*
X343744733Y-116584000D01*
X344087267Y-117604000D02*
X343744733Y-117604000D01*
%TO.C,C3*%
X352469267Y-116584000D02*
X352126733Y-116584000D01*
X352469267Y-117604000D02*
X352126733Y-117604000D01*
%TO.C,C2*%
X348062733Y-119890000D02*
X348405267Y-119890000D01*
X348062733Y-118870000D02*
X348405267Y-118870000D01*
%TO.C,C1*%
X339680733Y-119890000D02*
X340023267Y-119890000D01*
X339680733Y-118870000D02*
X340023267Y-118870000D01*
%TO.C,C11*%
X322497267Y-69594000D02*
X322154733Y-69594000D01*
X322497267Y-70614000D02*
X322154733Y-70614000D01*
%TO.C,D1*%
X345484000Y-125636000D02*
X339384000Y-125636000D01*
X345484000Y-124536000D02*
X345484000Y-125636000D01*
X339384000Y-120236000D02*
X344384000Y-120236000D01*
%TO.C,D4*%
X344384000Y-116238000D02*
X339384000Y-116238000D01*
X338284000Y-111938000D02*
X338284000Y-110838000D01*
X338284000Y-110838000D02*
X344384000Y-110838000D01*
%TO.C,D5*%
X67519000Y-88067000D02*
X64659000Y-88067000D01*
X67519000Y-89987000D02*
X67519000Y-88067000D01*
X64659000Y-89987000D02*
X67519000Y-89987000D01*
%TO.C,D6*%
X326152000Y-104465000D02*
X329012000Y-104465000D01*
X329012000Y-104465000D02*
X329012000Y-102545000D01*
X329012000Y-102545000D02*
X326152000Y-102545000D01*
%TO.C,U3*%
X320716000Y-66410000D02*
X320716000Y-68210000D01*
X323936000Y-68210000D02*
X323936000Y-65760000D01*
%TO.C,J1*%
D11*
X327336166Y-60180380D02*
X327336166Y-60894666D01*
X327288547Y-61037523D01*
X327193309Y-61132761D01*
X327050452Y-61180380D01*
X326955214Y-61180380D01*
X328336166Y-61180380D02*
X327764738Y-61180380D01*
X328050452Y-61180380D02*
X328050452Y-60180380D01*
X327955214Y-60323238D01*
X327859976Y-60418476D01*
X327764738Y-60466095D01*
%TO.C,J5*%
X313610666Y-88142380D02*
X313610666Y-88856666D01*
X313563047Y-88999523D01*
X313467809Y-89094761D01*
X313324952Y-89142380D01*
X313229714Y-89142380D01*
X314563047Y-88142380D02*
X314086857Y-88142380D01*
X314039238Y-88618571D01*
X314086857Y-88570952D01*
X314182095Y-88523333D01*
X314420190Y-88523333D01*
X314515428Y-88570952D01*
X314563047Y-88618571D01*
X314610666Y-88713809D01*
X314610666Y-88951904D01*
X314563047Y-89047142D01*
X314515428Y-89094761D01*
X314420190Y-89142380D01*
X314182095Y-89142380D01*
X314086857Y-89094761D01*
X314039238Y-89047142D01*
%TO.C,J4*%
X41064380Y-160607333D02*
X41778666Y-160607333D01*
X41921523Y-160654952D01*
X42016761Y-160750190D01*
X42064380Y-160893047D01*
X42064380Y-160988285D01*
X41397714Y-159702571D02*
X42064380Y-159702571D01*
X41016761Y-159940666D02*
X41731047Y-160178761D01*
X41731047Y-159559714D01*
%TO.C,SWJ7*%
X344868714Y-129182761D02*
X345011571Y-129230380D01*
X345249666Y-129230380D01*
X345344904Y-129182761D01*
X345392523Y-129135142D01*
X345440142Y-129039904D01*
X345440142Y-128944666D01*
X345392523Y-128849428D01*
X345344904Y-128801809D01*
X345249666Y-128754190D01*
X345059190Y-128706571D01*
X344963952Y-128658952D01*
X344916333Y-128611333D01*
X344868714Y-128516095D01*
X344868714Y-128420857D01*
X344916333Y-128325619D01*
X344963952Y-128278000D01*
X345059190Y-128230380D01*
X345297285Y-128230380D01*
X345440142Y-128278000D01*
X345773476Y-128230380D02*
X346011571Y-129230380D01*
X346202047Y-128516095D01*
X346392523Y-129230380D01*
X346630619Y-128230380D01*
X347297285Y-128230380D02*
X347297285Y-128944666D01*
X347249666Y-129087523D01*
X347154428Y-129182761D01*
X347011571Y-129230380D01*
X346916333Y-129230380D01*
X347678238Y-128230380D02*
X348344904Y-128230380D01*
X347916333Y-129230380D01*
%TO.C,SWD11*%
X177939476Y-147216761D02*
X178082333Y-147264380D01*
X178320428Y-147264380D01*
X178415666Y-147216761D01*
X178463285Y-147169142D01*
X178510904Y-147073904D01*
X178510904Y-146978666D01*
X178463285Y-146883428D01*
X178415666Y-146835809D01*
X178320428Y-146788190D01*
X178129952Y-146740571D01*
X178034714Y-146692952D01*
X177987095Y-146645333D01*
X177939476Y-146550095D01*
X177939476Y-146454857D01*
X177987095Y-146359619D01*
X178034714Y-146312000D01*
X178129952Y-146264380D01*
X178368047Y-146264380D01*
X178510904Y-146312000D01*
X178844238Y-146264380D02*
X179082333Y-147264380D01*
X179272809Y-146550095D01*
X179463285Y-147264380D01*
X179701380Y-146264380D01*
X180082333Y-147264380D02*
X180082333Y-146264380D01*
X180320428Y-146264380D01*
X180463285Y-146312000D01*
X180558523Y-146407238D01*
X180606142Y-146502476D01*
X180653761Y-146692952D01*
X180653761Y-146835809D01*
X180606142Y-147026285D01*
X180558523Y-147121523D01*
X180463285Y-147216761D01*
X180320428Y-147264380D01*
X180082333Y-147264380D01*
X181606142Y-147264380D02*
X181034714Y-147264380D01*
X181320428Y-147264380D02*
X181320428Y-146264380D01*
X181225190Y-146407238D01*
X181129952Y-146502476D01*
X181034714Y-146550095D01*
X182558523Y-147264380D02*
X181987095Y-147264380D01*
X182272809Y-147264380D02*
X182272809Y-146264380D01*
X182177571Y-146407238D01*
X182082333Y-146502476D01*
X181987095Y-146550095D01*
%TO.C,SWD9*%
X159202666Y-148232761D02*
X159345523Y-148280380D01*
X159583619Y-148280380D01*
X159678857Y-148232761D01*
X159726476Y-148185142D01*
X159774095Y-148089904D01*
X159774095Y-147994666D01*
X159726476Y-147899428D01*
X159678857Y-147851809D01*
X159583619Y-147804190D01*
X159393142Y-147756571D01*
X159297904Y-147708952D01*
X159250285Y-147661333D01*
X159202666Y-147566095D01*
X159202666Y-147470857D01*
X159250285Y-147375619D01*
X159297904Y-147328000D01*
X159393142Y-147280380D01*
X159631238Y-147280380D01*
X159774095Y-147328000D01*
X160107428Y-147280380D02*
X160345523Y-148280380D01*
X160536000Y-147566095D01*
X160726476Y-148280380D01*
X160964571Y-147280380D01*
X161345523Y-148280380D02*
X161345523Y-147280380D01*
X161583619Y-147280380D01*
X161726476Y-147328000D01*
X161821714Y-147423238D01*
X161869333Y-147518476D01*
X161916952Y-147708952D01*
X161916952Y-147851809D01*
X161869333Y-148042285D01*
X161821714Y-148137523D01*
X161726476Y-148232761D01*
X161583619Y-148280380D01*
X161345523Y-148280380D01*
X162393142Y-148280380D02*
X162583619Y-148280380D01*
X162678857Y-148232761D01*
X162726476Y-148185142D01*
X162821714Y-148042285D01*
X162869333Y-147851809D01*
X162869333Y-147470857D01*
X162821714Y-147375619D01*
X162774095Y-147328000D01*
X162678857Y-147280380D01*
X162488380Y-147280380D01*
X162393142Y-147328000D01*
X162345523Y-147375619D01*
X162297904Y-147470857D01*
X162297904Y-147708952D01*
X162345523Y-147804190D01*
X162393142Y-147851809D01*
X162488380Y-147899428D01*
X162678857Y-147899428D01*
X162774095Y-147851809D01*
X162821714Y-147804190D01*
X162869333Y-147708952D01*
%TO.C,SWD7*%
X140406666Y-148232761D02*
X140549523Y-148280380D01*
X140787619Y-148280380D01*
X140882857Y-148232761D01*
X140930476Y-148185142D01*
X140978095Y-148089904D01*
X140978095Y-147994666D01*
X140930476Y-147899428D01*
X140882857Y-147851809D01*
X140787619Y-147804190D01*
X140597142Y-147756571D01*
X140501904Y-147708952D01*
X140454285Y-147661333D01*
X140406666Y-147566095D01*
X140406666Y-147470857D01*
X140454285Y-147375619D01*
X140501904Y-147328000D01*
X140597142Y-147280380D01*
X140835238Y-147280380D01*
X140978095Y-147328000D01*
X141311428Y-147280380D02*
X141549523Y-148280380D01*
X141740000Y-147566095D01*
X141930476Y-148280380D01*
X142168571Y-147280380D01*
X142549523Y-148280380D02*
X142549523Y-147280380D01*
X142787619Y-147280380D01*
X142930476Y-147328000D01*
X143025714Y-147423238D01*
X143073333Y-147518476D01*
X143120952Y-147708952D01*
X143120952Y-147851809D01*
X143073333Y-148042285D01*
X143025714Y-148137523D01*
X142930476Y-148232761D01*
X142787619Y-148280380D01*
X142549523Y-148280380D01*
X143454285Y-147280380D02*
X144120952Y-147280380D01*
X143692380Y-148280380D01*
%TO.C,SWD8*%
X159075666Y-163980761D02*
X159218523Y-164028380D01*
X159456619Y-164028380D01*
X159551857Y-163980761D01*
X159599476Y-163933142D01*
X159647095Y-163837904D01*
X159647095Y-163742666D01*
X159599476Y-163647428D01*
X159551857Y-163599809D01*
X159456619Y-163552190D01*
X159266142Y-163504571D01*
X159170904Y-163456952D01*
X159123285Y-163409333D01*
X159075666Y-163314095D01*
X159075666Y-163218857D01*
X159123285Y-163123619D01*
X159170904Y-163076000D01*
X159266142Y-163028380D01*
X159504238Y-163028380D01*
X159647095Y-163076000D01*
X159980428Y-163028380D02*
X160218523Y-164028380D01*
X160409000Y-163314095D01*
X160599476Y-164028380D01*
X160837571Y-163028380D01*
X161218523Y-164028380D02*
X161218523Y-163028380D01*
X161456619Y-163028380D01*
X161599476Y-163076000D01*
X161694714Y-163171238D01*
X161742333Y-163266476D01*
X161789952Y-163456952D01*
X161789952Y-163599809D01*
X161742333Y-163790285D01*
X161694714Y-163885523D01*
X161599476Y-163980761D01*
X161456619Y-164028380D01*
X161218523Y-164028380D01*
X162361380Y-163456952D02*
X162266142Y-163409333D01*
X162218523Y-163361714D01*
X162170904Y-163266476D01*
X162170904Y-163218857D01*
X162218523Y-163123619D01*
X162266142Y-163076000D01*
X162361380Y-163028380D01*
X162551857Y-163028380D01*
X162647095Y-163076000D01*
X162694714Y-163123619D01*
X162742333Y-163218857D01*
X162742333Y-163266476D01*
X162694714Y-163361714D01*
X162647095Y-163409333D01*
X162551857Y-163456952D01*
X162361380Y-163456952D01*
X162266142Y-163504571D01*
X162218523Y-163552190D01*
X162170904Y-163647428D01*
X162170904Y-163837904D01*
X162218523Y-163933142D01*
X162266142Y-163980761D01*
X162361380Y-164028380D01*
X162551857Y-164028380D01*
X162647095Y-163980761D01*
X162694714Y-163933142D01*
X162742333Y-163837904D01*
X162742333Y-163647428D01*
X162694714Y-163552190D01*
X162647095Y-163504571D01*
X162551857Y-163456952D01*
%TO.C,SWD5*%
X161361666Y-129182761D02*
X161504523Y-129230380D01*
X161742619Y-129230380D01*
X161837857Y-129182761D01*
X161885476Y-129135142D01*
X161933095Y-129039904D01*
X161933095Y-128944666D01*
X161885476Y-128849428D01*
X161837857Y-128801809D01*
X161742619Y-128754190D01*
X161552142Y-128706571D01*
X161456904Y-128658952D01*
X161409285Y-128611333D01*
X161361666Y-128516095D01*
X161361666Y-128420857D01*
X161409285Y-128325619D01*
X161456904Y-128278000D01*
X161552142Y-128230380D01*
X161790238Y-128230380D01*
X161933095Y-128278000D01*
X162266428Y-128230380D02*
X162504523Y-129230380D01*
X162695000Y-128516095D01*
X162885476Y-129230380D01*
X163123571Y-128230380D01*
X163504523Y-129230380D02*
X163504523Y-128230380D01*
X163742619Y-128230380D01*
X163885476Y-128278000D01*
X163980714Y-128373238D01*
X164028333Y-128468476D01*
X164075952Y-128658952D01*
X164075952Y-128801809D01*
X164028333Y-128992285D01*
X163980714Y-129087523D01*
X163885476Y-129182761D01*
X163742619Y-129230380D01*
X163504523Y-129230380D01*
X164980714Y-128230380D02*
X164504523Y-128230380D01*
X164456904Y-128706571D01*
X164504523Y-128658952D01*
X164599761Y-128611333D01*
X164837857Y-128611333D01*
X164933095Y-128658952D01*
X164980714Y-128706571D01*
X165028333Y-128801809D01*
X165028333Y-129039904D01*
X164980714Y-129135142D01*
X164933095Y-129182761D01*
X164837857Y-129230380D01*
X164599761Y-129230380D01*
X164504523Y-129182761D01*
X164456904Y-129135142D01*
%TO.C,SWC6*%
X130500666Y-91082761D02*
X130643523Y-91130380D01*
X130881619Y-91130380D01*
X130976857Y-91082761D01*
X131024476Y-91035142D01*
X131072095Y-90939904D01*
X131072095Y-90844666D01*
X131024476Y-90749428D01*
X130976857Y-90701809D01*
X130881619Y-90654190D01*
X130691142Y-90606571D01*
X130595904Y-90558952D01*
X130548285Y-90511333D01*
X130500666Y-90416095D01*
X130500666Y-90320857D01*
X130548285Y-90225619D01*
X130595904Y-90178000D01*
X130691142Y-90130380D01*
X130929238Y-90130380D01*
X131072095Y-90178000D01*
X131405428Y-90130380D02*
X131643523Y-91130380D01*
X131834000Y-90416095D01*
X132024476Y-91130380D01*
X132262571Y-90130380D01*
X133214952Y-91035142D02*
X133167333Y-91082761D01*
X133024476Y-91130380D01*
X132929238Y-91130380D01*
X132786380Y-91082761D01*
X132691142Y-90987523D01*
X132643523Y-90892285D01*
X132595904Y-90701809D01*
X132595904Y-90558952D01*
X132643523Y-90368476D01*
X132691142Y-90273238D01*
X132786380Y-90178000D01*
X132929238Y-90130380D01*
X133024476Y-90130380D01*
X133167333Y-90178000D01*
X133214952Y-90225619D01*
X134072095Y-90130380D02*
X133881619Y-90130380D01*
X133786380Y-90178000D01*
X133738761Y-90225619D01*
X133643523Y-90368476D01*
X133595904Y-90558952D01*
X133595904Y-90939904D01*
X133643523Y-91035142D01*
X133691142Y-91082761D01*
X133786380Y-91130380D01*
X133976857Y-91130380D01*
X134072095Y-91082761D01*
X134119714Y-91035142D01*
X134167333Y-90939904D01*
X134167333Y-90701809D01*
X134119714Y-90606571D01*
X134072095Y-90558952D01*
X133976857Y-90511333D01*
X133786380Y-90511333D01*
X133691142Y-90558952D01*
X133643523Y-90606571D01*
X133595904Y-90701809D01*
%TO.C,SWJ5*%
X306768714Y-129182761D02*
X306911571Y-129230380D01*
X307149666Y-129230380D01*
X307244904Y-129182761D01*
X307292523Y-129135142D01*
X307340142Y-129039904D01*
X307340142Y-128944666D01*
X307292523Y-128849428D01*
X307244904Y-128801809D01*
X307149666Y-128754190D01*
X306959190Y-128706571D01*
X306863952Y-128658952D01*
X306816333Y-128611333D01*
X306768714Y-128516095D01*
X306768714Y-128420857D01*
X306816333Y-128325619D01*
X306863952Y-128278000D01*
X306959190Y-128230380D01*
X307197285Y-128230380D01*
X307340142Y-128278000D01*
X307673476Y-128230380D02*
X307911571Y-129230380D01*
X308102047Y-128516095D01*
X308292523Y-129230380D01*
X308530619Y-128230380D01*
X309197285Y-128230380D02*
X309197285Y-128944666D01*
X309149666Y-129087523D01*
X309054428Y-129182761D01*
X308911571Y-129230380D01*
X308816333Y-129230380D01*
X310149666Y-128230380D02*
X309673476Y-128230380D01*
X309625857Y-128706571D01*
X309673476Y-128658952D01*
X309768714Y-128611333D01*
X310006809Y-128611333D01*
X310102047Y-128658952D01*
X310149666Y-128706571D01*
X310197285Y-128801809D01*
X310197285Y-129039904D01*
X310149666Y-129135142D01*
X310102047Y-129182761D01*
X310006809Y-129230380D01*
X309768714Y-129230380D01*
X309673476Y-129182761D01*
X309625857Y-129135142D01*
%TO.C,SWE3*%
X163949285Y-72032761D02*
X164092142Y-72080380D01*
X164330238Y-72080380D01*
X164425476Y-72032761D01*
X164473095Y-71985142D01*
X164520714Y-71889904D01*
X164520714Y-71794666D01*
X164473095Y-71699428D01*
X164425476Y-71651809D01*
X164330238Y-71604190D01*
X164139761Y-71556571D01*
X164044523Y-71508952D01*
X163996904Y-71461333D01*
X163949285Y-71366095D01*
X163949285Y-71270857D01*
X163996904Y-71175619D01*
X164044523Y-71128000D01*
X164139761Y-71080380D01*
X164377857Y-71080380D01*
X164520714Y-71128000D01*
X164854047Y-71080380D02*
X165092142Y-72080380D01*
X165282619Y-71366095D01*
X165473095Y-72080380D01*
X165711190Y-71080380D01*
X166092142Y-71556571D02*
X166425476Y-71556571D01*
X166568333Y-72080380D02*
X166092142Y-72080380D01*
X166092142Y-71080380D01*
X166568333Y-71080380D01*
X166901666Y-71080380D02*
X167520714Y-71080380D01*
X167187380Y-71461333D01*
X167330238Y-71461333D01*
X167425476Y-71508952D01*
X167473095Y-71556571D01*
X167520714Y-71651809D01*
X167520714Y-71889904D01*
X167473095Y-71985142D01*
X167425476Y-72032761D01*
X167330238Y-72080380D01*
X167044523Y-72080380D01*
X166949285Y-72032761D01*
X166901666Y-71985142D01*
%TO.C,SWH3*%
X294814857Y-91082761D02*
X294957714Y-91130380D01*
X295195809Y-91130380D01*
X295291047Y-91082761D01*
X295338666Y-91035142D01*
X295386285Y-90939904D01*
X295386285Y-90844666D01*
X295338666Y-90749428D01*
X295291047Y-90701809D01*
X295195809Y-90654190D01*
X295005333Y-90606571D01*
X294910095Y-90558952D01*
X294862476Y-90511333D01*
X294814857Y-90416095D01*
X294814857Y-90320857D01*
X294862476Y-90225619D01*
X294910095Y-90178000D01*
X295005333Y-90130380D01*
X295243428Y-90130380D01*
X295386285Y-90178000D01*
X295719619Y-90130380D02*
X295957714Y-91130380D01*
X296148190Y-90416095D01*
X296338666Y-91130380D01*
X296576761Y-90130380D01*
X296957714Y-91130380D02*
X296957714Y-90130380D01*
X296957714Y-90606571D02*
X297529142Y-90606571D01*
X297529142Y-91130380D02*
X297529142Y-90130380D01*
X297910095Y-90130380D02*
X298529142Y-90130380D01*
X298195809Y-90511333D01*
X298338666Y-90511333D01*
X298433904Y-90558952D01*
X298481523Y-90606571D01*
X298529142Y-90701809D01*
X298529142Y-90939904D01*
X298481523Y-91035142D01*
X298433904Y-91082761D01*
X298338666Y-91130380D01*
X298052952Y-91130380D01*
X297957714Y-91082761D01*
X297910095Y-91035142D01*
%TO.C,SWA8*%
X90059095Y-129182761D02*
X90201952Y-129230380D01*
X90440047Y-129230380D01*
X90535285Y-129182761D01*
X90582904Y-129135142D01*
X90630523Y-129039904D01*
X90630523Y-128944666D01*
X90582904Y-128849428D01*
X90535285Y-128801809D01*
X90440047Y-128754190D01*
X90249571Y-128706571D01*
X90154333Y-128658952D01*
X90106714Y-128611333D01*
X90059095Y-128516095D01*
X90059095Y-128420857D01*
X90106714Y-128325619D01*
X90154333Y-128278000D01*
X90249571Y-128230380D01*
X90487666Y-128230380D01*
X90630523Y-128278000D01*
X90963857Y-128230380D02*
X91201952Y-129230380D01*
X91392428Y-128516095D01*
X91582904Y-129230380D01*
X91821000Y-128230380D01*
X92154333Y-128944666D02*
X92630523Y-128944666D01*
X92059095Y-129230380D02*
X92392428Y-128230380D01*
X92725761Y-129230380D01*
X93201952Y-128658952D02*
X93106714Y-128611333D01*
X93059095Y-128563714D01*
X93011476Y-128468476D01*
X93011476Y-128420857D01*
X93059095Y-128325619D01*
X93106714Y-128278000D01*
X93201952Y-128230380D01*
X93392428Y-128230380D01*
X93487666Y-128278000D01*
X93535285Y-128325619D01*
X93582904Y-128420857D01*
X93582904Y-128468476D01*
X93535285Y-128563714D01*
X93487666Y-128611333D01*
X93392428Y-128658952D01*
X93201952Y-128658952D01*
X93106714Y-128706571D01*
X93059095Y-128754190D01*
X93011476Y-128849428D01*
X93011476Y-129039904D01*
X93059095Y-129135142D01*
X93106714Y-129182761D01*
X93201952Y-129230380D01*
X93392428Y-129230380D01*
X93487666Y-129182761D01*
X93535285Y-129135142D01*
X93582904Y-129039904D01*
X93582904Y-128849428D01*
X93535285Y-128754190D01*
X93487666Y-128706571D01*
X93392428Y-128658952D01*
%TO.C,SWH6*%
X256651357Y-129182761D02*
X256794214Y-129230380D01*
X257032309Y-129230380D01*
X257127547Y-129182761D01*
X257175166Y-129135142D01*
X257222785Y-129039904D01*
X257222785Y-128944666D01*
X257175166Y-128849428D01*
X257127547Y-128801809D01*
X257032309Y-128754190D01*
X256841833Y-128706571D01*
X256746595Y-128658952D01*
X256698976Y-128611333D01*
X256651357Y-128516095D01*
X256651357Y-128420857D01*
X256698976Y-128325619D01*
X256746595Y-128278000D01*
X256841833Y-128230380D01*
X257079928Y-128230380D01*
X257222785Y-128278000D01*
X257556119Y-128230380D02*
X257794214Y-129230380D01*
X257984690Y-128516095D01*
X258175166Y-129230380D01*
X258413261Y-128230380D01*
X258794214Y-129230380D02*
X258794214Y-128230380D01*
X258794214Y-128706571D02*
X259365642Y-128706571D01*
X259365642Y-129230380D02*
X259365642Y-128230380D01*
X260270404Y-128230380D02*
X260079928Y-128230380D01*
X259984690Y-128278000D01*
X259937071Y-128325619D01*
X259841833Y-128468476D01*
X259794214Y-128658952D01*
X259794214Y-129039904D01*
X259841833Y-129135142D01*
X259889452Y-129182761D01*
X259984690Y-129230380D01*
X260175166Y-129230380D01*
X260270404Y-129182761D01*
X260318023Y-129135142D01*
X260365642Y-129039904D01*
X260365642Y-128801809D01*
X260318023Y-128706571D01*
X260270404Y-128658952D01*
X260175166Y-128611333D01*
X259984690Y-128611333D01*
X259889452Y-128658952D01*
X259841833Y-128706571D01*
X259794214Y-128801809D01*
%TO.C,SWB7*%
X82875666Y-110132761D02*
X83018523Y-110180380D01*
X83256619Y-110180380D01*
X83351857Y-110132761D01*
X83399476Y-110085142D01*
X83447095Y-109989904D01*
X83447095Y-109894666D01*
X83399476Y-109799428D01*
X83351857Y-109751809D01*
X83256619Y-109704190D01*
X83066142Y-109656571D01*
X82970904Y-109608952D01*
X82923285Y-109561333D01*
X82875666Y-109466095D01*
X82875666Y-109370857D01*
X82923285Y-109275619D01*
X82970904Y-109228000D01*
X83066142Y-109180380D01*
X83304238Y-109180380D01*
X83447095Y-109228000D01*
X83780428Y-109180380D02*
X84018523Y-110180380D01*
X84209000Y-109466095D01*
X84399476Y-110180380D01*
X84637571Y-109180380D01*
X85351857Y-109656571D02*
X85494714Y-109704190D01*
X85542333Y-109751809D01*
X85589952Y-109847047D01*
X85589952Y-109989904D01*
X85542333Y-110085142D01*
X85494714Y-110132761D01*
X85399476Y-110180380D01*
X85018523Y-110180380D01*
X85018523Y-109180380D01*
X85351857Y-109180380D01*
X85447095Y-109228000D01*
X85494714Y-109275619D01*
X85542333Y-109370857D01*
X85542333Y-109466095D01*
X85494714Y-109561333D01*
X85447095Y-109608952D01*
X85351857Y-109656571D01*
X85018523Y-109656571D01*
X85923285Y-109180380D02*
X86589952Y-109180380D01*
X86161380Y-110180380D01*
%TO.C,SWA4*%
X47260095Y-91082761D02*
X47402952Y-91130380D01*
X47641047Y-91130380D01*
X47736285Y-91082761D01*
X47783904Y-91035142D01*
X47831523Y-90939904D01*
X47831523Y-90844666D01*
X47783904Y-90749428D01*
X47736285Y-90701809D01*
X47641047Y-90654190D01*
X47450571Y-90606571D01*
X47355333Y-90558952D01*
X47307714Y-90511333D01*
X47260095Y-90416095D01*
X47260095Y-90320857D01*
X47307714Y-90225619D01*
X47355333Y-90178000D01*
X47450571Y-90130380D01*
X47688666Y-90130380D01*
X47831523Y-90178000D01*
X48164857Y-90130380D02*
X48402952Y-91130380D01*
X48593428Y-90416095D01*
X48783904Y-91130380D01*
X49022000Y-90130380D01*
X49355333Y-90844666D02*
X49831523Y-90844666D01*
X49260095Y-91130380D02*
X49593428Y-90130380D01*
X49926761Y-91130380D01*
X50688666Y-90463714D02*
X50688666Y-91130380D01*
X50450571Y-90082761D02*
X50212476Y-90797047D01*
X50831523Y-90797047D01*
%TO.C,SWD10*%
X177649476Y-163980761D02*
X177792333Y-164028380D01*
X178030428Y-164028380D01*
X178125666Y-163980761D01*
X178173285Y-163933142D01*
X178220904Y-163837904D01*
X178220904Y-163742666D01*
X178173285Y-163647428D01*
X178125666Y-163599809D01*
X178030428Y-163552190D01*
X177839952Y-163504571D01*
X177744714Y-163456952D01*
X177697095Y-163409333D01*
X177649476Y-163314095D01*
X177649476Y-163218857D01*
X177697095Y-163123619D01*
X177744714Y-163076000D01*
X177839952Y-163028380D01*
X178078047Y-163028380D01*
X178220904Y-163076000D01*
X178554238Y-163028380D02*
X178792333Y-164028380D01*
X178982809Y-163314095D01*
X179173285Y-164028380D01*
X179411380Y-163028380D01*
X179792333Y-164028380D02*
X179792333Y-163028380D01*
X180030428Y-163028380D01*
X180173285Y-163076000D01*
X180268523Y-163171238D01*
X180316142Y-163266476D01*
X180363761Y-163456952D01*
X180363761Y-163599809D01*
X180316142Y-163790285D01*
X180268523Y-163885523D01*
X180173285Y-163980761D01*
X180030428Y-164028380D01*
X179792333Y-164028380D01*
X181316142Y-164028380D02*
X180744714Y-164028380D01*
X181030428Y-164028380D02*
X181030428Y-163028380D01*
X180935190Y-163171238D01*
X180839952Y-163266476D01*
X180744714Y-163314095D01*
X181935190Y-163028380D02*
X182030428Y-163028380D01*
X182125666Y-163076000D01*
X182173285Y-163123619D01*
X182220904Y-163218857D01*
X182268523Y-163409333D01*
X182268523Y-163647428D01*
X182220904Y-163837904D01*
X182173285Y-163933142D01*
X182125666Y-163980761D01*
X182030428Y-164028380D01*
X181935190Y-164028380D01*
X181839952Y-163980761D01*
X181792333Y-163933142D01*
X181744714Y-163837904D01*
X181697095Y-163647428D01*
X181697095Y-163409333D01*
X181744714Y-163218857D01*
X181792333Y-163123619D01*
X181839952Y-163076000D01*
X181935190Y-163028380D01*
%TO.C,SWD3*%
X149550666Y-91082761D02*
X149693523Y-91130380D01*
X149931619Y-91130380D01*
X150026857Y-91082761D01*
X150074476Y-91035142D01*
X150122095Y-90939904D01*
X150122095Y-90844666D01*
X150074476Y-90749428D01*
X150026857Y-90701809D01*
X149931619Y-90654190D01*
X149741142Y-90606571D01*
X149645904Y-90558952D01*
X149598285Y-90511333D01*
X149550666Y-90416095D01*
X149550666Y-90320857D01*
X149598285Y-90225619D01*
X149645904Y-90178000D01*
X149741142Y-90130380D01*
X149979238Y-90130380D01*
X150122095Y-90178000D01*
X150455428Y-90130380D02*
X150693523Y-91130380D01*
X150884000Y-90416095D01*
X151074476Y-91130380D01*
X151312571Y-90130380D01*
X151693523Y-91130380D02*
X151693523Y-90130380D01*
X151931619Y-90130380D01*
X152074476Y-90178000D01*
X152169714Y-90273238D01*
X152217333Y-90368476D01*
X152264952Y-90558952D01*
X152264952Y-90701809D01*
X152217333Y-90892285D01*
X152169714Y-90987523D01*
X152074476Y-91082761D01*
X151931619Y-91130380D01*
X151693523Y-91130380D01*
X152598285Y-90130380D02*
X153217333Y-90130380D01*
X152884000Y-90511333D01*
X153026857Y-90511333D01*
X153122095Y-90558952D01*
X153169714Y-90606571D01*
X153217333Y-90701809D01*
X153217333Y-90939904D01*
X153169714Y-91035142D01*
X153122095Y-91082761D01*
X153026857Y-91130380D01*
X152741142Y-91130380D01*
X152645904Y-91082761D01*
X152598285Y-91035142D01*
%TO.C,SWC4*%
X125801666Y-72032761D02*
X125944523Y-72080380D01*
X126182619Y-72080380D01*
X126277857Y-72032761D01*
X126325476Y-71985142D01*
X126373095Y-71889904D01*
X126373095Y-71794666D01*
X126325476Y-71699428D01*
X126277857Y-71651809D01*
X126182619Y-71604190D01*
X125992142Y-71556571D01*
X125896904Y-71508952D01*
X125849285Y-71461333D01*
X125801666Y-71366095D01*
X125801666Y-71270857D01*
X125849285Y-71175619D01*
X125896904Y-71128000D01*
X125992142Y-71080380D01*
X126230238Y-71080380D01*
X126373095Y-71128000D01*
X126706428Y-71080380D02*
X126944523Y-72080380D01*
X127135000Y-71366095D01*
X127325476Y-72080380D01*
X127563571Y-71080380D01*
X128515952Y-71985142D02*
X128468333Y-72032761D01*
X128325476Y-72080380D01*
X128230238Y-72080380D01*
X128087380Y-72032761D01*
X127992142Y-71937523D01*
X127944523Y-71842285D01*
X127896904Y-71651809D01*
X127896904Y-71508952D01*
X127944523Y-71318476D01*
X127992142Y-71223238D01*
X128087380Y-71128000D01*
X128230238Y-71080380D01*
X128325476Y-71080380D01*
X128468333Y-71128000D01*
X128515952Y-71175619D01*
X129373095Y-71413714D02*
X129373095Y-72080380D01*
X129135000Y-71032761D02*
X128896904Y-71747047D01*
X129515952Y-71747047D01*
%TO.C,SWD2*%
X144851666Y-72032761D02*
X144994523Y-72080380D01*
X145232619Y-72080380D01*
X145327857Y-72032761D01*
X145375476Y-71985142D01*
X145423095Y-71889904D01*
X145423095Y-71794666D01*
X145375476Y-71699428D01*
X145327857Y-71651809D01*
X145232619Y-71604190D01*
X145042142Y-71556571D01*
X144946904Y-71508952D01*
X144899285Y-71461333D01*
X144851666Y-71366095D01*
X144851666Y-71270857D01*
X144899285Y-71175619D01*
X144946904Y-71128000D01*
X145042142Y-71080380D01*
X145280238Y-71080380D01*
X145423095Y-71128000D01*
X145756428Y-71080380D02*
X145994523Y-72080380D01*
X146185000Y-71366095D01*
X146375476Y-72080380D01*
X146613571Y-71080380D01*
X146994523Y-72080380D02*
X146994523Y-71080380D01*
X147232619Y-71080380D01*
X147375476Y-71128000D01*
X147470714Y-71223238D01*
X147518333Y-71318476D01*
X147565952Y-71508952D01*
X147565952Y-71651809D01*
X147518333Y-71842285D01*
X147470714Y-71937523D01*
X147375476Y-72032761D01*
X147232619Y-72080380D01*
X146994523Y-72080380D01*
X147946904Y-71175619D02*
X147994523Y-71128000D01*
X148089761Y-71080380D01*
X148327857Y-71080380D01*
X148423095Y-71128000D01*
X148470714Y-71175619D01*
X148518333Y-71270857D01*
X148518333Y-71366095D01*
X148470714Y-71508952D01*
X147899285Y-72080380D01*
X148518333Y-72080380D01*
%TO.C,SWH2*%
X302053857Y-72032761D02*
X302196714Y-72080380D01*
X302434809Y-72080380D01*
X302530047Y-72032761D01*
X302577666Y-71985142D01*
X302625285Y-71889904D01*
X302625285Y-71794666D01*
X302577666Y-71699428D01*
X302530047Y-71651809D01*
X302434809Y-71604190D01*
X302244333Y-71556571D01*
X302149095Y-71508952D01*
X302101476Y-71461333D01*
X302053857Y-71366095D01*
X302053857Y-71270857D01*
X302101476Y-71175619D01*
X302149095Y-71128000D01*
X302244333Y-71080380D01*
X302482428Y-71080380D01*
X302625285Y-71128000D01*
X302958619Y-71080380D02*
X303196714Y-72080380D01*
X303387190Y-71366095D01*
X303577666Y-72080380D01*
X303815761Y-71080380D01*
X304196714Y-72080380D02*
X304196714Y-71080380D01*
X304196714Y-71556571D02*
X304768142Y-71556571D01*
X304768142Y-72080380D02*
X304768142Y-71080380D01*
X305196714Y-71175619D02*
X305244333Y-71128000D01*
X305339571Y-71080380D01*
X305577666Y-71080380D01*
X305672904Y-71128000D01*
X305720523Y-71175619D01*
X305768142Y-71270857D01*
X305768142Y-71366095D01*
X305720523Y-71508952D01*
X305149095Y-72080380D01*
X305768142Y-72080380D01*
%TO.C,SWD6*%
X139898666Y-163980761D02*
X140041523Y-164028380D01*
X140279619Y-164028380D01*
X140374857Y-163980761D01*
X140422476Y-163933142D01*
X140470095Y-163837904D01*
X140470095Y-163742666D01*
X140422476Y-163647428D01*
X140374857Y-163599809D01*
X140279619Y-163552190D01*
X140089142Y-163504571D01*
X139993904Y-163456952D01*
X139946285Y-163409333D01*
X139898666Y-163314095D01*
X139898666Y-163218857D01*
X139946285Y-163123619D01*
X139993904Y-163076000D01*
X140089142Y-163028380D01*
X140327238Y-163028380D01*
X140470095Y-163076000D01*
X140803428Y-163028380D02*
X141041523Y-164028380D01*
X141232000Y-163314095D01*
X141422476Y-164028380D01*
X141660571Y-163028380D01*
X142041523Y-164028380D02*
X142041523Y-163028380D01*
X142279619Y-163028380D01*
X142422476Y-163076000D01*
X142517714Y-163171238D01*
X142565333Y-163266476D01*
X142612952Y-163456952D01*
X142612952Y-163599809D01*
X142565333Y-163790285D01*
X142517714Y-163885523D01*
X142422476Y-163980761D01*
X142279619Y-164028380D01*
X142041523Y-164028380D01*
X143470095Y-163028380D02*
X143279619Y-163028380D01*
X143184380Y-163076000D01*
X143136761Y-163123619D01*
X143041523Y-163266476D01*
X142993904Y-163456952D01*
X142993904Y-163837904D01*
X143041523Y-163933142D01*
X143089142Y-163980761D01*
X143184380Y-164028380D01*
X143374857Y-164028380D01*
X143470095Y-163980761D01*
X143517714Y-163933142D01*
X143565333Y-163837904D01*
X143565333Y-163599809D01*
X143517714Y-163504571D01*
X143470095Y-163456952D01*
X143374857Y-163409333D01*
X143184380Y-163409333D01*
X143089142Y-163456952D01*
X143041523Y-163504571D01*
X142993904Y-163599809D01*
%TO.C,SWG3*%
X240101666Y-72032761D02*
X240244523Y-72080380D01*
X240482619Y-72080380D01*
X240577857Y-72032761D01*
X240625476Y-71985142D01*
X240673095Y-71889904D01*
X240673095Y-71794666D01*
X240625476Y-71699428D01*
X240577857Y-71651809D01*
X240482619Y-71604190D01*
X240292142Y-71556571D01*
X240196904Y-71508952D01*
X240149285Y-71461333D01*
X240101666Y-71366095D01*
X240101666Y-71270857D01*
X240149285Y-71175619D01*
X240196904Y-71128000D01*
X240292142Y-71080380D01*
X240530238Y-71080380D01*
X240673095Y-71128000D01*
X241006428Y-71080380D02*
X241244523Y-72080380D01*
X241435000Y-71366095D01*
X241625476Y-72080380D01*
X241863571Y-71080380D01*
X242768333Y-71128000D02*
X242673095Y-71080380D01*
X242530238Y-71080380D01*
X242387380Y-71128000D01*
X242292142Y-71223238D01*
X242244523Y-71318476D01*
X242196904Y-71508952D01*
X242196904Y-71651809D01*
X242244523Y-71842285D01*
X242292142Y-71937523D01*
X242387380Y-72032761D01*
X242530238Y-72080380D01*
X242625476Y-72080380D01*
X242768333Y-72032761D01*
X242815952Y-71985142D01*
X242815952Y-71651809D01*
X242625476Y-71651809D01*
X243149285Y-71080380D02*
X243768333Y-71080380D01*
X243435000Y-71461333D01*
X243577857Y-71461333D01*
X243673095Y-71508952D01*
X243720714Y-71556571D01*
X243768333Y-71651809D01*
X243768333Y-71889904D01*
X243720714Y-71985142D01*
X243673095Y-72032761D01*
X243577857Y-72080380D01*
X243292142Y-72080380D01*
X243196904Y-72032761D01*
X243149285Y-71985142D01*
%TO.C,SWH1*%
X297227857Y-52982761D02*
X297370714Y-53030380D01*
X297608809Y-53030380D01*
X297704047Y-52982761D01*
X297751666Y-52935142D01*
X297799285Y-52839904D01*
X297799285Y-52744666D01*
X297751666Y-52649428D01*
X297704047Y-52601809D01*
X297608809Y-52554190D01*
X297418333Y-52506571D01*
X297323095Y-52458952D01*
X297275476Y-52411333D01*
X297227857Y-52316095D01*
X297227857Y-52220857D01*
X297275476Y-52125619D01*
X297323095Y-52078000D01*
X297418333Y-52030380D01*
X297656428Y-52030380D01*
X297799285Y-52078000D01*
X298132619Y-52030380D02*
X298370714Y-53030380D01*
X298561190Y-52316095D01*
X298751666Y-53030380D01*
X298989761Y-52030380D01*
X299370714Y-53030380D02*
X299370714Y-52030380D01*
X299370714Y-52506571D02*
X299942142Y-52506571D01*
X299942142Y-53030380D02*
X299942142Y-52030380D01*
X300942142Y-53030380D02*
X300370714Y-53030380D01*
X300656428Y-53030380D02*
X300656428Y-52030380D01*
X300561190Y-52173238D01*
X300465952Y-52268476D01*
X300370714Y-52316095D01*
%TO.C,SWF5*%
X206772095Y-91082761D02*
X206914952Y-91130380D01*
X207153047Y-91130380D01*
X207248285Y-91082761D01*
X207295904Y-91035142D01*
X207343523Y-90939904D01*
X207343523Y-90844666D01*
X207295904Y-90749428D01*
X207248285Y-90701809D01*
X207153047Y-90654190D01*
X206962571Y-90606571D01*
X206867333Y-90558952D01*
X206819714Y-90511333D01*
X206772095Y-90416095D01*
X206772095Y-90320857D01*
X206819714Y-90225619D01*
X206867333Y-90178000D01*
X206962571Y-90130380D01*
X207200666Y-90130380D01*
X207343523Y-90178000D01*
X207676857Y-90130380D02*
X207914952Y-91130380D01*
X208105428Y-90416095D01*
X208295904Y-91130380D01*
X208534000Y-90130380D01*
X209248285Y-90606571D02*
X208914952Y-90606571D01*
X208914952Y-91130380D02*
X208914952Y-90130380D01*
X209391142Y-90130380D01*
X210248285Y-90130380D02*
X209772095Y-90130380D01*
X209724476Y-90606571D01*
X209772095Y-90558952D01*
X209867333Y-90511333D01*
X210105428Y-90511333D01*
X210200666Y-90558952D01*
X210248285Y-90606571D01*
X210295904Y-90701809D01*
X210295904Y-90939904D01*
X210248285Y-91035142D01*
X210200666Y-91082761D01*
X210105428Y-91130380D01*
X209867333Y-91130380D01*
X209772095Y-91082761D01*
X209724476Y-91035142D01*
%TO.C,SWF8*%
X235347095Y-110132761D02*
X235489952Y-110180380D01*
X235728047Y-110180380D01*
X235823285Y-110132761D01*
X235870904Y-110085142D01*
X235918523Y-109989904D01*
X235918523Y-109894666D01*
X235870904Y-109799428D01*
X235823285Y-109751809D01*
X235728047Y-109704190D01*
X235537571Y-109656571D01*
X235442333Y-109608952D01*
X235394714Y-109561333D01*
X235347095Y-109466095D01*
X235347095Y-109370857D01*
X235394714Y-109275619D01*
X235442333Y-109228000D01*
X235537571Y-109180380D01*
X235775666Y-109180380D01*
X235918523Y-109228000D01*
X236251857Y-109180380D02*
X236489952Y-110180380D01*
X236680428Y-109466095D01*
X236870904Y-110180380D01*
X237109000Y-109180380D01*
X237823285Y-109656571D02*
X237489952Y-109656571D01*
X237489952Y-110180380D02*
X237489952Y-109180380D01*
X237966142Y-109180380D01*
X238489952Y-109608952D02*
X238394714Y-109561333D01*
X238347095Y-109513714D01*
X238299476Y-109418476D01*
X238299476Y-109370857D01*
X238347095Y-109275619D01*
X238394714Y-109228000D01*
X238489952Y-109180380D01*
X238680428Y-109180380D01*
X238775666Y-109228000D01*
X238823285Y-109275619D01*
X238870904Y-109370857D01*
X238870904Y-109418476D01*
X238823285Y-109513714D01*
X238775666Y-109561333D01*
X238680428Y-109608952D01*
X238489952Y-109608952D01*
X238394714Y-109656571D01*
X238347095Y-109704190D01*
X238299476Y-109799428D01*
X238299476Y-109989904D01*
X238347095Y-110085142D01*
X238394714Y-110132761D01*
X238489952Y-110180380D01*
X238680428Y-110180380D01*
X238775666Y-110132761D01*
X238823285Y-110085142D01*
X238870904Y-109989904D01*
X238870904Y-109799428D01*
X238823285Y-109704190D01*
X238775666Y-109656571D01*
X238680428Y-109608952D01*
%TO.C,SWD1*%
X154376666Y-52982761D02*
X154519523Y-53030380D01*
X154757619Y-53030380D01*
X154852857Y-52982761D01*
X154900476Y-52935142D01*
X154948095Y-52839904D01*
X154948095Y-52744666D01*
X154900476Y-52649428D01*
X154852857Y-52601809D01*
X154757619Y-52554190D01*
X154567142Y-52506571D01*
X154471904Y-52458952D01*
X154424285Y-52411333D01*
X154376666Y-52316095D01*
X154376666Y-52220857D01*
X154424285Y-52125619D01*
X154471904Y-52078000D01*
X154567142Y-52030380D01*
X154805238Y-52030380D01*
X154948095Y-52078000D01*
X155281428Y-52030380D02*
X155519523Y-53030380D01*
X155710000Y-52316095D01*
X155900476Y-53030380D01*
X156138571Y-52030380D01*
X156519523Y-53030380D02*
X156519523Y-52030380D01*
X156757619Y-52030380D01*
X156900476Y-52078000D01*
X156995714Y-52173238D01*
X157043333Y-52268476D01*
X157090952Y-52458952D01*
X157090952Y-52601809D01*
X157043333Y-52792285D01*
X156995714Y-52887523D01*
X156900476Y-52982761D01*
X156757619Y-53030380D01*
X156519523Y-53030380D01*
X158043333Y-53030380D02*
X157471904Y-53030380D01*
X157757619Y-53030380D02*
X157757619Y-52030380D01*
X157662380Y-52173238D01*
X157567142Y-52268476D01*
X157471904Y-52316095D01*
%TO.C,SWG1*%
X249626666Y-52982761D02*
X249769523Y-53030380D01*
X250007619Y-53030380D01*
X250102857Y-52982761D01*
X250150476Y-52935142D01*
X250198095Y-52839904D01*
X250198095Y-52744666D01*
X250150476Y-52649428D01*
X250102857Y-52601809D01*
X250007619Y-52554190D01*
X249817142Y-52506571D01*
X249721904Y-52458952D01*
X249674285Y-52411333D01*
X249626666Y-52316095D01*
X249626666Y-52220857D01*
X249674285Y-52125619D01*
X249721904Y-52078000D01*
X249817142Y-52030380D01*
X250055238Y-52030380D01*
X250198095Y-52078000D01*
X250531428Y-52030380D02*
X250769523Y-53030380D01*
X250960000Y-52316095D01*
X251150476Y-53030380D01*
X251388571Y-52030380D01*
X252293333Y-52078000D02*
X252198095Y-52030380D01*
X252055238Y-52030380D01*
X251912380Y-52078000D01*
X251817142Y-52173238D01*
X251769523Y-52268476D01*
X251721904Y-52458952D01*
X251721904Y-52601809D01*
X251769523Y-52792285D01*
X251817142Y-52887523D01*
X251912380Y-52982761D01*
X252055238Y-53030380D01*
X252150476Y-53030380D01*
X252293333Y-52982761D01*
X252340952Y-52935142D01*
X252340952Y-52601809D01*
X252150476Y-52601809D01*
X253293333Y-53030380D02*
X252721904Y-53030380D01*
X253007619Y-53030380D02*
X253007619Y-52030380D01*
X252912380Y-52173238D01*
X252817142Y-52268476D01*
X252721904Y-52316095D01*
%TO.C,SWC1*%
X116276666Y-52982761D02*
X116419523Y-53030380D01*
X116657619Y-53030380D01*
X116752857Y-52982761D01*
X116800476Y-52935142D01*
X116848095Y-52839904D01*
X116848095Y-52744666D01*
X116800476Y-52649428D01*
X116752857Y-52601809D01*
X116657619Y-52554190D01*
X116467142Y-52506571D01*
X116371904Y-52458952D01*
X116324285Y-52411333D01*
X116276666Y-52316095D01*
X116276666Y-52220857D01*
X116324285Y-52125619D01*
X116371904Y-52078000D01*
X116467142Y-52030380D01*
X116705238Y-52030380D01*
X116848095Y-52078000D01*
X117181428Y-52030380D02*
X117419523Y-53030380D01*
X117610000Y-52316095D01*
X117800476Y-53030380D01*
X118038571Y-52030380D01*
X118990952Y-52935142D02*
X118943333Y-52982761D01*
X118800476Y-53030380D01*
X118705238Y-53030380D01*
X118562380Y-52982761D01*
X118467142Y-52887523D01*
X118419523Y-52792285D01*
X118371904Y-52601809D01*
X118371904Y-52458952D01*
X118419523Y-52268476D01*
X118467142Y-52173238D01*
X118562380Y-52078000D01*
X118705238Y-52030380D01*
X118800476Y-52030380D01*
X118943333Y-52078000D01*
X118990952Y-52125619D01*
X119943333Y-53030380D02*
X119371904Y-53030380D01*
X119657619Y-53030380D02*
X119657619Y-52030380D01*
X119562380Y-52173238D01*
X119467142Y-52268476D01*
X119371904Y-52316095D01*
%TO.C,SWA7*%
X66310095Y-129182761D02*
X66452952Y-129230380D01*
X66691047Y-129230380D01*
X66786285Y-129182761D01*
X66833904Y-129135142D01*
X66881523Y-129039904D01*
X66881523Y-128944666D01*
X66833904Y-128849428D01*
X66786285Y-128801809D01*
X66691047Y-128754190D01*
X66500571Y-128706571D01*
X66405333Y-128658952D01*
X66357714Y-128611333D01*
X66310095Y-128516095D01*
X66310095Y-128420857D01*
X66357714Y-128325619D01*
X66405333Y-128278000D01*
X66500571Y-128230380D01*
X66738666Y-128230380D01*
X66881523Y-128278000D01*
X67214857Y-128230380D02*
X67452952Y-129230380D01*
X67643428Y-128516095D01*
X67833904Y-129230380D01*
X68072000Y-128230380D01*
X68405333Y-128944666D02*
X68881523Y-128944666D01*
X68310095Y-129230380D02*
X68643428Y-128230380D01*
X68976761Y-129230380D01*
X69214857Y-128230380D02*
X69881523Y-128230380D01*
X69452952Y-129230380D01*
%TO.C,SWA5*%
X52022595Y-110132761D02*
X52165452Y-110180380D01*
X52403547Y-110180380D01*
X52498785Y-110132761D01*
X52546404Y-110085142D01*
X52594023Y-109989904D01*
X52594023Y-109894666D01*
X52546404Y-109799428D01*
X52498785Y-109751809D01*
X52403547Y-109704190D01*
X52213071Y-109656571D01*
X52117833Y-109608952D01*
X52070214Y-109561333D01*
X52022595Y-109466095D01*
X52022595Y-109370857D01*
X52070214Y-109275619D01*
X52117833Y-109228000D01*
X52213071Y-109180380D01*
X52451166Y-109180380D01*
X52594023Y-109228000D01*
X52927357Y-109180380D02*
X53165452Y-110180380D01*
X53355928Y-109466095D01*
X53546404Y-110180380D01*
X53784500Y-109180380D01*
X54117833Y-109894666D02*
X54594023Y-109894666D01*
X54022595Y-110180380D02*
X54355928Y-109180380D01*
X54689261Y-110180380D01*
X55498785Y-109180380D02*
X55022595Y-109180380D01*
X54974976Y-109656571D01*
X55022595Y-109608952D01*
X55117833Y-109561333D01*
X55355928Y-109561333D01*
X55451166Y-109608952D01*
X55498785Y-109656571D01*
X55546404Y-109751809D01*
X55546404Y-109989904D01*
X55498785Y-110085142D01*
X55451166Y-110132761D01*
X55355928Y-110180380D01*
X55117833Y-110180380D01*
X55022595Y-110132761D01*
X54974976Y-110085142D01*
%TO.C,SWF3*%
X202073095Y-72032761D02*
X202215952Y-72080380D01*
X202454047Y-72080380D01*
X202549285Y-72032761D01*
X202596904Y-71985142D01*
X202644523Y-71889904D01*
X202644523Y-71794666D01*
X202596904Y-71699428D01*
X202549285Y-71651809D01*
X202454047Y-71604190D01*
X202263571Y-71556571D01*
X202168333Y-71508952D01*
X202120714Y-71461333D01*
X202073095Y-71366095D01*
X202073095Y-71270857D01*
X202120714Y-71175619D01*
X202168333Y-71128000D01*
X202263571Y-71080380D01*
X202501666Y-71080380D01*
X202644523Y-71128000D01*
X202977857Y-71080380D02*
X203215952Y-72080380D01*
X203406428Y-71366095D01*
X203596904Y-72080380D01*
X203835000Y-71080380D01*
X204549285Y-71556571D02*
X204215952Y-71556571D01*
X204215952Y-72080380D02*
X204215952Y-71080380D01*
X204692142Y-71080380D01*
X204977857Y-71080380D02*
X205596904Y-71080380D01*
X205263571Y-71461333D01*
X205406428Y-71461333D01*
X205501666Y-71508952D01*
X205549285Y-71556571D01*
X205596904Y-71651809D01*
X205596904Y-71889904D01*
X205549285Y-71985142D01*
X205501666Y-72032761D01*
X205406428Y-72080380D01*
X205120714Y-72080380D01*
X205025476Y-72032761D01*
X204977857Y-71985142D01*
%TO.C,SWB2*%
X97226666Y-52982761D02*
X97369523Y-53030380D01*
X97607619Y-53030380D01*
X97702857Y-52982761D01*
X97750476Y-52935142D01*
X97798095Y-52839904D01*
X97798095Y-52744666D01*
X97750476Y-52649428D01*
X97702857Y-52601809D01*
X97607619Y-52554190D01*
X97417142Y-52506571D01*
X97321904Y-52458952D01*
X97274285Y-52411333D01*
X97226666Y-52316095D01*
X97226666Y-52220857D01*
X97274285Y-52125619D01*
X97321904Y-52078000D01*
X97417142Y-52030380D01*
X97655238Y-52030380D01*
X97798095Y-52078000D01*
X98131428Y-52030380D02*
X98369523Y-53030380D01*
X98560000Y-52316095D01*
X98750476Y-53030380D01*
X98988571Y-52030380D01*
X99702857Y-52506571D02*
X99845714Y-52554190D01*
X99893333Y-52601809D01*
X99940952Y-52697047D01*
X99940952Y-52839904D01*
X99893333Y-52935142D01*
X99845714Y-52982761D01*
X99750476Y-53030380D01*
X99369523Y-53030380D01*
X99369523Y-52030380D01*
X99702857Y-52030380D01*
X99798095Y-52078000D01*
X99845714Y-52125619D01*
X99893333Y-52220857D01*
X99893333Y-52316095D01*
X99845714Y-52411333D01*
X99798095Y-52458952D01*
X99702857Y-52506571D01*
X99369523Y-52506571D01*
X100321904Y-52125619D02*
X100369523Y-52078000D01*
X100464761Y-52030380D01*
X100702857Y-52030380D01*
X100798095Y-52078000D01*
X100845714Y-52125619D01*
X100893333Y-52220857D01*
X100893333Y-52316095D01*
X100845714Y-52458952D01*
X100274285Y-53030380D01*
X100893333Y-53030380D01*
%TO.C,SWF6*%
X225822095Y-91082761D02*
X225964952Y-91130380D01*
X226203047Y-91130380D01*
X226298285Y-91082761D01*
X226345904Y-91035142D01*
X226393523Y-90939904D01*
X226393523Y-90844666D01*
X226345904Y-90749428D01*
X226298285Y-90701809D01*
X226203047Y-90654190D01*
X226012571Y-90606571D01*
X225917333Y-90558952D01*
X225869714Y-90511333D01*
X225822095Y-90416095D01*
X225822095Y-90320857D01*
X225869714Y-90225619D01*
X225917333Y-90178000D01*
X226012571Y-90130380D01*
X226250666Y-90130380D01*
X226393523Y-90178000D01*
X226726857Y-90130380D02*
X226964952Y-91130380D01*
X227155428Y-90416095D01*
X227345904Y-91130380D01*
X227584000Y-90130380D01*
X228298285Y-90606571D02*
X227964952Y-90606571D01*
X227964952Y-91130380D02*
X227964952Y-90130380D01*
X228441142Y-90130380D01*
X229250666Y-90130380D02*
X229060190Y-90130380D01*
X228964952Y-90178000D01*
X228917333Y-90225619D01*
X228822095Y-90368476D01*
X228774476Y-90558952D01*
X228774476Y-90939904D01*
X228822095Y-91035142D01*
X228869714Y-91082761D01*
X228964952Y-91130380D01*
X229155428Y-91130380D01*
X229250666Y-91082761D01*
X229298285Y-91035142D01*
X229345904Y-90939904D01*
X229345904Y-90701809D01*
X229298285Y-90606571D01*
X229250666Y-90558952D01*
X229155428Y-90511333D01*
X228964952Y-90511333D01*
X228869714Y-90558952D01*
X228822095Y-90606571D01*
X228774476Y-90701809D01*
%TO.C,SWE6*%
X187698285Y-91082761D02*
X187841142Y-91130380D01*
X188079238Y-91130380D01*
X188174476Y-91082761D01*
X188222095Y-91035142D01*
X188269714Y-90939904D01*
X188269714Y-90844666D01*
X188222095Y-90749428D01*
X188174476Y-90701809D01*
X188079238Y-90654190D01*
X187888761Y-90606571D01*
X187793523Y-90558952D01*
X187745904Y-90511333D01*
X187698285Y-90416095D01*
X187698285Y-90320857D01*
X187745904Y-90225619D01*
X187793523Y-90178000D01*
X187888761Y-90130380D01*
X188126857Y-90130380D01*
X188269714Y-90178000D01*
X188603047Y-90130380D02*
X188841142Y-91130380D01*
X189031619Y-90416095D01*
X189222095Y-91130380D01*
X189460190Y-90130380D01*
X189841142Y-90606571D02*
X190174476Y-90606571D01*
X190317333Y-91130380D02*
X189841142Y-91130380D01*
X189841142Y-90130380D01*
X190317333Y-90130380D01*
X191174476Y-90130380D02*
X190984000Y-90130380D01*
X190888761Y-90178000D01*
X190841142Y-90225619D01*
X190745904Y-90368476D01*
X190698285Y-90558952D01*
X190698285Y-90939904D01*
X190745904Y-91035142D01*
X190793523Y-91082761D01*
X190888761Y-91130380D01*
X191079238Y-91130380D01*
X191174476Y-91082761D01*
X191222095Y-91035142D01*
X191269714Y-90939904D01*
X191269714Y-90701809D01*
X191222095Y-90606571D01*
X191174476Y-90558952D01*
X191079238Y-90511333D01*
X190888761Y-90511333D01*
X190793523Y-90558952D01*
X190745904Y-90606571D01*
X190698285Y-90701809D01*
%TO.C,SWF1*%
X211598095Y-52982761D02*
X211740952Y-53030380D01*
X211979047Y-53030380D01*
X212074285Y-52982761D01*
X212121904Y-52935142D01*
X212169523Y-52839904D01*
X212169523Y-52744666D01*
X212121904Y-52649428D01*
X212074285Y-52601809D01*
X211979047Y-52554190D01*
X211788571Y-52506571D01*
X211693333Y-52458952D01*
X211645714Y-52411333D01*
X211598095Y-52316095D01*
X211598095Y-52220857D01*
X211645714Y-52125619D01*
X211693333Y-52078000D01*
X211788571Y-52030380D01*
X212026666Y-52030380D01*
X212169523Y-52078000D01*
X212502857Y-52030380D02*
X212740952Y-53030380D01*
X212931428Y-52316095D01*
X213121904Y-53030380D01*
X213360000Y-52030380D01*
X214074285Y-52506571D02*
X213740952Y-52506571D01*
X213740952Y-53030380D02*
X213740952Y-52030380D01*
X214217142Y-52030380D01*
X215121904Y-53030380D02*
X214550476Y-53030380D01*
X214836190Y-53030380D02*
X214836190Y-52030380D01*
X214740952Y-52173238D01*
X214645714Y-52268476D01*
X214550476Y-52316095D01*
%TO.C,SWB5*%
X73350666Y-91082761D02*
X73493523Y-91130380D01*
X73731619Y-91130380D01*
X73826857Y-91082761D01*
X73874476Y-91035142D01*
X73922095Y-90939904D01*
X73922095Y-90844666D01*
X73874476Y-90749428D01*
X73826857Y-90701809D01*
X73731619Y-90654190D01*
X73541142Y-90606571D01*
X73445904Y-90558952D01*
X73398285Y-90511333D01*
X73350666Y-90416095D01*
X73350666Y-90320857D01*
X73398285Y-90225619D01*
X73445904Y-90178000D01*
X73541142Y-90130380D01*
X73779238Y-90130380D01*
X73922095Y-90178000D01*
X74255428Y-90130380D02*
X74493523Y-91130380D01*
X74684000Y-90416095D01*
X74874476Y-91130380D01*
X75112571Y-90130380D01*
X75826857Y-90606571D02*
X75969714Y-90654190D01*
X76017333Y-90701809D01*
X76064952Y-90797047D01*
X76064952Y-90939904D01*
X76017333Y-91035142D01*
X75969714Y-91082761D01*
X75874476Y-91130380D01*
X75493523Y-91130380D01*
X75493523Y-90130380D01*
X75826857Y-90130380D01*
X75922095Y-90178000D01*
X75969714Y-90225619D01*
X76017333Y-90320857D01*
X76017333Y-90416095D01*
X75969714Y-90511333D01*
X75922095Y-90558952D01*
X75826857Y-90606571D01*
X75493523Y-90606571D01*
X76969714Y-90130380D02*
X76493523Y-90130380D01*
X76445904Y-90606571D01*
X76493523Y-90558952D01*
X76588761Y-90511333D01*
X76826857Y-90511333D01*
X76922095Y-90558952D01*
X76969714Y-90606571D01*
X77017333Y-90701809D01*
X77017333Y-90939904D01*
X76969714Y-91035142D01*
X76922095Y-91082761D01*
X76826857Y-91130380D01*
X76588761Y-91130380D01*
X76493523Y-91082761D01*
X76445904Y-91035142D01*
%TO.C,SWB3*%
X68651666Y-72032761D02*
X68794523Y-72080380D01*
X69032619Y-72080380D01*
X69127857Y-72032761D01*
X69175476Y-71985142D01*
X69223095Y-71889904D01*
X69223095Y-71794666D01*
X69175476Y-71699428D01*
X69127857Y-71651809D01*
X69032619Y-71604190D01*
X68842142Y-71556571D01*
X68746904Y-71508952D01*
X68699285Y-71461333D01*
X68651666Y-71366095D01*
X68651666Y-71270857D01*
X68699285Y-71175619D01*
X68746904Y-71128000D01*
X68842142Y-71080380D01*
X69080238Y-71080380D01*
X69223095Y-71128000D01*
X69556428Y-71080380D02*
X69794523Y-72080380D01*
X69985000Y-71366095D01*
X70175476Y-72080380D01*
X70413571Y-71080380D01*
X71127857Y-71556571D02*
X71270714Y-71604190D01*
X71318333Y-71651809D01*
X71365952Y-71747047D01*
X71365952Y-71889904D01*
X71318333Y-71985142D01*
X71270714Y-72032761D01*
X71175476Y-72080380D01*
X70794523Y-72080380D01*
X70794523Y-71080380D01*
X71127857Y-71080380D01*
X71223095Y-71128000D01*
X71270714Y-71175619D01*
X71318333Y-71270857D01*
X71318333Y-71366095D01*
X71270714Y-71461333D01*
X71223095Y-71508952D01*
X71127857Y-71556571D01*
X70794523Y-71556571D01*
X71699285Y-71080380D02*
X72318333Y-71080380D01*
X71985000Y-71461333D01*
X72127857Y-71461333D01*
X72223095Y-71508952D01*
X72270714Y-71556571D01*
X72318333Y-71651809D01*
X72318333Y-71889904D01*
X72270714Y-71985142D01*
X72223095Y-72032761D01*
X72127857Y-72080380D01*
X71842142Y-72080380D01*
X71746904Y-72032761D01*
X71699285Y-71985142D01*
%TO.C,SWE4*%
X182999285Y-72032761D02*
X183142142Y-72080380D01*
X183380238Y-72080380D01*
X183475476Y-72032761D01*
X183523095Y-71985142D01*
X183570714Y-71889904D01*
X183570714Y-71794666D01*
X183523095Y-71699428D01*
X183475476Y-71651809D01*
X183380238Y-71604190D01*
X183189761Y-71556571D01*
X183094523Y-71508952D01*
X183046904Y-71461333D01*
X182999285Y-71366095D01*
X182999285Y-71270857D01*
X183046904Y-71175619D01*
X183094523Y-71128000D01*
X183189761Y-71080380D01*
X183427857Y-71080380D01*
X183570714Y-71128000D01*
X183904047Y-71080380D02*
X184142142Y-72080380D01*
X184332619Y-71366095D01*
X184523095Y-72080380D01*
X184761190Y-71080380D01*
X185142142Y-71556571D02*
X185475476Y-71556571D01*
X185618333Y-72080380D02*
X185142142Y-72080380D01*
X185142142Y-71080380D01*
X185618333Y-71080380D01*
X186475476Y-71413714D02*
X186475476Y-72080380D01*
X186237380Y-71032761D02*
X185999285Y-71747047D01*
X186618333Y-71747047D01*
%TO.C,SWF4*%
X226203095Y-72159761D02*
X226345952Y-72207380D01*
X226584047Y-72207380D01*
X226679285Y-72159761D01*
X226726904Y-72112142D01*
X226774523Y-72016904D01*
X226774523Y-71921666D01*
X226726904Y-71826428D01*
X226679285Y-71778809D01*
X226584047Y-71731190D01*
X226393571Y-71683571D01*
X226298333Y-71635952D01*
X226250714Y-71588333D01*
X226203095Y-71493095D01*
X226203095Y-71397857D01*
X226250714Y-71302619D01*
X226298333Y-71255000D01*
X226393571Y-71207380D01*
X226631666Y-71207380D01*
X226774523Y-71255000D01*
X227107857Y-71207380D02*
X227345952Y-72207380D01*
X227536428Y-71493095D01*
X227726904Y-72207380D01*
X227965000Y-71207380D01*
X228679285Y-71683571D02*
X228345952Y-71683571D01*
X228345952Y-72207380D02*
X228345952Y-71207380D01*
X228822142Y-71207380D01*
X229631666Y-71540714D02*
X229631666Y-72207380D01*
X229393571Y-71159761D02*
X229155476Y-71874047D01*
X229774523Y-71874047D01*
%TO.C,SWG6*%
X244800666Y-91082761D02*
X244943523Y-91130380D01*
X245181619Y-91130380D01*
X245276857Y-91082761D01*
X245324476Y-91035142D01*
X245372095Y-90939904D01*
X245372095Y-90844666D01*
X245324476Y-90749428D01*
X245276857Y-90701809D01*
X245181619Y-90654190D01*
X244991142Y-90606571D01*
X244895904Y-90558952D01*
X244848285Y-90511333D01*
X244800666Y-90416095D01*
X244800666Y-90320857D01*
X244848285Y-90225619D01*
X244895904Y-90178000D01*
X244991142Y-90130380D01*
X245229238Y-90130380D01*
X245372095Y-90178000D01*
X245705428Y-90130380D02*
X245943523Y-91130380D01*
X246134000Y-90416095D01*
X246324476Y-91130380D01*
X246562571Y-90130380D01*
X247467333Y-90178000D02*
X247372095Y-90130380D01*
X247229238Y-90130380D01*
X247086380Y-90178000D01*
X246991142Y-90273238D01*
X246943523Y-90368476D01*
X246895904Y-90558952D01*
X246895904Y-90701809D01*
X246943523Y-90892285D01*
X246991142Y-90987523D01*
X247086380Y-91082761D01*
X247229238Y-91130380D01*
X247324476Y-91130380D01*
X247467333Y-91082761D01*
X247514952Y-91035142D01*
X247514952Y-90701809D01*
X247324476Y-90701809D01*
X248372095Y-90130380D02*
X248181619Y-90130380D01*
X248086380Y-90178000D01*
X248038761Y-90225619D01*
X247943523Y-90368476D01*
X247895904Y-90558952D01*
X247895904Y-90939904D01*
X247943523Y-91035142D01*
X247991142Y-91082761D01*
X248086380Y-91130380D01*
X248276857Y-91130380D01*
X248372095Y-91082761D01*
X248419714Y-91035142D01*
X248467333Y-90939904D01*
X248467333Y-90701809D01*
X248419714Y-90606571D01*
X248372095Y-90558952D01*
X248276857Y-90511333D01*
X248086380Y-90511333D01*
X247991142Y-90558952D01*
X247943523Y-90606571D01*
X247895904Y-90701809D01*
%TO.C,SWG5*%
X273121666Y-72032761D02*
X273264523Y-72080380D01*
X273502619Y-72080380D01*
X273597857Y-72032761D01*
X273645476Y-71985142D01*
X273693095Y-71889904D01*
X273693095Y-71794666D01*
X273645476Y-71699428D01*
X273597857Y-71651809D01*
X273502619Y-71604190D01*
X273312142Y-71556571D01*
X273216904Y-71508952D01*
X273169285Y-71461333D01*
X273121666Y-71366095D01*
X273121666Y-71270857D01*
X273169285Y-71175619D01*
X273216904Y-71128000D01*
X273312142Y-71080380D01*
X273550238Y-71080380D01*
X273693095Y-71128000D01*
X274026428Y-71080380D02*
X274264523Y-72080380D01*
X274455000Y-71366095D01*
X274645476Y-72080380D01*
X274883571Y-71080380D01*
X275788333Y-71128000D02*
X275693095Y-71080380D01*
X275550238Y-71080380D01*
X275407380Y-71128000D01*
X275312142Y-71223238D01*
X275264523Y-71318476D01*
X275216904Y-71508952D01*
X275216904Y-71651809D01*
X275264523Y-71842285D01*
X275312142Y-71937523D01*
X275407380Y-72032761D01*
X275550238Y-72080380D01*
X275645476Y-72080380D01*
X275788333Y-72032761D01*
X275835952Y-71985142D01*
X275835952Y-71651809D01*
X275645476Y-71651809D01*
X276740714Y-71080380D02*
X276264523Y-71080380D01*
X276216904Y-71556571D01*
X276264523Y-71508952D01*
X276359761Y-71461333D01*
X276597857Y-71461333D01*
X276693095Y-71508952D01*
X276740714Y-71556571D01*
X276788333Y-71651809D01*
X276788333Y-71889904D01*
X276740714Y-71985142D01*
X276693095Y-72032761D01*
X276597857Y-72080380D01*
X276359761Y-72080380D01*
X276264523Y-72032761D01*
X276216904Y-71985142D01*
%TO.C,SWH7*%
X232838857Y-129182761D02*
X232981714Y-129230380D01*
X233219809Y-129230380D01*
X233315047Y-129182761D01*
X233362666Y-129135142D01*
X233410285Y-129039904D01*
X233410285Y-128944666D01*
X233362666Y-128849428D01*
X233315047Y-128801809D01*
X233219809Y-128754190D01*
X233029333Y-128706571D01*
X232934095Y-128658952D01*
X232886476Y-128611333D01*
X232838857Y-128516095D01*
X232838857Y-128420857D01*
X232886476Y-128325619D01*
X232934095Y-128278000D01*
X233029333Y-128230380D01*
X233267428Y-128230380D01*
X233410285Y-128278000D01*
X233743619Y-128230380D02*
X233981714Y-129230380D01*
X234172190Y-128516095D01*
X234362666Y-129230380D01*
X234600761Y-128230380D01*
X234981714Y-129230380D02*
X234981714Y-128230380D01*
X234981714Y-128706571D02*
X235553142Y-128706571D01*
X235553142Y-129230380D02*
X235553142Y-128230380D01*
X235934095Y-128230380D02*
X236600761Y-128230380D01*
X236172190Y-129230380D01*
%TO.C,SWH4*%
X289988857Y-110132761D02*
X290131714Y-110180380D01*
X290369809Y-110180380D01*
X290465047Y-110132761D01*
X290512666Y-110085142D01*
X290560285Y-109989904D01*
X290560285Y-109894666D01*
X290512666Y-109799428D01*
X290465047Y-109751809D01*
X290369809Y-109704190D01*
X290179333Y-109656571D01*
X290084095Y-109608952D01*
X290036476Y-109561333D01*
X289988857Y-109466095D01*
X289988857Y-109370857D01*
X290036476Y-109275619D01*
X290084095Y-109228000D01*
X290179333Y-109180380D01*
X290417428Y-109180380D01*
X290560285Y-109228000D01*
X290893619Y-109180380D02*
X291131714Y-110180380D01*
X291322190Y-109466095D01*
X291512666Y-110180380D01*
X291750761Y-109180380D01*
X292131714Y-110180380D02*
X292131714Y-109180380D01*
X292131714Y-109656571D02*
X292703142Y-109656571D01*
X292703142Y-110180380D02*
X292703142Y-109180380D01*
X293607904Y-109513714D02*
X293607904Y-110180380D01*
X293369809Y-109132761D02*
X293131714Y-109847047D01*
X293750761Y-109847047D01*
%TO.C,SWD4*%
X159075666Y-110132761D02*
X159218523Y-110180380D01*
X159456619Y-110180380D01*
X159551857Y-110132761D01*
X159599476Y-110085142D01*
X159647095Y-109989904D01*
X159647095Y-109894666D01*
X159599476Y-109799428D01*
X159551857Y-109751809D01*
X159456619Y-109704190D01*
X159266142Y-109656571D01*
X159170904Y-109608952D01*
X159123285Y-109561333D01*
X159075666Y-109466095D01*
X159075666Y-109370857D01*
X159123285Y-109275619D01*
X159170904Y-109228000D01*
X159266142Y-109180380D01*
X159504238Y-109180380D01*
X159647095Y-109228000D01*
X159980428Y-109180380D02*
X160218523Y-110180380D01*
X160409000Y-109466095D01*
X160599476Y-110180380D01*
X160837571Y-109180380D01*
X161218523Y-110180380D02*
X161218523Y-109180380D01*
X161456619Y-109180380D01*
X161599476Y-109228000D01*
X161694714Y-109323238D01*
X161742333Y-109418476D01*
X161789952Y-109608952D01*
X161789952Y-109751809D01*
X161742333Y-109942285D01*
X161694714Y-110037523D01*
X161599476Y-110132761D01*
X161456619Y-110180380D01*
X161218523Y-110180380D01*
X162647095Y-109513714D02*
X162647095Y-110180380D01*
X162409000Y-109132761D02*
X162170904Y-109847047D01*
X162789952Y-109847047D01*
%TO.C,SWE8*%
X197223285Y-110132761D02*
X197366142Y-110180380D01*
X197604238Y-110180380D01*
X197699476Y-110132761D01*
X197747095Y-110085142D01*
X197794714Y-109989904D01*
X197794714Y-109894666D01*
X197747095Y-109799428D01*
X197699476Y-109751809D01*
X197604238Y-109704190D01*
X197413761Y-109656571D01*
X197318523Y-109608952D01*
X197270904Y-109561333D01*
X197223285Y-109466095D01*
X197223285Y-109370857D01*
X197270904Y-109275619D01*
X197318523Y-109228000D01*
X197413761Y-109180380D01*
X197651857Y-109180380D01*
X197794714Y-109228000D01*
X198128047Y-109180380D02*
X198366142Y-110180380D01*
X198556619Y-109466095D01*
X198747095Y-110180380D01*
X198985190Y-109180380D01*
X199366142Y-109656571D02*
X199699476Y-109656571D01*
X199842333Y-110180380D02*
X199366142Y-110180380D01*
X199366142Y-109180380D01*
X199842333Y-109180380D01*
X200413761Y-109608952D02*
X200318523Y-109561333D01*
X200270904Y-109513714D01*
X200223285Y-109418476D01*
X200223285Y-109370857D01*
X200270904Y-109275619D01*
X200318523Y-109228000D01*
X200413761Y-109180380D01*
X200604238Y-109180380D01*
X200699476Y-109228000D01*
X200747095Y-109275619D01*
X200794714Y-109370857D01*
X200794714Y-109418476D01*
X200747095Y-109513714D01*
X200699476Y-109561333D01*
X200604238Y-109608952D01*
X200413761Y-109608952D01*
X200318523Y-109656571D01*
X200270904Y-109704190D01*
X200223285Y-109799428D01*
X200223285Y-109989904D01*
X200270904Y-110085142D01*
X200318523Y-110132761D01*
X200413761Y-110180380D01*
X200604238Y-110180380D01*
X200699476Y-110132761D01*
X200747095Y-110085142D01*
X200794714Y-109989904D01*
X200794714Y-109799428D01*
X200747095Y-109704190D01*
X200699476Y-109656571D01*
X200604238Y-109608952D01*
%TO.C,SWE1*%
X173474285Y-52982761D02*
X173617142Y-53030380D01*
X173855238Y-53030380D01*
X173950476Y-52982761D01*
X173998095Y-52935142D01*
X174045714Y-52839904D01*
X174045714Y-52744666D01*
X173998095Y-52649428D01*
X173950476Y-52601809D01*
X173855238Y-52554190D01*
X173664761Y-52506571D01*
X173569523Y-52458952D01*
X173521904Y-52411333D01*
X173474285Y-52316095D01*
X173474285Y-52220857D01*
X173521904Y-52125619D01*
X173569523Y-52078000D01*
X173664761Y-52030380D01*
X173902857Y-52030380D01*
X174045714Y-52078000D01*
X174379047Y-52030380D02*
X174617142Y-53030380D01*
X174807619Y-52316095D01*
X174998095Y-53030380D01*
X175236190Y-52030380D01*
X175617142Y-52506571D02*
X175950476Y-52506571D01*
X176093333Y-53030380D02*
X175617142Y-53030380D01*
X175617142Y-52030380D01*
X176093333Y-52030380D01*
X177045714Y-53030380D02*
X176474285Y-53030380D01*
X176760000Y-53030380D02*
X176760000Y-52030380D01*
X176664761Y-52173238D01*
X176569523Y-52268476D01*
X176474285Y-52316095D01*
%TO.C,SWG7*%
X263850666Y-91082761D02*
X263993523Y-91130380D01*
X264231619Y-91130380D01*
X264326857Y-91082761D01*
X264374476Y-91035142D01*
X264422095Y-90939904D01*
X264422095Y-90844666D01*
X264374476Y-90749428D01*
X264326857Y-90701809D01*
X264231619Y-90654190D01*
X264041142Y-90606571D01*
X263945904Y-90558952D01*
X263898285Y-90511333D01*
X263850666Y-90416095D01*
X263850666Y-90320857D01*
X263898285Y-90225619D01*
X263945904Y-90178000D01*
X264041142Y-90130380D01*
X264279238Y-90130380D01*
X264422095Y-90178000D01*
X264755428Y-90130380D02*
X264993523Y-91130380D01*
X265184000Y-90416095D01*
X265374476Y-91130380D01*
X265612571Y-90130380D01*
X266517333Y-90178000D02*
X266422095Y-90130380D01*
X266279238Y-90130380D01*
X266136380Y-90178000D01*
X266041142Y-90273238D01*
X265993523Y-90368476D01*
X265945904Y-90558952D01*
X265945904Y-90701809D01*
X265993523Y-90892285D01*
X266041142Y-90987523D01*
X266136380Y-91082761D01*
X266279238Y-91130380D01*
X266374476Y-91130380D01*
X266517333Y-91082761D01*
X266564952Y-91035142D01*
X266564952Y-90701809D01*
X266374476Y-90701809D01*
X266898285Y-90130380D02*
X267564952Y-90130380D01*
X267136380Y-91130380D01*
%TO.C,SWC2*%
X135326666Y-52982761D02*
X135469523Y-53030380D01*
X135707619Y-53030380D01*
X135802857Y-52982761D01*
X135850476Y-52935142D01*
X135898095Y-52839904D01*
X135898095Y-52744666D01*
X135850476Y-52649428D01*
X135802857Y-52601809D01*
X135707619Y-52554190D01*
X135517142Y-52506571D01*
X135421904Y-52458952D01*
X135374285Y-52411333D01*
X135326666Y-52316095D01*
X135326666Y-52220857D01*
X135374285Y-52125619D01*
X135421904Y-52078000D01*
X135517142Y-52030380D01*
X135755238Y-52030380D01*
X135898095Y-52078000D01*
X136231428Y-52030380D02*
X136469523Y-53030380D01*
X136660000Y-52316095D01*
X136850476Y-53030380D01*
X137088571Y-52030380D01*
X138040952Y-52935142D02*
X137993333Y-52982761D01*
X137850476Y-53030380D01*
X137755238Y-53030380D01*
X137612380Y-52982761D01*
X137517142Y-52887523D01*
X137469523Y-52792285D01*
X137421904Y-52601809D01*
X137421904Y-52458952D01*
X137469523Y-52268476D01*
X137517142Y-52173238D01*
X137612380Y-52078000D01*
X137755238Y-52030380D01*
X137850476Y-52030380D01*
X137993333Y-52078000D01*
X138040952Y-52125619D01*
X138421904Y-52125619D02*
X138469523Y-52078000D01*
X138564761Y-52030380D01*
X138802857Y-52030380D01*
X138898095Y-52078000D01*
X138945714Y-52125619D01*
X138993333Y-52220857D01*
X138993333Y-52316095D01*
X138945714Y-52458952D01*
X138374285Y-53030380D01*
X138993333Y-53030380D01*
%TO.C,SWE2*%
X192524285Y-52982761D02*
X192667142Y-53030380D01*
X192905238Y-53030380D01*
X193000476Y-52982761D01*
X193048095Y-52935142D01*
X193095714Y-52839904D01*
X193095714Y-52744666D01*
X193048095Y-52649428D01*
X193000476Y-52601809D01*
X192905238Y-52554190D01*
X192714761Y-52506571D01*
X192619523Y-52458952D01*
X192571904Y-52411333D01*
X192524285Y-52316095D01*
X192524285Y-52220857D01*
X192571904Y-52125619D01*
X192619523Y-52078000D01*
X192714761Y-52030380D01*
X192952857Y-52030380D01*
X193095714Y-52078000D01*
X193429047Y-52030380D02*
X193667142Y-53030380D01*
X193857619Y-52316095D01*
X194048095Y-53030380D01*
X194286190Y-52030380D01*
X194667142Y-52506571D02*
X195000476Y-52506571D01*
X195143333Y-53030380D02*
X194667142Y-53030380D01*
X194667142Y-52030380D01*
X195143333Y-52030380D01*
X195524285Y-52125619D02*
X195571904Y-52078000D01*
X195667142Y-52030380D01*
X195905238Y-52030380D01*
X196000476Y-52078000D01*
X196048095Y-52125619D01*
X196095714Y-52220857D01*
X196095714Y-52316095D01*
X196048095Y-52458952D01*
X195476666Y-53030380D01*
X196095714Y-53030380D01*
%TO.C,SWC5*%
X111450666Y-91082761D02*
X111593523Y-91130380D01*
X111831619Y-91130380D01*
X111926857Y-91082761D01*
X111974476Y-91035142D01*
X112022095Y-90939904D01*
X112022095Y-90844666D01*
X111974476Y-90749428D01*
X111926857Y-90701809D01*
X111831619Y-90654190D01*
X111641142Y-90606571D01*
X111545904Y-90558952D01*
X111498285Y-90511333D01*
X111450666Y-90416095D01*
X111450666Y-90320857D01*
X111498285Y-90225619D01*
X111545904Y-90178000D01*
X111641142Y-90130380D01*
X111879238Y-90130380D01*
X112022095Y-90178000D01*
X112355428Y-90130380D02*
X112593523Y-91130380D01*
X112784000Y-90416095D01*
X112974476Y-91130380D01*
X113212571Y-90130380D01*
X114164952Y-91035142D02*
X114117333Y-91082761D01*
X113974476Y-91130380D01*
X113879238Y-91130380D01*
X113736380Y-91082761D01*
X113641142Y-90987523D01*
X113593523Y-90892285D01*
X113545904Y-90701809D01*
X113545904Y-90558952D01*
X113593523Y-90368476D01*
X113641142Y-90273238D01*
X113736380Y-90178000D01*
X113879238Y-90130380D01*
X113974476Y-90130380D01*
X114117333Y-90178000D01*
X114164952Y-90225619D01*
X115069714Y-90130380D02*
X114593523Y-90130380D01*
X114545904Y-90606571D01*
X114593523Y-90558952D01*
X114688761Y-90511333D01*
X114926857Y-90511333D01*
X115022095Y-90558952D01*
X115069714Y-90606571D01*
X115117333Y-90701809D01*
X115117333Y-90939904D01*
X115069714Y-91035142D01*
X115022095Y-91082761D01*
X114926857Y-91130380D01*
X114688761Y-91130380D01*
X114593523Y-91082761D01*
X114545904Y-91035142D01*
%TO.C,SWB4*%
X87701666Y-72032761D02*
X87844523Y-72080380D01*
X88082619Y-72080380D01*
X88177857Y-72032761D01*
X88225476Y-71985142D01*
X88273095Y-71889904D01*
X88273095Y-71794666D01*
X88225476Y-71699428D01*
X88177857Y-71651809D01*
X88082619Y-71604190D01*
X87892142Y-71556571D01*
X87796904Y-71508952D01*
X87749285Y-71461333D01*
X87701666Y-71366095D01*
X87701666Y-71270857D01*
X87749285Y-71175619D01*
X87796904Y-71128000D01*
X87892142Y-71080380D01*
X88130238Y-71080380D01*
X88273095Y-71128000D01*
X88606428Y-71080380D02*
X88844523Y-72080380D01*
X89035000Y-71366095D01*
X89225476Y-72080380D01*
X89463571Y-71080380D01*
X90177857Y-71556571D02*
X90320714Y-71604190D01*
X90368333Y-71651809D01*
X90415952Y-71747047D01*
X90415952Y-71889904D01*
X90368333Y-71985142D01*
X90320714Y-72032761D01*
X90225476Y-72080380D01*
X89844523Y-72080380D01*
X89844523Y-71080380D01*
X90177857Y-71080380D01*
X90273095Y-71128000D01*
X90320714Y-71175619D01*
X90368333Y-71270857D01*
X90368333Y-71366095D01*
X90320714Y-71461333D01*
X90273095Y-71508952D01*
X90177857Y-71556571D01*
X89844523Y-71556571D01*
X91273095Y-71413714D02*
X91273095Y-72080380D01*
X91035000Y-71032761D02*
X90796904Y-71747047D01*
X91415952Y-71747047D01*
%TO.C,SWE5*%
X168648285Y-91082761D02*
X168791142Y-91130380D01*
X169029238Y-91130380D01*
X169124476Y-91082761D01*
X169172095Y-91035142D01*
X169219714Y-90939904D01*
X169219714Y-90844666D01*
X169172095Y-90749428D01*
X169124476Y-90701809D01*
X169029238Y-90654190D01*
X168838761Y-90606571D01*
X168743523Y-90558952D01*
X168695904Y-90511333D01*
X168648285Y-90416095D01*
X168648285Y-90320857D01*
X168695904Y-90225619D01*
X168743523Y-90178000D01*
X168838761Y-90130380D01*
X169076857Y-90130380D01*
X169219714Y-90178000D01*
X169553047Y-90130380D02*
X169791142Y-91130380D01*
X169981619Y-90416095D01*
X170172095Y-91130380D01*
X170410190Y-90130380D01*
X170791142Y-90606571D02*
X171124476Y-90606571D01*
X171267333Y-91130380D02*
X170791142Y-91130380D01*
X170791142Y-90130380D01*
X171267333Y-90130380D01*
X172172095Y-90130380D02*
X171695904Y-90130380D01*
X171648285Y-90606571D01*
X171695904Y-90558952D01*
X171791142Y-90511333D01*
X172029238Y-90511333D01*
X172124476Y-90558952D01*
X172172095Y-90606571D01*
X172219714Y-90701809D01*
X172219714Y-90939904D01*
X172172095Y-91035142D01*
X172124476Y-91082761D01*
X172029238Y-91130380D01*
X171791142Y-91130380D01*
X171695904Y-91082761D01*
X171648285Y-91035142D01*
%TO.C,SWH5*%
X280463857Y-129182761D02*
X280606714Y-129230380D01*
X280844809Y-129230380D01*
X280940047Y-129182761D01*
X280987666Y-129135142D01*
X281035285Y-129039904D01*
X281035285Y-128944666D01*
X280987666Y-128849428D01*
X280940047Y-128801809D01*
X280844809Y-128754190D01*
X280654333Y-128706571D01*
X280559095Y-128658952D01*
X280511476Y-128611333D01*
X280463857Y-128516095D01*
X280463857Y-128420857D01*
X280511476Y-128325619D01*
X280559095Y-128278000D01*
X280654333Y-128230380D01*
X280892428Y-128230380D01*
X281035285Y-128278000D01*
X281368619Y-128230380D02*
X281606714Y-129230380D01*
X281797190Y-128516095D01*
X281987666Y-129230380D01*
X282225761Y-128230380D01*
X282606714Y-129230380D02*
X282606714Y-128230380D01*
X282606714Y-128706571D02*
X283178142Y-128706571D01*
X283178142Y-129230380D02*
X283178142Y-128230380D01*
X284130523Y-128230380D02*
X283654333Y-128230380D01*
X283606714Y-128706571D01*
X283654333Y-128658952D01*
X283749571Y-128611333D01*
X283987666Y-128611333D01*
X284082904Y-128658952D01*
X284130523Y-128706571D01*
X284178142Y-128801809D01*
X284178142Y-129039904D01*
X284130523Y-129135142D01*
X284082904Y-129182761D01*
X283987666Y-129230380D01*
X283749571Y-129230380D01*
X283654333Y-129182761D01*
X283606714Y-129135142D01*
%TO.C,SWC3*%
X111831666Y-72032761D02*
X111974523Y-72080380D01*
X112212619Y-72080380D01*
X112307857Y-72032761D01*
X112355476Y-71985142D01*
X112403095Y-71889904D01*
X112403095Y-71794666D01*
X112355476Y-71699428D01*
X112307857Y-71651809D01*
X112212619Y-71604190D01*
X112022142Y-71556571D01*
X111926904Y-71508952D01*
X111879285Y-71461333D01*
X111831666Y-71366095D01*
X111831666Y-71270857D01*
X111879285Y-71175619D01*
X111926904Y-71128000D01*
X112022142Y-71080380D01*
X112260238Y-71080380D01*
X112403095Y-71128000D01*
X112736428Y-71080380D02*
X112974523Y-72080380D01*
X113165000Y-71366095D01*
X113355476Y-72080380D01*
X113593571Y-71080380D01*
X114545952Y-71985142D02*
X114498333Y-72032761D01*
X114355476Y-72080380D01*
X114260238Y-72080380D01*
X114117380Y-72032761D01*
X114022142Y-71937523D01*
X113974523Y-71842285D01*
X113926904Y-71651809D01*
X113926904Y-71508952D01*
X113974523Y-71318476D01*
X114022142Y-71223238D01*
X114117380Y-71128000D01*
X114260238Y-71080380D01*
X114355476Y-71080380D01*
X114498333Y-71128000D01*
X114545952Y-71175619D01*
X114879285Y-71080380D02*
X115498333Y-71080380D01*
X115165000Y-71461333D01*
X115307857Y-71461333D01*
X115403095Y-71508952D01*
X115450714Y-71556571D01*
X115498333Y-71651809D01*
X115498333Y-71889904D01*
X115450714Y-71985142D01*
X115403095Y-72032761D01*
X115307857Y-72080380D01*
X115022142Y-72080380D01*
X114926904Y-72032761D01*
X114879285Y-71985142D01*
%TO.C,SWG4*%
X259151666Y-72032761D02*
X259294523Y-72080380D01*
X259532619Y-72080380D01*
X259627857Y-72032761D01*
X259675476Y-71985142D01*
X259723095Y-71889904D01*
X259723095Y-71794666D01*
X259675476Y-71699428D01*
X259627857Y-71651809D01*
X259532619Y-71604190D01*
X259342142Y-71556571D01*
X259246904Y-71508952D01*
X259199285Y-71461333D01*
X259151666Y-71366095D01*
X259151666Y-71270857D01*
X259199285Y-71175619D01*
X259246904Y-71128000D01*
X259342142Y-71080380D01*
X259580238Y-71080380D01*
X259723095Y-71128000D01*
X260056428Y-71080380D02*
X260294523Y-72080380D01*
X260485000Y-71366095D01*
X260675476Y-72080380D01*
X260913571Y-71080380D01*
X261818333Y-71128000D02*
X261723095Y-71080380D01*
X261580238Y-71080380D01*
X261437380Y-71128000D01*
X261342142Y-71223238D01*
X261294523Y-71318476D01*
X261246904Y-71508952D01*
X261246904Y-71651809D01*
X261294523Y-71842285D01*
X261342142Y-71937523D01*
X261437380Y-72032761D01*
X261580238Y-72080380D01*
X261675476Y-72080380D01*
X261818333Y-72032761D01*
X261865952Y-71985142D01*
X261865952Y-71651809D01*
X261675476Y-71651809D01*
X262723095Y-71413714D02*
X262723095Y-72080380D01*
X262485000Y-71032761D02*
X262246904Y-71747047D01*
X262865952Y-71747047D01*
%TO.C,SWF7*%
X216297095Y-110132761D02*
X216439952Y-110180380D01*
X216678047Y-110180380D01*
X216773285Y-110132761D01*
X216820904Y-110085142D01*
X216868523Y-109989904D01*
X216868523Y-109894666D01*
X216820904Y-109799428D01*
X216773285Y-109751809D01*
X216678047Y-109704190D01*
X216487571Y-109656571D01*
X216392333Y-109608952D01*
X216344714Y-109561333D01*
X216297095Y-109466095D01*
X216297095Y-109370857D01*
X216344714Y-109275619D01*
X216392333Y-109228000D01*
X216487571Y-109180380D01*
X216725666Y-109180380D01*
X216868523Y-109228000D01*
X217201857Y-109180380D02*
X217439952Y-110180380D01*
X217630428Y-109466095D01*
X217820904Y-110180380D01*
X218059000Y-109180380D01*
X218773285Y-109656571D02*
X218439952Y-109656571D01*
X218439952Y-110180380D02*
X218439952Y-109180380D01*
X218916142Y-109180380D01*
X219201857Y-109180380D02*
X219868523Y-109180380D01*
X219439952Y-110180380D01*
%TO.C,SWG2*%
X268676666Y-52982761D02*
X268819523Y-53030380D01*
X269057619Y-53030380D01*
X269152857Y-52982761D01*
X269200476Y-52935142D01*
X269248095Y-52839904D01*
X269248095Y-52744666D01*
X269200476Y-52649428D01*
X269152857Y-52601809D01*
X269057619Y-52554190D01*
X268867142Y-52506571D01*
X268771904Y-52458952D01*
X268724285Y-52411333D01*
X268676666Y-52316095D01*
X268676666Y-52220857D01*
X268724285Y-52125619D01*
X268771904Y-52078000D01*
X268867142Y-52030380D01*
X269105238Y-52030380D01*
X269248095Y-52078000D01*
X269581428Y-52030380D02*
X269819523Y-53030380D01*
X270010000Y-52316095D01*
X270200476Y-53030380D01*
X270438571Y-52030380D01*
X271343333Y-52078000D02*
X271248095Y-52030380D01*
X271105238Y-52030380D01*
X270962380Y-52078000D01*
X270867142Y-52173238D01*
X270819523Y-52268476D01*
X270771904Y-52458952D01*
X270771904Y-52601809D01*
X270819523Y-52792285D01*
X270867142Y-52887523D01*
X270962380Y-52982761D01*
X271105238Y-53030380D01*
X271200476Y-53030380D01*
X271343333Y-52982761D01*
X271390952Y-52935142D01*
X271390952Y-52601809D01*
X271200476Y-52601809D01*
X271771904Y-52125619D02*
X271819523Y-52078000D01*
X271914761Y-52030380D01*
X272152857Y-52030380D01*
X272248095Y-52078000D01*
X272295714Y-52125619D01*
X272343333Y-52220857D01*
X272343333Y-52316095D01*
X272295714Y-52458952D01*
X271724285Y-53030380D01*
X272343333Y-53030380D01*
%TO.C,SWE7*%
X178173285Y-110132761D02*
X178316142Y-110180380D01*
X178554238Y-110180380D01*
X178649476Y-110132761D01*
X178697095Y-110085142D01*
X178744714Y-109989904D01*
X178744714Y-109894666D01*
X178697095Y-109799428D01*
X178649476Y-109751809D01*
X178554238Y-109704190D01*
X178363761Y-109656571D01*
X178268523Y-109608952D01*
X178220904Y-109561333D01*
X178173285Y-109466095D01*
X178173285Y-109370857D01*
X178220904Y-109275619D01*
X178268523Y-109228000D01*
X178363761Y-109180380D01*
X178601857Y-109180380D01*
X178744714Y-109228000D01*
X179078047Y-109180380D02*
X179316142Y-110180380D01*
X179506619Y-109466095D01*
X179697095Y-110180380D01*
X179935190Y-109180380D01*
X180316142Y-109656571D02*
X180649476Y-109656571D01*
X180792333Y-110180380D02*
X180316142Y-110180380D01*
X180316142Y-109180380D01*
X180792333Y-109180380D01*
X181125666Y-109180380D02*
X181792333Y-109180380D01*
X181363761Y-110180380D01*
%TO.C,SWB1*%
X78176666Y-52982761D02*
X78319523Y-53030380D01*
X78557619Y-53030380D01*
X78652857Y-52982761D01*
X78700476Y-52935142D01*
X78748095Y-52839904D01*
X78748095Y-52744666D01*
X78700476Y-52649428D01*
X78652857Y-52601809D01*
X78557619Y-52554190D01*
X78367142Y-52506571D01*
X78271904Y-52458952D01*
X78224285Y-52411333D01*
X78176666Y-52316095D01*
X78176666Y-52220857D01*
X78224285Y-52125619D01*
X78271904Y-52078000D01*
X78367142Y-52030380D01*
X78605238Y-52030380D01*
X78748095Y-52078000D01*
X79081428Y-52030380D02*
X79319523Y-53030380D01*
X79510000Y-52316095D01*
X79700476Y-53030380D01*
X79938571Y-52030380D01*
X80652857Y-52506571D02*
X80795714Y-52554190D01*
X80843333Y-52601809D01*
X80890952Y-52697047D01*
X80890952Y-52839904D01*
X80843333Y-52935142D01*
X80795714Y-52982761D01*
X80700476Y-53030380D01*
X80319523Y-53030380D01*
X80319523Y-52030380D01*
X80652857Y-52030380D01*
X80748095Y-52078000D01*
X80795714Y-52125619D01*
X80843333Y-52220857D01*
X80843333Y-52316095D01*
X80795714Y-52411333D01*
X80748095Y-52458952D01*
X80652857Y-52506571D01*
X80319523Y-52506571D01*
X81843333Y-53030380D02*
X81271904Y-53030380D01*
X81557619Y-53030380D02*
X81557619Y-52030380D01*
X81462380Y-52173238D01*
X81367142Y-52268476D01*
X81271904Y-52316095D01*
%TO.C,SWF2*%
X230648095Y-52982761D02*
X230790952Y-53030380D01*
X231029047Y-53030380D01*
X231124285Y-52982761D01*
X231171904Y-52935142D01*
X231219523Y-52839904D01*
X231219523Y-52744666D01*
X231171904Y-52649428D01*
X231124285Y-52601809D01*
X231029047Y-52554190D01*
X230838571Y-52506571D01*
X230743333Y-52458952D01*
X230695714Y-52411333D01*
X230648095Y-52316095D01*
X230648095Y-52220857D01*
X230695714Y-52125619D01*
X230743333Y-52078000D01*
X230838571Y-52030380D01*
X231076666Y-52030380D01*
X231219523Y-52078000D01*
X231552857Y-52030380D02*
X231790952Y-53030380D01*
X231981428Y-52316095D01*
X232171904Y-53030380D01*
X232410000Y-52030380D01*
X233124285Y-52506571D02*
X232790952Y-52506571D01*
X232790952Y-53030380D02*
X232790952Y-52030380D01*
X233267142Y-52030380D01*
X233600476Y-52125619D02*
X233648095Y-52078000D01*
X233743333Y-52030380D01*
X233981428Y-52030380D01*
X234076666Y-52078000D01*
X234124285Y-52125619D01*
X234171904Y-52220857D01*
X234171904Y-52316095D01*
X234124285Y-52458952D01*
X233552857Y-53030380D01*
X234171904Y-53030380D01*
%TO.C,SWA2*%
X59186095Y-52982761D02*
X59328952Y-53030380D01*
X59567047Y-53030380D01*
X59662285Y-52982761D01*
X59709904Y-52935142D01*
X59757523Y-52839904D01*
X59757523Y-52744666D01*
X59709904Y-52649428D01*
X59662285Y-52601809D01*
X59567047Y-52554190D01*
X59376571Y-52506571D01*
X59281333Y-52458952D01*
X59233714Y-52411333D01*
X59186095Y-52316095D01*
X59186095Y-52220857D01*
X59233714Y-52125619D01*
X59281333Y-52078000D01*
X59376571Y-52030380D01*
X59614666Y-52030380D01*
X59757523Y-52078000D01*
X60090857Y-52030380D02*
X60328952Y-53030380D01*
X60519428Y-52316095D01*
X60709904Y-53030380D01*
X60948000Y-52030380D01*
X61281333Y-52744666D02*
X61757523Y-52744666D01*
X61186095Y-53030380D02*
X61519428Y-52030380D01*
X61852761Y-53030380D01*
X62138476Y-52125619D02*
X62186095Y-52078000D01*
X62281333Y-52030380D01*
X62519428Y-52030380D01*
X62614666Y-52078000D01*
X62662285Y-52125619D01*
X62709904Y-52220857D01*
X62709904Y-52316095D01*
X62662285Y-52458952D01*
X62090857Y-53030380D01*
X62709904Y-53030380D01*
%TO.C,SWA6*%
X42497595Y-129182761D02*
X42640452Y-129230380D01*
X42878547Y-129230380D01*
X42973785Y-129182761D01*
X43021404Y-129135142D01*
X43069023Y-129039904D01*
X43069023Y-128944666D01*
X43021404Y-128849428D01*
X42973785Y-128801809D01*
X42878547Y-128754190D01*
X42688071Y-128706571D01*
X42592833Y-128658952D01*
X42545214Y-128611333D01*
X42497595Y-128516095D01*
X42497595Y-128420857D01*
X42545214Y-128325619D01*
X42592833Y-128278000D01*
X42688071Y-128230380D01*
X42926166Y-128230380D01*
X43069023Y-128278000D01*
X43402357Y-128230380D02*
X43640452Y-129230380D01*
X43830928Y-128516095D01*
X44021404Y-129230380D01*
X44259500Y-128230380D01*
X44592833Y-128944666D02*
X45069023Y-128944666D01*
X44497595Y-129230380D02*
X44830928Y-128230380D01*
X45164261Y-129230380D01*
X45926166Y-128230380D02*
X45735690Y-128230380D01*
X45640452Y-128278000D01*
X45592833Y-128325619D01*
X45497595Y-128468476D01*
X45449976Y-128658952D01*
X45449976Y-129039904D01*
X45497595Y-129135142D01*
X45545214Y-129182761D01*
X45640452Y-129230380D01*
X45830928Y-129230380D01*
X45926166Y-129182761D01*
X45973785Y-129135142D01*
X46021404Y-129039904D01*
X46021404Y-128801809D01*
X45973785Y-128706571D01*
X45926166Y-128658952D01*
X45830928Y-128611333D01*
X45640452Y-128611333D01*
X45545214Y-128658952D01*
X45497595Y-128706571D01*
X45449976Y-128801809D01*
%TO.C,SWC8*%
X140025666Y-110132761D02*
X140168523Y-110180380D01*
X140406619Y-110180380D01*
X140501857Y-110132761D01*
X140549476Y-110085142D01*
X140597095Y-109989904D01*
X140597095Y-109894666D01*
X140549476Y-109799428D01*
X140501857Y-109751809D01*
X140406619Y-109704190D01*
X140216142Y-109656571D01*
X140120904Y-109608952D01*
X140073285Y-109561333D01*
X140025666Y-109466095D01*
X140025666Y-109370857D01*
X140073285Y-109275619D01*
X140120904Y-109228000D01*
X140216142Y-109180380D01*
X140454238Y-109180380D01*
X140597095Y-109228000D01*
X140930428Y-109180380D02*
X141168523Y-110180380D01*
X141359000Y-109466095D01*
X141549476Y-110180380D01*
X141787571Y-109180380D01*
X142739952Y-110085142D02*
X142692333Y-110132761D01*
X142549476Y-110180380D01*
X142454238Y-110180380D01*
X142311380Y-110132761D01*
X142216142Y-110037523D01*
X142168523Y-109942285D01*
X142120904Y-109751809D01*
X142120904Y-109608952D01*
X142168523Y-109418476D01*
X142216142Y-109323238D01*
X142311380Y-109228000D01*
X142454238Y-109180380D01*
X142549476Y-109180380D01*
X142692333Y-109228000D01*
X142739952Y-109275619D01*
X143311380Y-109608952D02*
X143216142Y-109561333D01*
X143168523Y-109513714D01*
X143120904Y-109418476D01*
X143120904Y-109370857D01*
X143168523Y-109275619D01*
X143216142Y-109228000D01*
X143311380Y-109180380D01*
X143501857Y-109180380D01*
X143597095Y-109228000D01*
X143644714Y-109275619D01*
X143692333Y-109370857D01*
X143692333Y-109418476D01*
X143644714Y-109513714D01*
X143597095Y-109561333D01*
X143501857Y-109608952D01*
X143311380Y-109608952D01*
X143216142Y-109656571D01*
X143168523Y-109704190D01*
X143120904Y-109799428D01*
X143120904Y-109989904D01*
X143168523Y-110085142D01*
X143216142Y-110132761D01*
X143311380Y-110180380D01*
X143501857Y-110180380D01*
X143597095Y-110132761D01*
X143644714Y-110085142D01*
X143692333Y-109989904D01*
X143692333Y-109799428D01*
X143644714Y-109704190D01*
X143597095Y-109656571D01*
X143501857Y-109608952D01*
%TO.C,SWC7*%
X125801666Y-110132761D02*
X125944523Y-110180380D01*
X126182619Y-110180380D01*
X126277857Y-110132761D01*
X126325476Y-110085142D01*
X126373095Y-109989904D01*
X126373095Y-109894666D01*
X126325476Y-109799428D01*
X126277857Y-109751809D01*
X126182619Y-109704190D01*
X125992142Y-109656571D01*
X125896904Y-109608952D01*
X125849285Y-109561333D01*
X125801666Y-109466095D01*
X125801666Y-109370857D01*
X125849285Y-109275619D01*
X125896904Y-109228000D01*
X125992142Y-109180380D01*
X126230238Y-109180380D01*
X126373095Y-109228000D01*
X126706428Y-109180380D02*
X126944523Y-110180380D01*
X127135000Y-109466095D01*
X127325476Y-110180380D01*
X127563571Y-109180380D01*
X128515952Y-110085142D02*
X128468333Y-110132761D01*
X128325476Y-110180380D01*
X128230238Y-110180380D01*
X128087380Y-110132761D01*
X127992142Y-110037523D01*
X127944523Y-109942285D01*
X127896904Y-109751809D01*
X127896904Y-109608952D01*
X127944523Y-109418476D01*
X127992142Y-109323238D01*
X128087380Y-109228000D01*
X128230238Y-109180380D01*
X128325476Y-109180380D01*
X128468333Y-109228000D01*
X128515952Y-109275619D01*
X128849285Y-109180380D02*
X129515952Y-109180380D01*
X129087380Y-110180380D01*
%TO.C,SWB8*%
X101925666Y-110132761D02*
X102068523Y-110180380D01*
X102306619Y-110180380D01*
X102401857Y-110132761D01*
X102449476Y-110085142D01*
X102497095Y-109989904D01*
X102497095Y-109894666D01*
X102449476Y-109799428D01*
X102401857Y-109751809D01*
X102306619Y-109704190D01*
X102116142Y-109656571D01*
X102020904Y-109608952D01*
X101973285Y-109561333D01*
X101925666Y-109466095D01*
X101925666Y-109370857D01*
X101973285Y-109275619D01*
X102020904Y-109228000D01*
X102116142Y-109180380D01*
X102354238Y-109180380D01*
X102497095Y-109228000D01*
X102830428Y-109180380D02*
X103068523Y-110180380D01*
X103259000Y-109466095D01*
X103449476Y-110180380D01*
X103687571Y-109180380D01*
X104401857Y-109656571D02*
X104544714Y-109704190D01*
X104592333Y-109751809D01*
X104639952Y-109847047D01*
X104639952Y-109989904D01*
X104592333Y-110085142D01*
X104544714Y-110132761D01*
X104449476Y-110180380D01*
X104068523Y-110180380D01*
X104068523Y-109180380D01*
X104401857Y-109180380D01*
X104497095Y-109228000D01*
X104544714Y-109275619D01*
X104592333Y-109370857D01*
X104592333Y-109466095D01*
X104544714Y-109561333D01*
X104497095Y-109608952D01*
X104401857Y-109656571D01*
X104068523Y-109656571D01*
X105211380Y-109608952D02*
X105116142Y-109561333D01*
X105068523Y-109513714D01*
X105020904Y-109418476D01*
X105020904Y-109370857D01*
X105068523Y-109275619D01*
X105116142Y-109228000D01*
X105211380Y-109180380D01*
X105401857Y-109180380D01*
X105497095Y-109228000D01*
X105544714Y-109275619D01*
X105592333Y-109370857D01*
X105592333Y-109418476D01*
X105544714Y-109513714D01*
X105497095Y-109561333D01*
X105401857Y-109608952D01*
X105211380Y-109608952D01*
X105116142Y-109656571D01*
X105068523Y-109704190D01*
X105020904Y-109799428D01*
X105020904Y-109989904D01*
X105068523Y-110085142D01*
X105116142Y-110132761D01*
X105211380Y-110180380D01*
X105401857Y-110180380D01*
X105497095Y-110132761D01*
X105544714Y-110085142D01*
X105592333Y-109989904D01*
X105592333Y-109799428D01*
X105544714Y-109704190D01*
X105497095Y-109656571D01*
X105401857Y-109608952D01*
%TO.C,SWB6*%
X92400666Y-91082761D02*
X92543523Y-91130380D01*
X92781619Y-91130380D01*
X92876857Y-91082761D01*
X92924476Y-91035142D01*
X92972095Y-90939904D01*
X92972095Y-90844666D01*
X92924476Y-90749428D01*
X92876857Y-90701809D01*
X92781619Y-90654190D01*
X92591142Y-90606571D01*
X92495904Y-90558952D01*
X92448285Y-90511333D01*
X92400666Y-90416095D01*
X92400666Y-90320857D01*
X92448285Y-90225619D01*
X92495904Y-90178000D01*
X92591142Y-90130380D01*
X92829238Y-90130380D01*
X92972095Y-90178000D01*
X93305428Y-90130380D02*
X93543523Y-91130380D01*
X93734000Y-90416095D01*
X93924476Y-91130380D01*
X94162571Y-90130380D01*
X94876857Y-90606571D02*
X95019714Y-90654190D01*
X95067333Y-90701809D01*
X95114952Y-90797047D01*
X95114952Y-90939904D01*
X95067333Y-91035142D01*
X95019714Y-91082761D01*
X94924476Y-91130380D01*
X94543523Y-91130380D01*
X94543523Y-90130380D01*
X94876857Y-90130380D01*
X94972095Y-90178000D01*
X95019714Y-90225619D01*
X95067333Y-90320857D01*
X95067333Y-90416095D01*
X95019714Y-90511333D01*
X94972095Y-90558952D01*
X94876857Y-90606571D01*
X94543523Y-90606571D01*
X95972095Y-90130380D02*
X95781619Y-90130380D01*
X95686380Y-90178000D01*
X95638761Y-90225619D01*
X95543523Y-90368476D01*
X95495904Y-90558952D01*
X95495904Y-90939904D01*
X95543523Y-91035142D01*
X95591142Y-91082761D01*
X95686380Y-91130380D01*
X95876857Y-91130380D01*
X95972095Y-91082761D01*
X96019714Y-91035142D01*
X96067333Y-90939904D01*
X96067333Y-90701809D01*
X96019714Y-90606571D01*
X95972095Y-90558952D01*
X95876857Y-90511333D01*
X95686380Y-90511333D01*
X95591142Y-90558952D01*
X95543523Y-90606571D01*
X95495904Y-90701809D01*
%TO.C,SWA3*%
X44910595Y-72032761D02*
X45053452Y-72080380D01*
X45291547Y-72080380D01*
X45386785Y-72032761D01*
X45434404Y-71985142D01*
X45482023Y-71889904D01*
X45482023Y-71794666D01*
X45434404Y-71699428D01*
X45386785Y-71651809D01*
X45291547Y-71604190D01*
X45101071Y-71556571D01*
X45005833Y-71508952D01*
X44958214Y-71461333D01*
X44910595Y-71366095D01*
X44910595Y-71270857D01*
X44958214Y-71175619D01*
X45005833Y-71128000D01*
X45101071Y-71080380D01*
X45339166Y-71080380D01*
X45482023Y-71128000D01*
X45815357Y-71080380D02*
X46053452Y-72080380D01*
X46243928Y-71366095D01*
X46434404Y-72080380D01*
X46672500Y-71080380D01*
X47005833Y-71794666D02*
X47482023Y-71794666D01*
X46910595Y-72080380D02*
X47243928Y-71080380D01*
X47577261Y-72080380D01*
X47815357Y-71080380D02*
X48434404Y-71080380D01*
X48101071Y-71461333D01*
X48243928Y-71461333D01*
X48339166Y-71508952D01*
X48386785Y-71556571D01*
X48434404Y-71651809D01*
X48434404Y-71889904D01*
X48386785Y-71985142D01*
X48339166Y-72032761D01*
X48243928Y-72080380D01*
X47958214Y-72080380D01*
X47862976Y-72032761D01*
X47815357Y-71985142D01*
%TO.C,SWA1*%
X40148095Y-52982761D02*
X40290952Y-53030380D01*
X40529047Y-53030380D01*
X40624285Y-52982761D01*
X40671904Y-52935142D01*
X40719523Y-52839904D01*
X40719523Y-52744666D01*
X40671904Y-52649428D01*
X40624285Y-52601809D01*
X40529047Y-52554190D01*
X40338571Y-52506571D01*
X40243333Y-52458952D01*
X40195714Y-52411333D01*
X40148095Y-52316095D01*
X40148095Y-52220857D01*
X40195714Y-52125619D01*
X40243333Y-52078000D01*
X40338571Y-52030380D01*
X40576666Y-52030380D01*
X40719523Y-52078000D01*
X41052857Y-52030380D02*
X41290952Y-53030380D01*
X41481428Y-52316095D01*
X41671904Y-53030380D01*
X41910000Y-52030380D01*
X42243333Y-52744666D02*
X42719523Y-52744666D01*
X42148095Y-53030380D02*
X42481428Y-52030380D01*
X42814761Y-53030380D01*
X43671904Y-53030380D02*
X43100476Y-53030380D01*
X43386190Y-53030380D02*
X43386190Y-52030380D01*
X43290952Y-52173238D01*
X43195714Y-52268476D01*
X43100476Y-52316095D01*
%TO.C,SWG8*%
X254325666Y-110132761D02*
X254468523Y-110180380D01*
X254706619Y-110180380D01*
X254801857Y-110132761D01*
X254849476Y-110085142D01*
X254897095Y-109989904D01*
X254897095Y-109894666D01*
X254849476Y-109799428D01*
X254801857Y-109751809D01*
X254706619Y-109704190D01*
X254516142Y-109656571D01*
X254420904Y-109608952D01*
X254373285Y-109561333D01*
X254325666Y-109466095D01*
X254325666Y-109370857D01*
X254373285Y-109275619D01*
X254420904Y-109228000D01*
X254516142Y-109180380D01*
X254754238Y-109180380D01*
X254897095Y-109228000D01*
X255230428Y-109180380D02*
X255468523Y-110180380D01*
X255659000Y-109466095D01*
X255849476Y-110180380D01*
X256087571Y-109180380D01*
X256992333Y-109228000D02*
X256897095Y-109180380D01*
X256754238Y-109180380D01*
X256611380Y-109228000D01*
X256516142Y-109323238D01*
X256468523Y-109418476D01*
X256420904Y-109608952D01*
X256420904Y-109751809D01*
X256468523Y-109942285D01*
X256516142Y-110037523D01*
X256611380Y-110132761D01*
X256754238Y-110180380D01*
X256849476Y-110180380D01*
X256992333Y-110132761D01*
X257039952Y-110085142D01*
X257039952Y-109751809D01*
X256849476Y-109751809D01*
X257611380Y-109608952D02*
X257516142Y-109561333D01*
X257468523Y-109513714D01*
X257420904Y-109418476D01*
X257420904Y-109370857D01*
X257468523Y-109275619D01*
X257516142Y-109228000D01*
X257611380Y-109180380D01*
X257801857Y-109180380D01*
X257897095Y-109228000D01*
X257944714Y-109275619D01*
X257992333Y-109370857D01*
X257992333Y-109418476D01*
X257944714Y-109513714D01*
X257897095Y-109561333D01*
X257801857Y-109608952D01*
X257611380Y-109608952D01*
X257516142Y-109656571D01*
X257468523Y-109704190D01*
X257420904Y-109799428D01*
X257420904Y-109989904D01*
X257468523Y-110085142D01*
X257516142Y-110132761D01*
X257611380Y-110180380D01*
X257801857Y-110180380D01*
X257897095Y-110132761D01*
X257944714Y-110085142D01*
X257992333Y-109989904D01*
X257992333Y-109799428D01*
X257944714Y-109704190D01*
X257897095Y-109656571D01*
X257801857Y-109608952D01*
%TO.C,J2*%
X334946666Y-72814380D02*
X334946666Y-73528666D01*
X334899047Y-73671523D01*
X334803809Y-73766761D01*
X334660952Y-73814380D01*
X334565714Y-73814380D01*
X335375238Y-72909619D02*
X335422857Y-72862000D01*
X335518095Y-72814380D01*
X335756190Y-72814380D01*
X335851428Y-72862000D01*
X335899047Y-72909619D01*
X335946666Y-73004857D01*
X335946666Y-73100095D01*
X335899047Y-73242952D01*
X335327619Y-73814380D01*
X335946666Y-73814380D01*
%TO.C,SWJ2*%
X350075714Y-72032761D02*
X350218571Y-72080380D01*
X350456666Y-72080380D01*
X350551904Y-72032761D01*
X350599523Y-71985142D01*
X350647142Y-71889904D01*
X350647142Y-71794666D01*
X350599523Y-71699428D01*
X350551904Y-71651809D01*
X350456666Y-71604190D01*
X350266190Y-71556571D01*
X350170952Y-71508952D01*
X350123333Y-71461333D01*
X350075714Y-71366095D01*
X350075714Y-71270857D01*
X350123333Y-71175619D01*
X350170952Y-71128000D01*
X350266190Y-71080380D01*
X350504285Y-71080380D01*
X350647142Y-71128000D01*
X350980476Y-71080380D02*
X351218571Y-72080380D01*
X351409047Y-71366095D01*
X351599523Y-72080380D01*
X351837619Y-71080380D01*
X352504285Y-71080380D02*
X352504285Y-71794666D01*
X352456666Y-71937523D01*
X352361428Y-72032761D01*
X352218571Y-72080380D01*
X352123333Y-72080380D01*
X352932857Y-71175619D02*
X352980476Y-71128000D01*
X353075714Y-71080380D01*
X353313809Y-71080380D01*
X353409047Y-71128000D01*
X353456666Y-71175619D01*
X353504285Y-71270857D01*
X353504285Y-71366095D01*
X353456666Y-71508952D01*
X352885238Y-72080380D01*
X353504285Y-72080380D01*
%TO.C,SWJ1*%
X344995714Y-52982761D02*
X345138571Y-53030380D01*
X345376666Y-53030380D01*
X345471904Y-52982761D01*
X345519523Y-52935142D01*
X345567142Y-52839904D01*
X345567142Y-52744666D01*
X345519523Y-52649428D01*
X345471904Y-52601809D01*
X345376666Y-52554190D01*
X345186190Y-52506571D01*
X345090952Y-52458952D01*
X345043333Y-52411333D01*
X344995714Y-52316095D01*
X344995714Y-52220857D01*
X345043333Y-52125619D01*
X345090952Y-52078000D01*
X345186190Y-52030380D01*
X345424285Y-52030380D01*
X345567142Y-52078000D01*
X345900476Y-52030380D02*
X346138571Y-53030380D01*
X346329047Y-52316095D01*
X346519523Y-53030380D01*
X346757619Y-52030380D01*
X347424285Y-52030380D02*
X347424285Y-52744666D01*
X347376666Y-52887523D01*
X347281428Y-52982761D01*
X347138571Y-53030380D01*
X347043333Y-53030380D01*
X348424285Y-53030380D02*
X347852857Y-53030380D01*
X348138571Y-53030380D02*
X348138571Y-52030380D01*
X348043333Y-52173238D01*
X347948095Y-52268476D01*
X347852857Y-52316095D01*
%TO.C,SWJ3*%
X344995714Y-91082761D02*
X345138571Y-91130380D01*
X345376666Y-91130380D01*
X345471904Y-91082761D01*
X345519523Y-91035142D01*
X345567142Y-90939904D01*
X345567142Y-90844666D01*
X345519523Y-90749428D01*
X345471904Y-90701809D01*
X345376666Y-90654190D01*
X345186190Y-90606571D01*
X345090952Y-90558952D01*
X345043333Y-90511333D01*
X344995714Y-90416095D01*
X344995714Y-90320857D01*
X345043333Y-90225619D01*
X345090952Y-90178000D01*
X345186190Y-90130380D01*
X345424285Y-90130380D01*
X345567142Y-90178000D01*
X345900476Y-90130380D02*
X346138571Y-91130380D01*
X346329047Y-90416095D01*
X346519523Y-91130380D01*
X346757619Y-90130380D01*
X347424285Y-90130380D02*
X347424285Y-90844666D01*
X347376666Y-90987523D01*
X347281428Y-91082761D01*
X347138571Y-91130380D01*
X347043333Y-91130380D01*
X347805238Y-90130380D02*
X348424285Y-90130380D01*
X348090952Y-90511333D01*
X348233809Y-90511333D01*
X348329047Y-90558952D01*
X348376666Y-90606571D01*
X348424285Y-90701809D01*
X348424285Y-90939904D01*
X348376666Y-91035142D01*
X348329047Y-91082761D01*
X348233809Y-91130380D01*
X347948095Y-91130380D01*
X347852857Y-91082761D01*
X347805238Y-91035142D01*
%TO.C,SWJ6*%
X325818714Y-129182761D02*
X325961571Y-129230380D01*
X326199666Y-129230380D01*
X326294904Y-129182761D01*
X326342523Y-129135142D01*
X326390142Y-129039904D01*
X326390142Y-128944666D01*
X326342523Y-128849428D01*
X326294904Y-128801809D01*
X326199666Y-128754190D01*
X326009190Y-128706571D01*
X325913952Y-128658952D01*
X325866333Y-128611333D01*
X325818714Y-128516095D01*
X325818714Y-128420857D01*
X325866333Y-128325619D01*
X325913952Y-128278000D01*
X326009190Y-128230380D01*
X326247285Y-128230380D01*
X326390142Y-128278000D01*
X326723476Y-128230380D02*
X326961571Y-129230380D01*
X327152047Y-128516095D01*
X327342523Y-129230380D01*
X327580619Y-128230380D01*
X328247285Y-128230380D02*
X328247285Y-128944666D01*
X328199666Y-129087523D01*
X328104428Y-129182761D01*
X327961571Y-129230380D01*
X327866333Y-129230380D01*
X329152047Y-128230380D02*
X328961571Y-128230380D01*
X328866333Y-128278000D01*
X328818714Y-128325619D01*
X328723476Y-128468476D01*
X328675857Y-128658952D01*
X328675857Y-129039904D01*
X328723476Y-129135142D01*
X328771095Y-129182761D01*
X328866333Y-129230380D01*
X329056809Y-129230380D01*
X329152047Y-129182761D01*
X329199666Y-129135142D01*
X329247285Y-129039904D01*
X329247285Y-128801809D01*
X329199666Y-128706571D01*
X329152047Y-128658952D01*
X329056809Y-128611333D01*
X328866333Y-128611333D01*
X328771095Y-128658952D01*
X328723476Y-128706571D01*
X328675857Y-128801809D01*
%TO.C,SWJ4*%
X325818714Y-110132761D02*
X325961571Y-110180380D01*
X326199666Y-110180380D01*
X326294904Y-110132761D01*
X326342523Y-110085142D01*
X326390142Y-109989904D01*
X326390142Y-109894666D01*
X326342523Y-109799428D01*
X326294904Y-109751809D01*
X326199666Y-109704190D01*
X326009190Y-109656571D01*
X325913952Y-109608952D01*
X325866333Y-109561333D01*
X325818714Y-109466095D01*
X325818714Y-109370857D01*
X325866333Y-109275619D01*
X325913952Y-109228000D01*
X326009190Y-109180380D01*
X326247285Y-109180380D01*
X326390142Y-109228000D01*
X326723476Y-109180380D02*
X326961571Y-110180380D01*
X327152047Y-109466095D01*
X327342523Y-110180380D01*
X327580619Y-109180380D01*
X328247285Y-109180380D02*
X328247285Y-109894666D01*
X328199666Y-110037523D01*
X328104428Y-110132761D01*
X327961571Y-110180380D01*
X327866333Y-110180380D01*
X329152047Y-109513714D02*
X329152047Y-110180380D01*
X328913952Y-109132761D02*
X328675857Y-109847047D01*
X329294904Y-109847047D01*
%TO.C,SW1*%
X331608261Y-68987333D02*
X331655880Y-68844476D01*
X331655880Y-68606380D01*
X331608261Y-68511142D01*
X331560642Y-68463523D01*
X331465404Y-68415904D01*
X331370166Y-68415904D01*
X331274928Y-68463523D01*
X331227309Y-68511142D01*
X331179690Y-68606380D01*
X331132071Y-68796857D01*
X331084452Y-68892095D01*
X331036833Y-68939714D01*
X330941595Y-68987333D01*
X330846357Y-68987333D01*
X330751119Y-68939714D01*
X330703500Y-68892095D01*
X330655880Y-68796857D01*
X330655880Y-68558761D01*
X330703500Y-68415904D01*
X330655880Y-68082571D02*
X331655880Y-67844476D01*
X330941595Y-67654000D01*
X331655880Y-67463523D01*
X330655880Y-67225428D01*
X331655880Y-66320666D02*
X331655880Y-66892095D01*
X331655880Y-66606380D02*
X330655880Y-66606380D01*
X330798738Y-66701619D01*
X330893976Y-66796857D01*
X330941595Y-66892095D01*
%TO.C,R10*%
X57904142Y-89479380D02*
X57570809Y-89003190D01*
X57332714Y-89479380D02*
X57332714Y-88479380D01*
X57713666Y-88479380D01*
X57808904Y-88527000D01*
X57856523Y-88574619D01*
X57904142Y-88669857D01*
X57904142Y-88812714D01*
X57856523Y-88907952D01*
X57808904Y-88955571D01*
X57713666Y-89003190D01*
X57332714Y-89003190D01*
X58856523Y-89479380D02*
X58285095Y-89479380D01*
X58570809Y-89479380D02*
X58570809Y-88479380D01*
X58475571Y-88622238D01*
X58380333Y-88717476D01*
X58285095Y-88765095D01*
X59475571Y-88479380D02*
X59570809Y-88479380D01*
X59666047Y-88527000D01*
X59713666Y-88574619D01*
X59761285Y-88669857D01*
X59808904Y-88860333D01*
X59808904Y-89098428D01*
X59761285Y-89288904D01*
X59713666Y-89384142D01*
X59666047Y-89431761D01*
X59570809Y-89479380D01*
X59475571Y-89479380D01*
X59380333Y-89431761D01*
X59332714Y-89384142D01*
X59285095Y-89288904D01*
X59237476Y-89098428D01*
X59237476Y-88860333D01*
X59285095Y-88669857D01*
X59332714Y-88574619D01*
X59380333Y-88527000D01*
X59475571Y-88479380D01*
%TO.C,D3*%
X346606904Y-110490380D02*
X346606904Y-109490380D01*
X346845000Y-109490380D01*
X346987857Y-109538000D01*
X347083095Y-109633238D01*
X347130714Y-109728476D01*
X347178333Y-109918952D01*
X347178333Y-110061809D01*
X347130714Y-110252285D01*
X347083095Y-110347523D01*
X346987857Y-110442761D01*
X346845000Y-110490380D01*
X346606904Y-110490380D01*
X347511666Y-109490380D02*
X348130714Y-109490380D01*
X347797380Y-109871333D01*
X347940238Y-109871333D01*
X348035476Y-109918952D01*
X348083095Y-109966571D01*
X348130714Y-110061809D01*
X348130714Y-110299904D01*
X348083095Y-110395142D01*
X348035476Y-110442761D01*
X347940238Y-110490380D01*
X347654523Y-110490380D01*
X347559285Y-110442761D01*
X347511666Y-110395142D01*
%TO.C,D2*%
X349527904Y-126888380D02*
X349527904Y-125888380D01*
X349766000Y-125888380D01*
X349908857Y-125936000D01*
X350004095Y-126031238D01*
X350051714Y-126126476D01*
X350099333Y-126316952D01*
X350099333Y-126459809D01*
X350051714Y-126650285D01*
X350004095Y-126745523D01*
X349908857Y-126840761D01*
X349766000Y-126888380D01*
X349527904Y-126888380D01*
X350480285Y-125983619D02*
X350527904Y-125936000D01*
X350623142Y-125888380D01*
X350861238Y-125888380D01*
X350956476Y-125936000D01*
X351004095Y-125983619D01*
X351051714Y-126078857D01*
X351051714Y-126174095D01*
X351004095Y-126316952D01*
X350432666Y-126888380D01*
X351051714Y-126888380D01*
%TO.C,C10*%
X318635142Y-64873142D02*
X318587523Y-64920761D01*
X318444666Y-64968380D01*
X318349428Y-64968380D01*
X318206571Y-64920761D01*
X318111333Y-64825523D01*
X318063714Y-64730285D01*
X318016095Y-64539809D01*
X318016095Y-64396952D01*
X318063714Y-64206476D01*
X318111333Y-64111238D01*
X318206571Y-64016000D01*
X318349428Y-63968380D01*
X318444666Y-63968380D01*
X318587523Y-64016000D01*
X318635142Y-64063619D01*
X319587523Y-64968380D02*
X319016095Y-64968380D01*
X319301809Y-64968380D02*
X319301809Y-63968380D01*
X319206571Y-64111238D01*
X319111333Y-64206476D01*
X319016095Y-64254095D01*
X320206571Y-63968380D02*
X320301809Y-63968380D01*
X320397047Y-64016000D01*
X320444666Y-64063619D01*
X320492285Y-64158857D01*
X320539904Y-64349333D01*
X320539904Y-64587428D01*
X320492285Y-64777904D01*
X320444666Y-64873142D01*
X320397047Y-64920761D01*
X320301809Y-64968380D01*
X320206571Y-64968380D01*
X320111333Y-64920761D01*
X320063714Y-64873142D01*
X320016095Y-64777904D01*
X319968476Y-64587428D01*
X319968476Y-64349333D01*
X320016095Y-64158857D01*
X320063714Y-64063619D01*
X320111333Y-64016000D01*
X320206571Y-63968380D01*
%TO.C,C9*%
X324699333Y-78843142D02*
X324651714Y-78890761D01*
X324508857Y-78938380D01*
X324413619Y-78938380D01*
X324270761Y-78890761D01*
X324175523Y-78795523D01*
X324127904Y-78700285D01*
X324080285Y-78509809D01*
X324080285Y-78366952D01*
X324127904Y-78176476D01*
X324175523Y-78081238D01*
X324270761Y-77986000D01*
X324413619Y-77938380D01*
X324508857Y-77938380D01*
X324651714Y-77986000D01*
X324699333Y-78033619D01*
X325175523Y-78938380D02*
X325366000Y-78938380D01*
X325461238Y-78890761D01*
X325508857Y-78843142D01*
X325604095Y-78700285D01*
X325651714Y-78509809D01*
X325651714Y-78128857D01*
X325604095Y-78033619D01*
X325556476Y-77986000D01*
X325461238Y-77938380D01*
X325270761Y-77938380D01*
X325175523Y-77986000D01*
X325127904Y-78033619D01*
X325080285Y-78128857D01*
X325080285Y-78366952D01*
X325127904Y-78462190D01*
X325175523Y-78509809D01*
X325270761Y-78557428D01*
X325461238Y-78557428D01*
X325556476Y-78509809D01*
X325604095Y-78462190D01*
X325651714Y-78366952D01*
%TO.C,C8*%
X324699333Y-80367142D02*
X324651714Y-80414761D01*
X324508857Y-80462380D01*
X324413619Y-80462380D01*
X324270761Y-80414761D01*
X324175523Y-80319523D01*
X324127904Y-80224285D01*
X324080285Y-80033809D01*
X324080285Y-79890952D01*
X324127904Y-79700476D01*
X324175523Y-79605238D01*
X324270761Y-79510000D01*
X324413619Y-79462380D01*
X324508857Y-79462380D01*
X324651714Y-79510000D01*
X324699333Y-79557619D01*
X325270761Y-79890952D02*
X325175523Y-79843333D01*
X325127904Y-79795714D01*
X325080285Y-79700476D01*
X325080285Y-79652857D01*
X325127904Y-79557619D01*
X325175523Y-79510000D01*
X325270761Y-79462380D01*
X325461238Y-79462380D01*
X325556476Y-79510000D01*
X325604095Y-79557619D01*
X325651714Y-79652857D01*
X325651714Y-79700476D01*
X325604095Y-79795714D01*
X325556476Y-79843333D01*
X325461238Y-79890952D01*
X325270761Y-79890952D01*
X325175523Y-79938571D01*
X325127904Y-79986190D01*
X325080285Y-80081428D01*
X325080285Y-80271904D01*
X325127904Y-80367142D01*
X325175523Y-80414761D01*
X325270761Y-80462380D01*
X325461238Y-80462380D01*
X325556476Y-80414761D01*
X325604095Y-80367142D01*
X325651714Y-80271904D01*
X325651714Y-80081428D01*
X325604095Y-79986190D01*
X325556476Y-79938571D01*
X325461238Y-79890952D01*
%TO.C,C7*%
X324699333Y-83415142D02*
X324651714Y-83462761D01*
X324508857Y-83510380D01*
X324413619Y-83510380D01*
X324270761Y-83462761D01*
X324175523Y-83367523D01*
X324127904Y-83272285D01*
X324080285Y-83081809D01*
X324080285Y-82938952D01*
X324127904Y-82748476D01*
X324175523Y-82653238D01*
X324270761Y-82558000D01*
X324413619Y-82510380D01*
X324508857Y-82510380D01*
X324651714Y-82558000D01*
X324699333Y-82605619D01*
X325032666Y-82510380D02*
X325699333Y-82510380D01*
X325270761Y-83510380D01*
%TO.C,C6*%
X324699333Y-81891302D02*
X324651714Y-81938921D01*
X324508857Y-81986540D01*
X324413619Y-81986540D01*
X324270761Y-81938921D01*
X324175523Y-81843683D01*
X324127904Y-81748445D01*
X324080285Y-81557969D01*
X324080285Y-81415112D01*
X324127904Y-81224636D01*
X324175523Y-81129398D01*
X324270761Y-81034160D01*
X324413619Y-80986540D01*
X324508857Y-80986540D01*
X324651714Y-81034160D01*
X324699333Y-81081779D01*
X325556476Y-80986540D02*
X325366000Y-80986540D01*
X325270761Y-81034160D01*
X325223142Y-81081779D01*
X325127904Y-81224636D01*
X325080285Y-81415112D01*
X325080285Y-81796064D01*
X325127904Y-81891302D01*
X325175523Y-81938921D01*
X325270761Y-81986540D01*
X325461238Y-81986540D01*
X325556476Y-81938921D01*
X325604095Y-81891302D01*
X325651714Y-81796064D01*
X325651714Y-81557969D01*
X325604095Y-81462731D01*
X325556476Y-81415112D01*
X325461238Y-81367493D01*
X325270761Y-81367493D01*
X325175523Y-81415112D01*
X325127904Y-81462731D01*
X325080285Y-81557969D01*
%TO.C,C5*%
X343749333Y-118975142D02*
X343701714Y-119022761D01*
X343558857Y-119070380D01*
X343463619Y-119070380D01*
X343320761Y-119022761D01*
X343225523Y-118927523D01*
X343177904Y-118832285D01*
X343130285Y-118641809D01*
X343130285Y-118498952D01*
X343177904Y-118308476D01*
X343225523Y-118213238D01*
X343320761Y-118118000D01*
X343463619Y-118070380D01*
X343558857Y-118070380D01*
X343701714Y-118118000D01*
X343749333Y-118165619D01*
X344654095Y-118070380D02*
X344177904Y-118070380D01*
X344130285Y-118546571D01*
X344177904Y-118498952D01*
X344273142Y-118451333D01*
X344511238Y-118451333D01*
X344606476Y-118498952D01*
X344654095Y-118546571D01*
X344701714Y-118641809D01*
X344701714Y-118879904D01*
X344654095Y-118975142D01*
X344606476Y-119022761D01*
X344511238Y-119070380D01*
X344273142Y-119070380D01*
X344177904Y-119022761D01*
X344130285Y-118975142D01*
%TO.C,C3*%
X352131333Y-118975142D02*
X352083714Y-119022761D01*
X351940857Y-119070380D01*
X351845619Y-119070380D01*
X351702761Y-119022761D01*
X351607523Y-118927523D01*
X351559904Y-118832285D01*
X351512285Y-118641809D01*
X351512285Y-118498952D01*
X351559904Y-118308476D01*
X351607523Y-118213238D01*
X351702761Y-118118000D01*
X351845619Y-118070380D01*
X351940857Y-118070380D01*
X352083714Y-118118000D01*
X352131333Y-118165619D01*
X352464666Y-118070380D02*
X353083714Y-118070380D01*
X352750380Y-118451333D01*
X352893238Y-118451333D01*
X352988476Y-118498952D01*
X353036095Y-118546571D01*
X353083714Y-118641809D01*
X353083714Y-118879904D01*
X353036095Y-118975142D01*
X352988476Y-119022761D01*
X352893238Y-119070380D01*
X352607523Y-119070380D01*
X352512285Y-119022761D01*
X352464666Y-118975142D01*
%TO.C,C2*%
X347914933Y-118263942D02*
X347867314Y-118311561D01*
X347724457Y-118359180D01*
X347629219Y-118359180D01*
X347486361Y-118311561D01*
X347391123Y-118216323D01*
X347343504Y-118121085D01*
X347295885Y-117930609D01*
X347295885Y-117787752D01*
X347343504Y-117597276D01*
X347391123Y-117502038D01*
X347486361Y-117406800D01*
X347629219Y-117359180D01*
X347724457Y-117359180D01*
X347867314Y-117406800D01*
X347914933Y-117454419D01*
X348295885Y-117454419D02*
X348343504Y-117406800D01*
X348438742Y-117359180D01*
X348676838Y-117359180D01*
X348772076Y-117406800D01*
X348819695Y-117454419D01*
X348867314Y-117549657D01*
X348867314Y-117644895D01*
X348819695Y-117787752D01*
X348248266Y-118359180D01*
X348867314Y-118359180D01*
%TO.C,C1*%
X339685333Y-118213142D02*
X339637714Y-118260761D01*
X339494857Y-118308380D01*
X339399619Y-118308380D01*
X339256761Y-118260761D01*
X339161523Y-118165523D01*
X339113904Y-118070285D01*
X339066285Y-117879809D01*
X339066285Y-117736952D01*
X339113904Y-117546476D01*
X339161523Y-117451238D01*
X339256761Y-117356000D01*
X339399619Y-117308380D01*
X339494857Y-117308380D01*
X339637714Y-117356000D01*
X339685333Y-117403619D01*
X340637714Y-118308380D02*
X340066285Y-118308380D01*
X340352000Y-118308380D02*
X340352000Y-117308380D01*
X340256761Y-117451238D01*
X340161523Y-117546476D01*
X340066285Y-117594095D01*
%TO.C,C11*%
X318381142Y-70461142D02*
X318333523Y-70508761D01*
X318190666Y-70556380D01*
X318095428Y-70556380D01*
X317952571Y-70508761D01*
X317857333Y-70413523D01*
X317809714Y-70318285D01*
X317762095Y-70127809D01*
X317762095Y-69984952D01*
X317809714Y-69794476D01*
X317857333Y-69699238D01*
X317952571Y-69604000D01*
X318095428Y-69556380D01*
X318190666Y-69556380D01*
X318333523Y-69604000D01*
X318381142Y-69651619D01*
X319333523Y-70556380D02*
X318762095Y-70556380D01*
X319047809Y-70556380D02*
X319047809Y-69556380D01*
X318952571Y-69699238D01*
X318857333Y-69794476D01*
X318762095Y-69842095D01*
X320285904Y-70556380D02*
X319714476Y-70556380D01*
X320000190Y-70556380D02*
X320000190Y-69556380D01*
X319904952Y-69699238D01*
X319809714Y-69794476D01*
X319714476Y-69842095D01*
%TO.C,D1*%
X341145904Y-126888380D02*
X341145904Y-125888380D01*
X341384000Y-125888380D01*
X341526857Y-125936000D01*
X341622095Y-126031238D01*
X341669714Y-126126476D01*
X341717333Y-126316952D01*
X341717333Y-126459809D01*
X341669714Y-126650285D01*
X341622095Y-126745523D01*
X341526857Y-126840761D01*
X341384000Y-126888380D01*
X341145904Y-126888380D01*
X342669714Y-126888380D02*
X342098285Y-126888380D01*
X342384000Y-126888380D02*
X342384000Y-125888380D01*
X342288761Y-126031238D01*
X342193523Y-126126476D01*
X342098285Y-126174095D01*
%TO.C,D4*%
X341145904Y-110490380D02*
X341145904Y-109490380D01*
X341384000Y-109490380D01*
X341526857Y-109538000D01*
X341622095Y-109633238D01*
X341669714Y-109728476D01*
X341717333Y-109918952D01*
X341717333Y-110061809D01*
X341669714Y-110252285D01*
X341622095Y-110347523D01*
X341526857Y-110442761D01*
X341384000Y-110490380D01*
X341145904Y-110490380D01*
X342574476Y-109823714D02*
X342574476Y-110490380D01*
X342336380Y-109442761D02*
X342098285Y-110157047D01*
X342717333Y-110157047D01*
%TO.C,D5*%
X64920904Y-91129380D02*
X64920904Y-90129380D01*
X65159000Y-90129380D01*
X65301857Y-90177000D01*
X65397095Y-90272238D01*
X65444714Y-90367476D01*
X65492333Y-90557952D01*
X65492333Y-90700809D01*
X65444714Y-90891285D01*
X65397095Y-90986523D01*
X65301857Y-91081761D01*
X65159000Y-91129380D01*
X64920904Y-91129380D01*
X66397095Y-90129380D02*
X65920904Y-90129380D01*
X65873285Y-90605571D01*
X65920904Y-90557952D01*
X66016142Y-90510333D01*
X66254238Y-90510333D01*
X66349476Y-90557952D01*
X66397095Y-90605571D01*
X66444714Y-90700809D01*
X66444714Y-90938904D01*
X66397095Y-91034142D01*
X66349476Y-91081761D01*
X66254238Y-91129380D01*
X66016142Y-91129380D01*
X65920904Y-91081761D01*
X65873285Y-91034142D01*
%TO.C,D6*%
X323365904Y-104846380D02*
X323365904Y-103846380D01*
X323604000Y-103846380D01*
X323746857Y-103894000D01*
X323842095Y-103989238D01*
X323889714Y-104084476D01*
X323937333Y-104274952D01*
X323937333Y-104417809D01*
X323889714Y-104608285D01*
X323842095Y-104703523D01*
X323746857Y-104798761D01*
X323604000Y-104846380D01*
X323365904Y-104846380D01*
X324794476Y-103846380D02*
X324604000Y-103846380D01*
X324508761Y-103894000D01*
X324461142Y-103941619D01*
X324365904Y-104084476D01*
X324318285Y-104274952D01*
X324318285Y-104655904D01*
X324365904Y-104751142D01*
X324413523Y-104798761D01*
X324508761Y-104846380D01*
X324699238Y-104846380D01*
X324794476Y-104798761D01*
X324842095Y-104751142D01*
X324889714Y-104655904D01*
X324889714Y-104417809D01*
X324842095Y-104322571D01*
X324794476Y-104274952D01*
X324699238Y-104227333D01*
X324508761Y-104227333D01*
X324413523Y-104274952D01*
X324365904Y-104322571D01*
X324318285Y-104417809D01*
%TO.C,H1*%
X50546095Y-67356380D02*
X50546095Y-66356380D01*
X50546095Y-66832571D02*
X51117523Y-66832571D01*
X51117523Y-67356380D02*
X51117523Y-66356380D01*
X52117523Y-67356380D02*
X51546095Y-67356380D01*
X51831809Y-67356380D02*
X51831809Y-66356380D01*
X51736571Y-66499238D01*
X51641333Y-66594476D01*
X51546095Y-66642095D01*
%TO.C,H2*%
X107950095Y-67356380D02*
X107950095Y-66356380D01*
X107950095Y-66832571D02*
X108521523Y-66832571D01*
X108521523Y-67356380D02*
X108521523Y-66356380D01*
X108950095Y-66451619D02*
X108997714Y-66404000D01*
X109092952Y-66356380D01*
X109331047Y-66356380D01*
X109426285Y-66404000D01*
X109473904Y-66451619D01*
X109521523Y-66546857D01*
X109521523Y-66642095D01*
X109473904Y-66784952D01*
X108902476Y-67356380D01*
X109521523Y-67356380D01*
%TO.C,H3*%
X165100095Y-67356380D02*
X165100095Y-66356380D01*
X165100095Y-66832571D02*
X165671523Y-66832571D01*
X165671523Y-67356380D02*
X165671523Y-66356380D01*
X166052476Y-66356380D02*
X166671523Y-66356380D01*
X166338190Y-66737333D01*
X166481047Y-66737333D01*
X166576285Y-66784952D01*
X166623904Y-66832571D01*
X166671523Y-66927809D01*
X166671523Y-67165904D01*
X166623904Y-67261142D01*
X166576285Y-67308761D01*
X166481047Y-67356380D01*
X166195333Y-67356380D01*
X166100095Y-67308761D01*
X166052476Y-67261142D01*
%TO.C,H4*%
X222250095Y-67356380D02*
X222250095Y-66356380D01*
X222250095Y-66832571D02*
X222821523Y-66832571D01*
X222821523Y-67356380D02*
X222821523Y-66356380D01*
X223726285Y-66689714D02*
X223726285Y-67356380D01*
X223488190Y-66308761D02*
X223250095Y-67023047D01*
X223869142Y-67023047D01*
%TO.C,H5*%
X279400095Y-67356380D02*
X279400095Y-66356380D01*
X279400095Y-66832571D02*
X279971523Y-66832571D01*
X279971523Y-67356380D02*
X279971523Y-66356380D01*
X280923904Y-66356380D02*
X280447714Y-66356380D01*
X280400095Y-66832571D01*
X280447714Y-66784952D01*
X280542952Y-66737333D01*
X280781047Y-66737333D01*
X280876285Y-66784952D01*
X280923904Y-66832571D01*
X280971523Y-66927809D01*
X280971523Y-67165904D01*
X280923904Y-67261142D01*
X280876285Y-67308761D01*
X280781047Y-67356380D01*
X280542952Y-67356380D01*
X280447714Y-67308761D01*
X280400095Y-67261142D01*
%TO.C,H6*%
X313436095Y-57958380D02*
X313436095Y-56958380D01*
X313436095Y-57434571D02*
X314007523Y-57434571D01*
X314007523Y-57958380D02*
X314007523Y-56958380D01*
X314912285Y-56958380D02*
X314721809Y-56958380D01*
X314626571Y-57006000D01*
X314578952Y-57053619D01*
X314483714Y-57196476D01*
X314436095Y-57386952D01*
X314436095Y-57767904D01*
X314483714Y-57863142D01*
X314531333Y-57910761D01*
X314626571Y-57958380D01*
X314817047Y-57958380D01*
X314912285Y-57910761D01*
X314959904Y-57863142D01*
X315007523Y-57767904D01*
X315007523Y-57529809D01*
X314959904Y-57434571D01*
X314912285Y-57386952D01*
X314817047Y-57339333D01*
X314626571Y-57339333D01*
X314531333Y-57386952D01*
X314483714Y-57434571D01*
X314436095Y-57529809D01*
%TO.C,H7*%
X342773095Y-70302380D02*
X342773095Y-69302380D01*
X342773095Y-69778571D02*
X343344523Y-69778571D01*
X343344523Y-70302380D02*
X343344523Y-69302380D01*
X343725476Y-69302380D02*
X344392142Y-69302380D01*
X343963571Y-70302380D01*
%TO.C,H8*%
X61468095Y-99614380D02*
X61468095Y-98614380D01*
X61468095Y-99090571D02*
X62039523Y-99090571D01*
X62039523Y-99614380D02*
X62039523Y-98614380D01*
X62658571Y-99042952D02*
X62563333Y-98995333D01*
X62515714Y-98947714D01*
X62468095Y-98852476D01*
X62468095Y-98804857D01*
X62515714Y-98709619D01*
X62563333Y-98662000D01*
X62658571Y-98614380D01*
X62849047Y-98614380D01*
X62944285Y-98662000D01*
X62991904Y-98709619D01*
X63039523Y-98804857D01*
X63039523Y-98852476D01*
X62991904Y-98947714D01*
X62944285Y-98995333D01*
X62849047Y-99042952D01*
X62658571Y-99042952D01*
X62563333Y-99090571D01*
X62515714Y-99138190D01*
X62468095Y-99233428D01*
X62468095Y-99423904D01*
X62515714Y-99519142D01*
X62563333Y-99566761D01*
X62658571Y-99614380D01*
X62849047Y-99614380D01*
X62944285Y-99566761D01*
X62991904Y-99519142D01*
X63039523Y-99423904D01*
X63039523Y-99233428D01*
X62991904Y-99138190D01*
X62944285Y-99090571D01*
X62849047Y-99042952D01*
%TO.C,H9*%
X122174095Y-105202380D02*
X122174095Y-104202380D01*
X122174095Y-104678571D02*
X122745523Y-104678571D01*
X122745523Y-105202380D02*
X122745523Y-104202380D01*
X123269333Y-105202380D02*
X123459809Y-105202380D01*
X123555047Y-105154761D01*
X123602666Y-105107142D01*
X123697904Y-104964285D01*
X123745523Y-104773809D01*
X123745523Y-104392857D01*
X123697904Y-104297619D01*
X123650285Y-104250000D01*
X123555047Y-104202380D01*
X123364571Y-104202380D01*
X123269333Y-104250000D01*
X123221714Y-104297619D01*
X123174095Y-104392857D01*
X123174095Y-104630952D01*
X123221714Y-104726190D01*
X123269333Y-104773809D01*
X123364571Y-104821428D01*
X123555047Y-104821428D01*
X123650285Y-104773809D01*
X123697904Y-104726190D01*
X123745523Y-104630952D01*
%TO.C,H10*%
X193706904Y-89352380D02*
X193706904Y-88352380D01*
X193706904Y-88828571D02*
X194278333Y-88828571D01*
X194278333Y-89352380D02*
X194278333Y-88352380D01*
X195278333Y-89352380D02*
X194706904Y-89352380D01*
X194992619Y-89352380D02*
X194992619Y-88352380D01*
X194897380Y-88495238D01*
X194802142Y-88590476D01*
X194706904Y-88638095D01*
X195897380Y-88352380D02*
X195992619Y-88352380D01*
X196087857Y-88400000D01*
X196135476Y-88447619D01*
X196183095Y-88542857D01*
X196230714Y-88733333D01*
X196230714Y-88971428D01*
X196183095Y-89161904D01*
X196135476Y-89257142D01*
X196087857Y-89304761D01*
X195992619Y-89352380D01*
X195897380Y-89352380D01*
X195802142Y-89304761D01*
X195754523Y-89257142D01*
X195706904Y-89161904D01*
X195659285Y-88971428D01*
X195659285Y-88733333D01*
X195706904Y-88542857D01*
X195754523Y-88447619D01*
X195802142Y-88400000D01*
X195897380Y-88352380D01*
%TO.C,H11*%
X250856904Y-89352380D02*
X250856904Y-88352380D01*
X250856904Y-88828571D02*
X251428333Y-88828571D01*
X251428333Y-89352380D02*
X251428333Y-88352380D01*
X252428333Y-89352380D02*
X251856904Y-89352380D01*
X252142619Y-89352380D02*
X252142619Y-88352380D01*
X252047380Y-88495238D01*
X251952142Y-88590476D01*
X251856904Y-88638095D01*
X253380714Y-89352380D02*
X252809285Y-89352380D01*
X253095000Y-89352380D02*
X253095000Y-88352380D01*
X252999761Y-88495238D01*
X252904523Y-88590476D01*
X252809285Y-88638095D01*
%TO.C,H12*%
X311689904Y-112060380D02*
X311689904Y-111060380D01*
X311689904Y-111536571D02*
X312261333Y-111536571D01*
X312261333Y-112060380D02*
X312261333Y-111060380D01*
X313261333Y-112060380D02*
X312689904Y-112060380D01*
X312975619Y-112060380D02*
X312975619Y-111060380D01*
X312880380Y-111203238D01*
X312785142Y-111298476D01*
X312689904Y-111346095D01*
X313642285Y-111155619D02*
X313689904Y-111108000D01*
X313785142Y-111060380D01*
X314023238Y-111060380D01*
X314118476Y-111108000D01*
X314166095Y-111155619D01*
X314213714Y-111250857D01*
X314213714Y-111346095D01*
X314166095Y-111488952D01*
X313594666Y-112060380D01*
X314213714Y-112060380D01*
%TO.C,H13*%
X345471904Y-108402380D02*
X345471904Y-107402380D01*
X345471904Y-107878571D02*
X346043333Y-107878571D01*
X346043333Y-108402380D02*
X346043333Y-107402380D01*
X347043333Y-108402380D02*
X346471904Y-108402380D01*
X346757619Y-108402380D02*
X346757619Y-107402380D01*
X346662380Y-107545238D01*
X346567142Y-107640476D01*
X346471904Y-107688095D01*
X347376666Y-107402380D02*
X347995714Y-107402380D01*
X347662380Y-107783333D01*
X347805238Y-107783333D01*
X347900476Y-107830952D01*
X347948095Y-107878571D01*
X347995714Y-107973809D01*
X347995714Y-108211904D01*
X347948095Y-108307142D01*
X347900476Y-108354761D01*
X347805238Y-108402380D01*
X347519523Y-108402380D01*
X347424285Y-108354761D01*
X347376666Y-108307142D01*
%TO.C,H14*%
X54895904Y-125776380D02*
X54895904Y-124776380D01*
X54895904Y-125252571D02*
X55467333Y-125252571D01*
X55467333Y-125776380D02*
X55467333Y-124776380D01*
X56467333Y-125776380D02*
X55895904Y-125776380D01*
X56181619Y-125776380D02*
X56181619Y-124776380D01*
X56086380Y-124919238D01*
X55991142Y-125014476D01*
X55895904Y-125062095D01*
X57324476Y-125109714D02*
X57324476Y-125776380D01*
X57086380Y-124728761D02*
X56848285Y-125443047D01*
X57467333Y-125443047D01*
%TO.C,H15*%
X123221904Y-133142380D02*
X123221904Y-132142380D01*
X123221904Y-132618571D02*
X123793333Y-132618571D01*
X123793333Y-133142380D02*
X123793333Y-132142380D01*
X124793333Y-133142380D02*
X124221904Y-133142380D01*
X124507619Y-133142380D02*
X124507619Y-132142380D01*
X124412380Y-132285238D01*
X124317142Y-132380476D01*
X124221904Y-132428095D01*
X125698095Y-132142380D02*
X125221904Y-132142380D01*
X125174285Y-132618571D01*
X125221904Y-132570952D01*
X125317142Y-132523333D01*
X125555238Y-132523333D01*
X125650476Y-132570952D01*
X125698095Y-132618571D01*
X125745714Y-132713809D01*
X125745714Y-132951904D01*
X125698095Y-133047142D01*
X125650476Y-133094761D01*
X125555238Y-133142380D01*
X125317142Y-133142380D01*
X125221904Y-133094761D01*
X125174285Y-133047142D01*
%TO.C,H16*%
X223551904Y-157272380D02*
X223551904Y-156272380D01*
X223551904Y-156748571D02*
X224123333Y-156748571D01*
X224123333Y-157272380D02*
X224123333Y-156272380D01*
X225123333Y-157272380D02*
X224551904Y-157272380D01*
X224837619Y-157272380D02*
X224837619Y-156272380D01*
X224742380Y-156415238D01*
X224647142Y-156510476D01*
X224551904Y-156558095D01*
X225980476Y-156272380D02*
X225790000Y-156272380D01*
X225694761Y-156320000D01*
X225647142Y-156367619D01*
X225551904Y-156510476D01*
X225504285Y-156700952D01*
X225504285Y-157081904D01*
X225551904Y-157177142D01*
X225599523Y-157224761D01*
X225694761Y-157272380D01*
X225885238Y-157272380D01*
X225980476Y-157224761D01*
X226028095Y-157177142D01*
X226075714Y-157081904D01*
X226075714Y-156843809D01*
X226028095Y-156748571D01*
X225980476Y-156700952D01*
X225885238Y-156653333D01*
X225694761Y-156653333D01*
X225599523Y-156700952D01*
X225551904Y-156748571D01*
X225504285Y-156843809D01*
%TO.C,H17*%
X199421904Y-133142380D02*
X199421904Y-132142380D01*
X199421904Y-132618571D02*
X199993333Y-132618571D01*
X199993333Y-133142380D02*
X199993333Y-132142380D01*
X200993333Y-133142380D02*
X200421904Y-133142380D01*
X200707619Y-133142380D02*
X200707619Y-132142380D01*
X200612380Y-132285238D01*
X200517142Y-132380476D01*
X200421904Y-132428095D01*
X201326666Y-132142380D02*
X201993333Y-132142380D01*
X201564761Y-133142380D01*
%TO.C,H18*%
X269271904Y-124252380D02*
X269271904Y-123252380D01*
X269271904Y-123728571D02*
X269843333Y-123728571D01*
X269843333Y-124252380D02*
X269843333Y-123252380D01*
X270843333Y-124252380D02*
X270271904Y-124252380D01*
X270557619Y-124252380D02*
X270557619Y-123252380D01*
X270462380Y-123395238D01*
X270367142Y-123490476D01*
X270271904Y-123538095D01*
X271414761Y-123680952D02*
X271319523Y-123633333D01*
X271271904Y-123585714D01*
X271224285Y-123490476D01*
X271224285Y-123442857D01*
X271271904Y-123347619D01*
X271319523Y-123300000D01*
X271414761Y-123252380D01*
X271605238Y-123252380D01*
X271700476Y-123300000D01*
X271748095Y-123347619D01*
X271795714Y-123442857D01*
X271795714Y-123490476D01*
X271748095Y-123585714D01*
X271700476Y-123633333D01*
X271605238Y-123680952D01*
X271414761Y-123680952D01*
X271319523Y-123728571D01*
X271271904Y-123776190D01*
X271224285Y-123871428D01*
X271224285Y-124061904D01*
X271271904Y-124157142D01*
X271319523Y-124204761D01*
X271414761Y-124252380D01*
X271605238Y-124252380D01*
X271700476Y-124204761D01*
X271748095Y-124157142D01*
X271795714Y-124061904D01*
X271795714Y-123871428D01*
X271748095Y-123776190D01*
X271700476Y-123728571D01*
X271605238Y-123680952D01*
%TO.C,H19*%
X36861904Y-157272380D02*
X36861904Y-156272380D01*
X36861904Y-156748571D02*
X37433333Y-156748571D01*
X37433333Y-157272380D02*
X37433333Y-156272380D01*
X38433333Y-157272380D02*
X37861904Y-157272380D01*
X38147619Y-157272380D02*
X38147619Y-156272380D01*
X38052380Y-156415238D01*
X37957142Y-156510476D01*
X37861904Y-156558095D01*
X38909523Y-157272380D02*
X39100000Y-157272380D01*
X39195238Y-157224761D01*
X39242857Y-157177142D01*
X39338095Y-157034285D01*
X39385714Y-156843809D01*
X39385714Y-156462857D01*
X39338095Y-156367619D01*
X39290476Y-156320000D01*
X39195238Y-156272380D01*
X39004761Y-156272380D01*
X38909523Y-156320000D01*
X38861904Y-156367619D01*
X38814285Y-156462857D01*
X38814285Y-156700952D01*
X38861904Y-156796190D01*
X38909523Y-156843809D01*
X39004761Y-156891428D01*
X39195238Y-156891428D01*
X39290476Y-156843809D01*
X39338095Y-156796190D01*
X39385714Y-156700952D01*
%TO.C,H20*%
X85121904Y-157272380D02*
X85121904Y-156272380D01*
X85121904Y-156748571D02*
X85693333Y-156748571D01*
X85693333Y-157272380D02*
X85693333Y-156272380D01*
X86121904Y-156367619D02*
X86169523Y-156320000D01*
X86264761Y-156272380D01*
X86502857Y-156272380D01*
X86598095Y-156320000D01*
X86645714Y-156367619D01*
X86693333Y-156462857D01*
X86693333Y-156558095D01*
X86645714Y-156700952D01*
X86074285Y-157272380D01*
X86693333Y-157272380D01*
X87312380Y-156272380D02*
X87407619Y-156272380D01*
X87502857Y-156320000D01*
X87550476Y-156367619D01*
X87598095Y-156462857D01*
X87645714Y-156653333D01*
X87645714Y-156891428D01*
X87598095Y-157081904D01*
X87550476Y-157177142D01*
X87502857Y-157224761D01*
X87407619Y-157272380D01*
X87312380Y-157272380D01*
X87217142Y-157224761D01*
X87169523Y-157177142D01*
X87121904Y-157081904D01*
X87074285Y-156891428D01*
X87074285Y-156653333D01*
X87121904Y-156462857D01*
X87169523Y-156367619D01*
X87217142Y-156320000D01*
X87312380Y-156272380D01*
%TO.C,H21*%
X127031904Y-157272380D02*
X127031904Y-156272380D01*
X127031904Y-156748571D02*
X127603333Y-156748571D01*
X127603333Y-157272380D02*
X127603333Y-156272380D01*
X128031904Y-156367619D02*
X128079523Y-156320000D01*
X128174761Y-156272380D01*
X128412857Y-156272380D01*
X128508095Y-156320000D01*
X128555714Y-156367619D01*
X128603333Y-156462857D01*
X128603333Y-156558095D01*
X128555714Y-156700952D01*
X127984285Y-157272380D01*
X128603333Y-157272380D01*
X129555714Y-157272380D02*
X128984285Y-157272380D01*
X129270000Y-157272380D02*
X129270000Y-156272380D01*
X129174761Y-156415238D01*
X129079523Y-156510476D01*
X128984285Y-156558095D01*
%TO.C,H22*%
X168941904Y-157272380D02*
X168941904Y-156272380D01*
X168941904Y-156748571D02*
X169513333Y-156748571D01*
X169513333Y-157272380D02*
X169513333Y-156272380D01*
X169941904Y-156367619D02*
X169989523Y-156320000D01*
X170084761Y-156272380D01*
X170322857Y-156272380D01*
X170418095Y-156320000D01*
X170465714Y-156367619D01*
X170513333Y-156462857D01*
X170513333Y-156558095D01*
X170465714Y-156700952D01*
X169894285Y-157272380D01*
X170513333Y-157272380D01*
X170894285Y-156367619D02*
X170941904Y-156320000D01*
X171037142Y-156272380D01*
X171275238Y-156272380D01*
X171370476Y-156320000D01*
X171418095Y-156367619D01*
X171465714Y-156462857D01*
X171465714Y-156558095D01*
X171418095Y-156700952D01*
X170846666Y-157272380D01*
X171465714Y-157272380D01*
%TO.C,H23*%
X266731904Y-157272380D02*
X266731904Y-156272380D01*
X266731904Y-156748571D02*
X267303333Y-156748571D01*
X267303333Y-157272380D02*
X267303333Y-156272380D01*
X267731904Y-156367619D02*
X267779523Y-156320000D01*
X267874761Y-156272380D01*
X268112857Y-156272380D01*
X268208095Y-156320000D01*
X268255714Y-156367619D01*
X268303333Y-156462857D01*
X268303333Y-156558095D01*
X268255714Y-156700952D01*
X267684285Y-157272380D01*
X268303333Y-157272380D01*
X268636666Y-156272380D02*
X269255714Y-156272380D01*
X268922380Y-156653333D01*
X269065238Y-156653333D01*
X269160476Y-156700952D01*
X269208095Y-156748571D01*
X269255714Y-156843809D01*
X269255714Y-157081904D01*
X269208095Y-157177142D01*
X269160476Y-157224761D01*
X269065238Y-157272380D01*
X268779523Y-157272380D01*
X268684285Y-157224761D01*
X268636666Y-157177142D01*
%TO.C,H24*%
X311181904Y-157272380D02*
X311181904Y-156272380D01*
X311181904Y-156748571D02*
X311753333Y-156748571D01*
X311753333Y-157272380D02*
X311753333Y-156272380D01*
X312181904Y-156367619D02*
X312229523Y-156320000D01*
X312324761Y-156272380D01*
X312562857Y-156272380D01*
X312658095Y-156320000D01*
X312705714Y-156367619D01*
X312753333Y-156462857D01*
X312753333Y-156558095D01*
X312705714Y-156700952D01*
X312134285Y-157272380D01*
X312753333Y-157272380D01*
X313610476Y-156605714D02*
X313610476Y-157272380D01*
X313372380Y-156224761D02*
X313134285Y-156939047D01*
X313753333Y-156939047D01*
%TO.C,H25*%
X349281904Y-157272380D02*
X349281904Y-156272380D01*
X349281904Y-156748571D02*
X349853333Y-156748571D01*
X349853333Y-157272380D02*
X349853333Y-156272380D01*
X350281904Y-156367619D02*
X350329523Y-156320000D01*
X350424761Y-156272380D01*
X350662857Y-156272380D01*
X350758095Y-156320000D01*
X350805714Y-156367619D01*
X350853333Y-156462857D01*
X350853333Y-156558095D01*
X350805714Y-156700952D01*
X350234285Y-157272380D01*
X350853333Y-157272380D01*
X351758095Y-156272380D02*
X351281904Y-156272380D01*
X351234285Y-156748571D01*
X351281904Y-156700952D01*
X351377142Y-156653333D01*
X351615238Y-156653333D01*
X351710476Y-156700952D01*
X351758095Y-156748571D01*
X351805714Y-156843809D01*
X351805714Y-157081904D01*
X351758095Y-157177142D01*
X351710476Y-157224761D01*
X351615238Y-157272380D01*
X351377142Y-157272380D01*
X351281904Y-157224761D01*
X351234285Y-157177142D01*
%TO.C,U3*%
X324678380Y-68071904D02*
X325487904Y-68071904D01*
X325583142Y-68024285D01*
X325630761Y-67976666D01*
X325678380Y-67881428D01*
X325678380Y-67690952D01*
X325630761Y-67595714D01*
X325583142Y-67548095D01*
X325487904Y-67500476D01*
X324678380Y-67500476D01*
X324678380Y-67119523D02*
X324678380Y-66500476D01*
X325059333Y-66833809D01*
X325059333Y-66690952D01*
X325106952Y-66595714D01*
X325154571Y-66548095D01*
X325249809Y-66500476D01*
X325487904Y-66500476D01*
X325583142Y-66548095D01*
X325630761Y-66595714D01*
X325678380Y-66690952D01*
X325678380Y-66976666D01*
X325630761Y-67071904D01*
X325583142Y-67119523D01*
%TD*%
M02*
