M48
; DRILL file {KiCad 5.1.6+dfsg1-1~bpo10+1} date Mon Jun 22 19:18:48 2020
; FORMAT={-:-/ absolute / inch / decimal}
; #@! TF.CreationDate,2020-06-22T19:18:48-07:00
; #@! TF.GenerationSoftware,Kicad,Pcbnew,5.1.6+dfsg1-1~bpo10+1
FMAT,2
INCH
T1C0.0130
T2C0.0157
T3C0.0236
T4C0.0390
T5C0.0394
T6C0.0512
T7C0.0591
T8C0.0669
T9C0.0866
T10C0.1201
T11C0.1575
%
G90
G05
T1
X2.095Y-5.845
X2.656Y-6.05
X2.66Y-6.272
X3.456Y-2.068
X3.456Y-2.178
X5.088Y-2.074
X5.088Y-2.198
X5.262Y-5.67
X5.502Y-5.67
X7.296Y-2.062
X7.296Y-2.216
X7.498Y-5.94
X7.498Y-6.204
X8.734Y-2.19
X8.736Y-2.072
X9.082Y-5.754
X9.088Y-5.598
X9.471Y-6.187
X10.348Y-2.178
X10.356Y-2.072
X11.028Y-5.734
X11.03Y-5.586
X12.016Y-6.382
X12.018Y-6.226
X12.57Y-2.676
T2
X1.4891Y-5.8352
X1.53Y-6.09
X1.589Y-5.9351
X1.6595Y-5.9829
X1.74Y-6.02
X1.98Y-5.91
X1.989Y-6.0527
X2.17Y-6.02
X2.22Y-5.94
X2.41Y-5.83
X2.94Y-5.83
X3.0Y-5.81
X3.08Y-5.98
X3.1134Y-6.0605
X3.14Y-6.0237
X3.1533Y-5.9623
X3.23Y-4.95
X3.3715Y-5.9385
X3.4Y-6.06
X3.5206Y-6.0135
X3.5954Y-5.938
X3.6Y-4.56
X3.62Y-5.87
X3.62Y-5.98
X3.7533Y-5.8033
X3.825Y-6.055
X3.91Y-4.44
X4.05Y-3.83
X4.17Y-5.85
X4.3Y-6.23
X4.3221Y-6.0045
X4.377Y-6.0946
X4.4012Y-5.9254
X4.4045Y-6.0385
X4.52Y-5.85
X4.5463Y-5.9663
X4.5793Y-5.9353
X4.63Y-3.96
X4.65Y-5.99
X4.65Y-6.08
X4.84Y-6.15
X4.84Y-6.24
X4.8493Y-5.9773
X4.8633Y-6.0204
X5.04Y-5.85
X5.07Y-5.89
X5.16Y-5.25
X5.33Y-5.31
X5.33Y-5.38
X5.34Y-5.53
X5.3606Y-5.4544
X5.37Y-5.41
X5.59Y-5.37
X5.619Y-5.4827
X5.7736Y-5.4079
X5.7847Y-5.4587
X5.81Y-5.53
X5.81Y-5.63
X5.83Y-5.36
X5.84Y-5.3
X5.96Y-5.26
X6.7948Y-5.2107
X6.96Y-5.2107
X7.0Y-5.36
X7.01Y-5.4607
X7.05Y-5.3323
X7.05Y-5.3937
X7.28Y-5.32
X7.37Y-5.54
X7.39Y-4.04
X7.44Y-4.55
X7.4457Y-5.3323
X7.45Y-5.4
X7.481Y-5.3608
X7.6Y-5.2107
X7.6453Y-5.2447
X7.72Y-5.97
X7.8Y-5.98
X7.87Y-6.1
X7.9031Y-6.2278
X7.909Y-6.126
X7.92Y-6.17
X8.17Y-6.09
X8.1816Y-6.194
X8.3039Y-6.1552
X8.344Y-6.1341
X8.37Y-6.25
X8.37Y-6.35
X8.3747Y-6.1006
X8.43Y-6.04
X8.57Y-5.98
X9.25Y-5.98
X9.44Y-6.12
X9.48Y-6.24
X9.5376Y-6.0647
X9.5584Y-6.1051
X9.74Y-5.7027
X9.7707Y-6.0543
X9.78Y-6.2
X10.02Y-6.17
X10.0217Y-6.0817
X10.04Y-6.02
X10.18Y-5.6353
X10.18Y-5.99
X10.55Y-4.67
X10.59Y-5.27
X10.61Y-4.14
X10.825Y-6.34
X10.83Y-6.2
X10.86Y-5.98
X11.03Y-6.14
X11.05Y-6.07
X11.05Y-6.24
X11.1Y-6.05
X11.31Y-6.07
X11.35Y-6.19
X11.477Y-6.1513
X11.519Y-6.134
X11.525Y-6.235
X11.525Y-6.36
X11.57Y-6.09
X11.6007Y-6.03
X11.73Y-5.98
X12.35Y-3.06
X12.6Y-5.98
X12.61Y-2.75
X12.65Y-2.49
X12.7Y-3.34
X12.705Y-2.8
X12.7243Y-2.94
X12.75Y-6.04
X12.7551Y-2.8149
X12.765Y-4.215
X12.7779Y-6.0779
X12.78Y-2.54
X12.7885Y-6.2203
X12.8Y-3.75
X12.81Y-6.11
X12.81Y-6.1554
X12.8107Y-3.16
X12.8107Y-3.26
X12.8621Y-2.9555
X12.87Y-3.73
X12.8955Y-3.4354
X12.94Y-5.95
X12.945Y-4.225
X12.945Y-6.0
X12.96Y-4.0
X12.98Y-4.06
X12.99Y-3.2
X12.99Y-3.26
X13.0Y-6.21
X13.04Y-5.95
X13.065Y-6.155
X13.07Y-6.21
X13.1Y-4.38
X13.15Y-2.47
X13.2Y-6.1183
X13.28Y-2.75
X13.28Y-3.9
X13.29Y-4.115
X13.294Y-4.3093
X13.3Y-3.81
X13.3198Y-6.1023
X13.32Y-6.17
X13.36Y-4.59
X13.368Y-4.3093
X13.37Y-5.1
X13.44Y-3.28
X13.44Y-5.11
X13.47Y-6.25
X13.56Y-4.72
X13.7704Y-4.59
X13.89Y-4.72
X12.7832Y-2.2669
X12.7832Y-2.32
X12.8167Y-2.2669
X12.8167Y-2.32
X12.8502Y-2.2669
X12.8502Y-2.32
X12.8836Y-2.2669
X12.8836Y-2.32
X12.9171Y-2.2669
X12.9171Y-2.32
X12.9506Y-2.2669
X12.9506Y-2.32
X12.984Y-2.2669
X12.984Y-2.32
X13.0175Y-2.2669
X13.0175Y-2.32
T4
X7.0078Y-5.93
X7.185Y-5.93
X5.5078Y-5.93
X5.685Y-5.93
X6.2578Y-5.93
X6.435Y-5.93
T5
X12.36Y-3.2
X12.36Y-3.3
X12.36Y-3.4
X1.73Y-6.31
X1.83Y-6.31
X1.93Y-6.31
X13.2Y-2.98
X13.2Y-3.08
X13.2Y-3.18
X13.2Y-3.28
X13.2Y-3.38
T6
X6.2082Y-5.832
X6.4842Y-5.832
X6.9582Y-5.832
X7.2342Y-5.832
X5.4582Y-5.832
X5.7342Y-5.832
T7
X9.935Y-4.53
X10.185Y-4.43
X7.5Y-2.28
X7.75Y-2.18
X8.435Y-4.53
X8.685Y-4.43
X12.745Y-4.53
X12.995Y-4.43
X4.875Y-3.03
X5.125Y-2.93
X1.6875Y-3.03
X1.9375Y-2.93
X8.81Y-3.78
X9.06Y-3.68
X10.31Y-3.78
X10.56Y-3.68
X3.375Y-3.03
X3.625Y-2.93
X9.56Y-3.78
X9.81Y-3.68
X8.625Y-3.03
X8.875Y-2.93
X9.09Y-5.28
X9.34Y-5.18
X11.815Y-3.03
X12.065Y-2.93
X6.185Y-6.03
X6.435Y-5.93
X3.75Y-2.28
X4.0Y-2.18
X11.34Y-4.53
X11.59Y-4.43
X2.625Y-3.03
X2.875Y-2.93
X6.275Y-5.28
X6.525Y-5.18
X9.75Y-2.28
X10.0Y-2.18
X13.495Y-5.28
X13.745Y-5.18
X3.935Y-4.53
X4.185Y-4.43
X6.75Y-2.28
X7.0Y-2.18
X4.5Y-2.28
X4.75Y-2.18
X1.9675Y-4.53
X2.2175Y-4.43
X11.625Y-2.28
X11.875Y-2.18
X10.5Y-2.28
X10.75Y-2.18
X10.875Y-3.03
X11.125Y-2.93
X7.31Y-3.78
X7.56Y-3.68
X2.2495Y-2.28
X2.4995Y-2.18
X9.185Y-4.53
X9.435Y-4.43
X5.625Y-3.03
X5.875Y-2.93
X5.25Y-2.28
X5.5Y-2.18
X1.5Y-2.28
X1.75Y-2.18
X10.125Y-3.03
X10.375Y-2.93
X13.5Y-3.78
X13.75Y-3.68
X11.53Y-3.78
X11.78Y-3.68
X6.375Y-3.03
X6.625Y-2.93
X6.935Y-6.03
X7.185Y-5.93
X1.78Y-3.78
X2.03Y-3.68
X5.435Y-6.03
X5.685Y-5.93
X4.31Y-3.78
X4.56Y-3.68
X8.25Y-2.28
X8.5Y-2.18
X6.185Y-4.53
X6.435Y-4.43
X7.125Y-3.03
X7.375Y-2.93
X5.06Y-3.78
X5.31Y-3.68
X13.5Y-2.28
X13.75Y-2.18
X3.465Y-5.28
X3.715Y-5.18
X13.5Y-3.03
X13.75Y-2.93
X6.0Y-2.28
X6.25Y-2.18
X10.0275Y-5.28
X10.2775Y-5.18
X6.56Y-3.78
X6.81Y-3.68
X6.935Y-4.53
X7.185Y-4.43
X8.06Y-3.78
X8.31Y-3.68
X9.0Y-2.28
X9.25Y-2.18
X9.375Y-3.03
X9.625Y-2.93
X3.56Y-3.78
X3.81Y-3.68
X2.53Y-5.28
X2.78Y-5.18
X5.81Y-3.78
X6.06Y-3.68
X2.81Y-3.78
X3.06Y-3.68
X7.685Y-4.53
X7.935Y-4.43
X12.745Y-5.28
X12.995Y-5.18
X4.125Y-3.03
X4.375Y-2.93
X10.965Y-5.28
X11.215Y-5.18
X4.685Y-4.53
X4.935Y-4.43
X11.995Y-5.28
X12.245Y-5.18
X3.185Y-4.53
X3.435Y-4.43
X3.0Y-2.28
X3.25Y-2.18
X5.435Y-4.53
X5.685Y-4.43
X1.5925Y-5.28
X1.8425Y-5.18
X7.875Y-3.03
X8.125Y-2.93
T8
X8.385Y-4.63
X8.785Y-4.63
X12.695Y-4.63
X13.095Y-4.63
X4.825Y-3.13
X5.225Y-3.13
X1.6375Y-3.13
X2.0375Y-3.13
X8.76Y-3.88
X9.16Y-3.88
X10.26Y-3.88
X10.66Y-3.88
X3.325Y-3.13
X3.725Y-3.13
X9.51Y-3.88
X9.91Y-3.88
X8.575Y-3.13
X8.975Y-3.13
X9.04Y-5.38
X9.44Y-5.38
X11.765Y-3.13
X12.165Y-3.13
X6.135Y-6.13
X6.535Y-6.13
X3.7Y-2.38
X4.1Y-2.38
X11.29Y-4.63
X11.69Y-4.63
X2.575Y-3.13
X2.975Y-3.13
X6.225Y-5.38
X6.625Y-5.38
X9.7Y-2.38
X10.1Y-2.38
X13.445Y-5.38
X13.845Y-5.38
X3.885Y-4.63
X4.285Y-4.63
X6.7Y-2.38
X7.1Y-2.38
X4.45Y-2.38
X4.85Y-2.38
X1.9175Y-4.63
X2.3175Y-4.63
X11.575Y-2.38
X11.975Y-2.38
X10.45Y-2.38
X10.85Y-2.38
X10.825Y-3.13
X11.225Y-3.13
X7.26Y-3.88
X7.66Y-3.88
X2.1995Y-2.38
X2.5995Y-2.38
X9.135Y-4.63
X9.535Y-4.63
X5.575Y-3.13
X5.975Y-3.13
X5.2Y-2.38
X5.6Y-2.38
X1.45Y-2.38
X1.85Y-2.38
X10.075Y-3.13
X10.475Y-3.13
X13.45Y-3.88
X13.85Y-3.88
X11.48Y-3.88
X11.88Y-3.88
X6.325Y-3.13
X6.725Y-3.13
X6.885Y-6.13
X7.285Y-6.13
X1.73Y-3.88
X2.13Y-3.88
X5.385Y-6.13
X5.785Y-6.13
X4.26Y-3.88
X4.66Y-3.88
X8.2Y-2.38
X8.6Y-2.38
X6.135Y-4.63
X6.535Y-4.63
X7.075Y-3.13
X7.475Y-3.13
X5.01Y-3.88
X5.41Y-3.88
X13.45Y-2.38
X13.85Y-2.38
X3.415Y-5.38
X3.815Y-5.38
X13.45Y-3.13
X13.85Y-3.13
X5.95Y-2.38
X6.35Y-2.38
X9.9775Y-5.38
X10.3775Y-5.38
X6.51Y-3.88
X6.91Y-3.88
X6.885Y-4.63
X7.285Y-4.63
X8.01Y-3.88
X8.41Y-3.88
X8.95Y-2.38
X9.35Y-2.38
X9.325Y-3.13
X9.725Y-3.13
X3.51Y-3.88
X3.91Y-3.88
X2.48Y-5.38
X2.88Y-5.38
X5.76Y-3.88
X6.16Y-3.88
X2.76Y-3.88
X3.16Y-3.88
X7.635Y-4.63
X8.035Y-4.63
X12.695Y-5.38
X13.095Y-5.38
X4.075Y-3.13
X4.475Y-3.13
X10.915Y-5.38
X11.315Y-5.38
X4.635Y-4.63
X5.035Y-4.63
X11.945Y-5.38
X12.345Y-5.38
X3.135Y-4.63
X3.535Y-4.63
X2.95Y-2.38
X3.35Y-2.38
X5.385Y-4.63
X5.785Y-4.63
X1.5425Y-5.38
X1.9425Y-5.38
X7.825Y-3.13
X8.225Y-3.13
X9.885Y-4.63
X10.285Y-4.63
X7.45Y-2.38
X7.85Y-2.38
T9
X7.9Y-5.35
X10.55Y-6.3
X1.5Y-6.3
X5.05Y-6.3
X13.82Y-4.26
X13.66Y-2.76
X7.835Y-3.505
X3.4Y-6.3
X12.32Y-4.52
X8.78Y-2.76
X4.84Y-4.25
X4.9Y-5.35
X13.8Y-6.3
X2.02Y-2.76
X2.21Y-5.06
X11.03Y-2.76
X4.28Y-2.76
X8.85Y-6.3
X10.65Y-5.0
X10.085Y-3.505
X2.45Y-4.03
X6.53Y-2.76
X6.7Y-6.3
X12.37Y-2.39
X12.3Y-6.3
T10
X11.0215Y-4.3544
X11.9585Y-4.3544
X4.4565Y-5.1044
X8.3935Y-5.1044
X1.649Y-4.3544
X2.586Y-4.3544
X11.3065Y-2.1044
X12.2435Y-2.1044
X11.2115Y-3.6044
X12.1485Y-3.6044
T11
X11.0215Y-4.9544
X11.49Y-4.63
X11.9585Y-4.9544
X2.775Y-3.13
X4.4565Y-5.7044
X6.425Y-5.38
X8.3935Y-5.7044
X9.9Y-2.38
X13.645Y-5.38
X4.085Y-4.63
X6.9Y-2.38
X4.65Y-2.38
X1.649Y-4.9544
X2.1175Y-4.63
X2.586Y-4.9544
X11.3065Y-2.7044
X11.775Y-2.38
X12.2435Y-2.7044
X10.65Y-2.38
X11.025Y-3.13
X7.46Y-3.88
X2.3995Y-2.38
X9.335Y-4.63
X5.775Y-3.13
X5.4Y-2.38
X1.65Y-2.38
X10.275Y-3.13
X13.65Y-3.88
X11.2115Y-4.2044
X11.68Y-3.88
X12.1485Y-4.2044
X6.525Y-3.13
X7.085Y-6.13
X1.93Y-3.88
X5.585Y-6.13
X4.46Y-3.88
X8.4Y-2.38
X6.335Y-4.63
X7.275Y-3.13
X5.21Y-3.88
X13.65Y-2.38
X3.615Y-5.38
X13.65Y-3.13
X6.15Y-2.38
X10.1775Y-5.38
X6.71Y-3.88
X7.085Y-4.63
X8.21Y-3.88
X9.15Y-2.38
X9.525Y-3.13
X3.71Y-3.88
X2.68Y-5.38
X5.96Y-3.88
X2.96Y-3.88
X7.835Y-4.63
X12.895Y-5.38
X4.275Y-3.13
X11.115Y-5.38
X4.835Y-4.63
X12.145Y-5.38
X3.335Y-4.63
X3.15Y-2.38
X5.585Y-4.63
X1.7425Y-5.38
X8.025Y-3.13
X10.085Y-4.63
X7.65Y-2.38
X8.585Y-4.63
X12.895Y-4.63
X5.025Y-3.13
X1.8375Y-3.13
X8.96Y-3.88
X10.46Y-3.88
X3.525Y-3.13
X9.71Y-3.88
X8.775Y-3.13
X9.24Y-5.38
X11.965Y-3.13
X6.335Y-6.13
X3.9Y-2.38
T3
G00X12.7301Y-2.1641
M15
G01X12.7301Y-2.1326
M16
G05
G00X12.7301Y-2.3109
M15
G01X12.7301Y-2.2519
M16
G05
G00X13.0706Y-2.1641
M15
G01X13.0706Y-2.1326
M16
G05
G00X13.0706Y-2.3109
M15
G01X13.0706Y-2.2519
M16
G05
T0
M30
